<svg width="18" height="18" viewBox="0 0 18 18" fill="none" xmlns="http://www.w3.org/2000/svg">
<path d="M18 0H0V18H18V0Z" fill="white"/>
<path d="M6.75 2.625V2.25" stroke="#333333" stroke-width="2" stroke-linecap="round" stroke-linejoin="round"/>
<path d="M11.25 2.625V2.25" stroke="#333333" stroke-width="2" stroke-linecap="round" stroke-linejoin="round"/>
<path d="M9 2.625V2.25" stroke="#333333" stroke-width="2" stroke-linecap="round" stroke-linejoin="round"/>
<path d="M16.5 13.0371C16.5 12.9701 16.4557 12.9109 16.3907 12.8944C15.9782 12.7891 15.5509 12.75 15 12.75C14.5626 12.75 14.2399 12.8784 13.7895 13.0669L13.7631 13.0779C13.3211 13.263 12.7551 13.5 12 13.5C11.2449 13.5 10.6788 13.263 10.2369 13.0779L10.2105 13.0669C9.76005 12.8784 9.4374 12.75 9 12.75C8.5626 12.75 8.23995 12.8784 7.7895 13.0669L7.7631 13.0779C7.32116 13.263 6.75511 13.5 6 13.5C5.24489 13.5 4.67884 13.263 4.23692 13.0779L4.21049 13.0669C3.76003 12.8784 3.43737 12.75 3 12.75C2.44912 12.75 2.0218 12.7891 1.60924 12.8944C1.54435 12.9109 1.5 12.9701 1.5 13.0371V13.5564C1.5 14.0251 1.52414 14.453 1.60658 14.824C1.69092 15.2035 1.84592 15.5678 2.13906 15.8609C2.43221 16.1541 2.79655 16.3091 3.17605 16.3934C3.54703 16.4759 3.97487 16.5 4.4436 16.5H13.5564C14.0251 16.5 14.453 16.4759 14.824 16.3934C15.2035 16.3091 15.5678 16.1541 15.8609 15.8609C16.1541 15.5678 16.3091 15.2035 16.3934 14.824C16.4759 14.453 16.5 14.0251 16.5 13.5564V13.0371Z" fill="#333333"/>
<path d="M4.44332 9C3.97459 9 3.54675 9.02415 3.17577 9.10658C2.79627 9.19095 2.43192 9.3459 2.13878 9.63908C1.84563 9.93218 1.69065 10.2965 1.6063 10.676C1.57094 10.8352 1.5463 11.0047 1.5297 11.1836C1.52059 11.2816 1.60944 11.3589 1.70656 11.3429C2.09997 11.2778 2.51825 11.25 2.99972 11.25C3.75483 11.25 4.32088 11.487 4.7628 11.6721L4.78923 11.6831C5.23969 11.8716 5.56235 12 5.99972 12C6.4371 12 6.75975 11.8716 7.21021 11.6831L7.23664 11.6721C7.67853 11.487 8.24463 11.25 8.99973 11.25C9.75483 11.25 10.3209 11.487 10.7628 11.6721L10.7892 11.6831C11.2397 11.8716 11.5623 12 11.9997 12C12.4371 12 12.7598 11.8716 13.2102 11.6831L13.2366 11.6721C13.6785 11.487 14.2446 11.25 14.9997 11.25C15.4812 11.25 15.8995 11.2778 16.2929 11.3429C16.39 11.3589 16.4789 11.2816 16.4697 11.1836C16.4532 11.0048 16.4285 10.8352 16.3932 10.676C16.3088 10.2965 16.1538 9.93218 15.8607 9.63908C15.5675 9.3459 15.2031 9.19095 14.8236 9.10658C14.4527 9.02415 14.0248 9 13.5561 9H4.44332Z" fill="#333333"/>
<path d="M7.49984 5.25C7.49984 4.83579 7.16405 4.5 6.74984 4.5C6.33563 4.5 5.99984 4.83579 5.99984 5.25L5.99982 6L5.99984 6.0124C5.98985 6.01296 5.97989 6.01355 5.96995 6.01415C5.74073 6.02821 5.52491 6.05419 5.32586 6.09843C4.97305 6.17684 4.62871 6.32219 4.35039 6.60052C4.07207 6.87883 3.92672 7.22318 3.8483 7.57598C3.81176 7.74045 3.78767 7.91632 3.77247 8.1018C3.76511 8.19165 3.84053 8.26553 3.93061 8.26118C4.10101 8.253 4.27267 8.25 4.44351 8.25H13.5563C13.7271 8.25 13.8988 8.253 14.0692 8.26118C14.1592 8.26553 14.2346 8.19165 14.2273 8.1018C14.212 7.91632 14.188 7.74045 14.1514 7.57598C14.073 7.22318 13.9276 6.87883 13.6493 6.60052C13.371 6.32219 13.0267 6.17684 12.6739 6.09843C12.474 6.05401 12.2572 6.02799 12.0269 6.01398C12.0179 6.01343 12.0089 6.0129 11.9998 6.01239V6V5.25C11.9998 4.83579 11.6641 4.5 11.2498 4.5C10.8356 4.5 10.4998 4.83579 10.4998 5.25V5.95313V6H10.453H9.79672H9.74985V5.95313V5.25C9.74985 4.83579 9.41407 4.5 8.99985 4.5C8.58562 4.5 8.24985 4.83579 8.24985 5.25V5.95313V6H8.20297H7.54672H7.49984V5.95313V5.25Z" fill="#333333"/>
</svg>
