<svg width="28" height="31" viewBox="0 0 28 31" fill="none" xmlns="http://www.w3.org/2000/svg">
<path d="M13.6133 0C13.3039 0 12.9945 0.155 12.8398 0.31L10.674 2.325L8.1989 1.86C7.42541 1.705 6.96133 2.17 6.80663 2.79L6.34254 5.58L3.71271 6.82C3.09392 7.13 2.93923 7.75 3.24862 8.37L4.48619 10.85L3.24862 13.33C2.93923 13.95 3.24862 14.57 3.71271 14.88L6.34254 16.12L6.80663 18.91C6.96133 19.53 7.58011 19.995 8.1989 19.84L11.1381 19.375L13.3039 21.39C13.768 21.855 14.5414 21.855 15.0055 21.39L17.1713 19.375L20.1105 19.84C20.7293 19.995 21.3481 19.53 21.5028 18.91L21.9669 16.12L24.5967 14.88C25.2155 14.57 25.3702 13.95 25.0608 13.33L23.3591 10.85L24.5967 8.37C24.9061 7.75 24.7514 7.13 24.1326 6.82L21.5028 5.58L21.0387 2.79C20.884 2.17 20.2652 1.705 19.6464 1.86L16.7072 2.325L14.5414 0.31C14.3867 6.92904e-08 13.9227 0 13.6133 0ZM4.79558 17.205L0 26.815L5.56906 26.04L8.35359 31L12.3757 22.785L12.0663 22.475L10.5193 21.08L8.35359 21.39C6.96133 21.545 5.56906 20.615 5.25967 19.22L4.79558 17.205ZM23.0497 17.205L22.5856 19.22C22.2762 20.46 21.1934 21.39 19.9558 21.39H19.6464L17.4807 21.08L15.9337 22.475L15.6243 22.785L19.6464 31L22.4309 26.195L28 26.97L23.0497 17.205Z" fill="black"/>
</svg>
