<svg width="319" height="107" viewBox="0 0 319 107" fill="none" xmlns="http://www.w3.org/2000/svg">
<mask id="path-1-outside-1_84_1078" maskUnits="userSpaceOnUse" x="1" y="12" width="318" height="53" fill="black">
<rect fill="white" x="1" y="12" width="318" height="53"/>
<path d="M45.1136 31.75H35.1591C34.9773 30.4621 34.6061 29.3182 34.0455 28.3182C33.4849 27.303 32.7652 26.4394 31.8864 25.7273C31.0076 25.0151 29.9924 24.4697 28.8409 24.0909C27.7045 23.7121 26.4697 23.5227 25.1364 23.5227C22.7273 23.5227 20.6288 24.1212 18.8409 25.3182C17.053 26.5 15.6667 28.2273 14.6818 30.5C13.697 32.7576 13.2045 35.5 13.2045 38.7273C13.2045 42.0455 13.697 44.8333 14.6818 47.0909C15.6818 49.3485 17.0758 51.053 18.8636 52.2045C20.6515 53.3561 22.7197 53.9318 25.0682 53.9318C26.3864 53.9318 27.6061 53.7576 28.7273 53.4091C29.8636 53.0606 30.8712 52.553 31.75 51.8864C32.6288 51.2045 33.3561 50.3788 33.9318 49.4091C34.5227 48.4394 34.9318 47.3333 35.1591 46.0909L45.1136 46.1364C44.8561 48.2727 44.2121 50.3333 43.1818 52.3182C42.1667 54.2879 40.7955 56.053 39.0682 57.6136C37.3561 59.1591 35.3106 60.3864 32.9318 61.2955C30.5682 62.1894 27.8939 62.6364 24.9091 62.6364C20.7576 62.6364 17.0455 61.697 13.7727 59.8182C10.5152 57.9394 7.93939 55.2197 6.04545 51.6591C4.16667 48.0985 3.22727 43.7879 3.22727 38.7273C3.22727 33.6515 4.18182 29.3333 6.09091 25.7727C8 22.2121 10.5909 19.5 13.8636 17.6364C17.1364 15.7576 20.8182 14.8182 24.9091 14.8182C27.6061 14.8182 30.1061 15.197 32.4091 15.9545C34.7273 16.7121 36.7803 17.8182 38.5682 19.2727C40.3561 20.7121 41.8106 22.4773 42.9318 24.5682C44.0682 26.6591 44.7955 29.053 45.1136 31.75ZM94.9432 38.7273C94.9432 43.803 93.9811 48.1212 92.0568 51.6818C90.1477 55.2424 87.5417 57.9621 84.2386 59.8409C80.9508 61.7045 77.2538 62.6364 73.1477 62.6364C69.0114 62.6364 65.2992 61.697 62.0114 59.8182C58.7235 57.9394 56.125 55.2197 54.2159 51.6591C52.3068 48.0985 51.3523 43.7879 51.3523 38.7273C51.3523 33.6515 52.3068 29.3333 54.2159 25.7727C56.125 22.2121 58.7235 19.5 62.0114 17.6364C65.2992 15.7576 69.0114 14.8182 73.1477 14.8182C77.2538 14.8182 80.9508 15.7576 84.2386 17.6364C87.5417 19.5 90.1477 22.2121 92.0568 25.7727C93.9811 29.3333 94.9432 33.6515 94.9432 38.7273ZM84.9659 38.7273C84.9659 35.4394 84.4735 32.6667 83.4886 30.4091C82.5189 28.1515 81.1477 26.4394 79.375 25.2727C77.6023 24.1061 75.5265 23.5227 73.1477 23.5227C70.7689 23.5227 68.6932 24.1061 66.9205 25.2727C65.1477 26.4394 63.7689 28.1515 62.7841 30.4091C61.8144 32.6667 61.3295 35.4394 61.3295 38.7273C61.3295 42.0152 61.8144 44.7879 62.7841 47.0455C63.7689 49.303 65.1477 51.0152 66.9205 52.1818C68.6932 53.3485 70.7689 53.9318 73.1477 53.9318C75.5265 53.9318 77.6023 53.3485 79.375 52.1818C81.1477 51.0152 82.5189 49.303 83.4886 47.0455C84.4735 44.7879 84.9659 42.0152 84.9659 38.7273ZM141.165 15.4545V62H132.665L112.415 32.7045H112.074V62H102.233V15.4545H110.869L130.96 44.7273H131.369V15.4545H141.165ZM147.523 23.5682V15.4545H185.75V23.5682H171.5V62H161.773V23.5682H147.523ZM194.381 62H183.835L199.903 15.4545H212.585L228.631 62H218.085L206.426 26.0909H206.062L194.381 62ZM193.722 43.7045H218.631V51.3864H193.722V43.7045ZM273.114 31.75H263.159C262.977 30.4621 262.606 29.3182 262.045 28.3182C261.485 27.303 260.765 26.4394 259.886 25.7273C259.008 25.0151 257.992 24.4697 256.841 24.0909C255.705 23.7121 254.47 23.5227 253.136 23.5227C250.727 23.5227 248.629 24.1212 246.841 25.3182C245.053 26.5 243.667 28.2273 242.682 30.5C241.697 32.7576 241.205 35.5 241.205 38.7273C241.205 42.0455 241.697 44.8333 242.682 47.0909C243.682 49.3485 245.076 51.053 246.864 52.2045C248.652 53.3561 250.72 53.9318 253.068 53.9318C254.386 53.9318 255.606 53.7576 256.727 53.4091C257.864 53.0606 258.871 52.553 259.75 51.8864C260.629 51.2045 261.356 50.3788 261.932 49.4091C262.523 48.4394 262.932 47.3333 263.159 46.0909L273.114 46.1364C272.856 48.2727 272.212 50.3333 271.182 52.3182C270.167 54.2879 268.795 56.053 267.068 57.6136C265.356 59.1591 263.311 60.3864 260.932 61.2955C258.568 62.1894 255.894 62.6364 252.909 62.6364C248.758 62.6364 245.045 61.697 241.773 59.8182C238.515 57.9394 235.939 55.2197 234.045 51.6591C232.167 48.0985 231.227 43.7879 231.227 38.7273C231.227 33.6515 232.182 29.3333 234.091 25.7727C236 22.2121 238.591 19.5 241.864 17.6364C245.136 15.7576 248.818 14.8182 252.909 14.8182C255.606 14.8182 258.106 15.197 260.409 15.9545C262.727 16.7121 264.78 17.8182 266.568 19.2727C268.356 20.7121 269.811 22.4773 270.932 24.5682C272.068 26.6591 272.795 29.053 273.114 31.75ZM278.398 23.5682V15.4545H316.625V23.5682H302.375V62H292.648V23.5682H278.398Z"/>
</mask>
<path d="M45.1136 31.75V33.75H47.3635L47.0999 31.5157L45.1136 31.75ZM35.1591 31.75L33.1787 32.0296L33.4216 33.75H35.1591V31.75ZM34.0455 28.3182L32.2946 29.285L32.3009 29.2962L34.0455 28.3182ZM31.8864 25.7273L30.6272 27.2811L30.6272 27.2811L31.8864 25.7273ZM28.8409 24.0909L28.2085 25.9883L28.216 25.9908L28.8409 24.0909ZM18.8409 25.3182L19.9438 26.9866L19.9536 26.9801L18.8409 25.3182ZM14.6818 30.5L16.515 31.2997L16.5169 31.2952L14.6818 30.5ZM14.6818 47.0909L12.8486 47.8906L12.8532 47.9009L14.6818 47.0909ZM18.8636 52.2045L17.7807 53.886L17.7807 53.886L18.8636 52.2045ZM28.7273 53.4091L28.1409 51.497L28.1337 51.4992L28.7273 53.4091ZM31.75 51.8864L32.9588 53.4797L32.9674 53.4732L32.976 53.4665L31.75 51.8864ZM33.9318 49.4091L32.2239 48.3684L32.218 48.3781L32.2121 48.388L33.9318 49.4091ZM35.1591 46.0909L35.1682 44.0909L33.4932 44.0833L33.1917 45.731L35.1591 46.0909ZM45.1136 46.1364L47.0993 46.3758L47.368 44.1466L45.1228 44.1364L45.1136 46.1364ZM43.1818 52.3182L41.4067 51.3968L41.404 51.4019L43.1818 52.3182ZM39.0682 57.6136L40.4083 59.0983L40.409 59.0976L39.0682 57.6136ZM32.9318 61.2955L33.6393 63.1661L33.6458 63.1637L32.9318 61.2955ZM13.7727 59.8182L12.7735 61.5507L12.777 61.5527L13.7727 59.8182ZM6.04545 51.6591L4.27659 52.5924L4.27971 52.5983L6.04545 51.6591ZM6.09091 25.7727L7.85353 26.7178L7.85353 26.7178L6.09091 25.7727ZM13.8636 17.6364L14.8533 19.3743L14.8594 19.3709L13.8636 17.6364ZM32.4091 15.9545L31.7841 17.8544L31.7878 17.8556L32.4091 15.9545ZM38.5682 19.2727L37.306 20.8242L37.314 20.8306L38.5682 19.2727ZM42.9318 24.5682L41.1692 25.5133L41.1746 25.5232L42.9318 24.5682ZM45.1136 29.75H35.1591V33.75H45.1136V29.75ZM37.1395 31.4704C36.9276 29.9699 36.487 28.5834 35.79 27.3402L32.3009 29.2962C32.7251 30.0529 33.0269 30.9544 33.1787 32.0296L37.1395 31.4704ZM35.7962 27.3513C35.1143 26.1165 34.2296 25.0518 33.1455 24.1734L30.6272 27.2811C31.3007 27.8269 31.8554 28.4896 32.2947 29.285L35.7962 27.3513ZM33.1455 24.1734C32.0649 23.2978 30.8314 22.6402 29.4659 22.1911L28.216 25.9908C29.1535 26.2992 29.9502 26.7325 30.6272 27.2811L33.1455 24.1734ZM29.4734 22.1935C28.1114 21.7396 26.6606 21.5227 25.1364 21.5227V25.5227C26.2788 25.5227 27.2977 25.6847 28.2085 25.9883L29.4734 22.1935ZM25.1364 21.5227C22.3803 21.5227 19.884 22.213 17.7283 23.6562L19.9536 26.9801C21.3736 26.0294 23.0743 25.5227 25.1364 25.5227V21.5227ZM17.738 23.6497C15.5785 25.0772 13.9612 27.1329 12.8467 29.7048L16.5169 31.2952C17.3721 29.3216 18.5275 27.9228 19.9438 26.9866L17.738 23.6497ZM12.8487 29.7003C11.7253 32.2754 11.2045 35.3062 11.2045 38.7273H15.2045C15.2045 35.6938 15.6686 33.2398 16.515 31.2997L12.8487 29.7003ZM11.2045 38.7273C11.2045 42.2304 11.7227 45.3095 12.8487 47.8906L16.515 46.2912C15.6713 44.3572 15.2045 41.8605 15.2045 38.7273H11.2045ZM12.8532 47.9009C13.9853 50.4567 15.6143 52.4906 17.7807 53.886L19.9466 50.5231C18.5373 49.6154 17.3784 48.2403 16.5105 46.2809L12.8532 47.9009ZM17.7807 53.886C19.9247 55.2669 22.3772 55.9318 25.0682 55.9318V51.9318C23.0622 51.9318 21.3783 51.4453 19.9466 50.5231L17.7807 53.886ZM25.0682 55.9318C26.5633 55.9318 27.9855 55.734 29.3209 55.319L28.1337 51.4992C27.2266 51.7811 26.2094 51.9318 25.0682 51.9318V55.9318ZM29.3137 55.3212C30.6571 54.9092 31.8788 54.299 32.9588 53.4797L30.5412 50.293C29.8636 50.807 29.0702 51.212 28.1409 51.497L29.3137 55.3212ZM32.976 53.4665C34.0558 52.6288 34.9495 51.6125 35.6515 50.4302L32.2121 48.388C31.7626 49.1451 31.2018 49.7803 30.524 50.3062L32.976 53.4665ZM35.6397 50.4498C36.3716 49.2488 36.86 47.9072 37.1264 46.4508L33.1917 45.731C33.0036 46.7595 32.6739 47.63 32.2239 48.3684L35.6397 50.4498ZM35.15 48.0909L45.1045 48.1363L45.1228 44.1364L35.1682 44.0909L35.15 48.0909ZM43.128 45.897C42.9003 47.7859 42.3309 49.6163 41.4067 51.3968L44.9569 53.2396C46.0933 51.0504 46.8119 48.7596 47.0993 46.3758L43.128 45.897ZM41.404 51.4019C40.5047 53.147 39.2851 54.7222 37.7274 56.1296L40.409 59.0976C42.3058 57.3839 43.8286 55.4288 44.9596 53.2344L41.404 51.4019ZM37.7281 56.129C36.2174 57.4927 34.39 58.5971 32.2178 59.4272L33.6458 63.1637C36.2312 62.1756 38.4948 60.8255 40.4083 59.0983L37.7281 56.129ZM32.2243 59.4248C30.1237 60.2193 27.6951 60.6364 24.9091 60.6364V64.6364C28.0928 64.6364 31.0127 64.1595 33.6393 63.1661L32.2243 59.4248ZM24.9091 60.6364C21.0711 60.6364 17.7085 59.7715 14.7685 58.0837L12.777 61.5527C16.3824 63.6225 20.4441 64.6364 24.9091 64.6364V60.6364ZM14.7719 58.0857C11.8629 56.4079 9.54234 53.9744 7.8112 50.7199L4.27971 52.5983C6.33645 56.465 9.16744 59.4709 12.7735 61.5507L14.7719 58.0857ZM7.81431 50.7257C6.12141 47.5174 5.22727 43.5444 5.22727 38.7273H1.22727C1.22727 44.0313 2.21192 48.6796 4.2766 52.5924L7.81431 50.7257ZM5.22727 38.7273C5.22727 33.8984 6.13523 29.9226 7.85353 26.7178L4.32828 24.8277C2.22841 28.7441 1.22727 33.4046 1.22727 38.7273H5.22727ZM7.85353 26.7178C9.59823 23.4638 11.9317 21.038 14.8533 19.3743L12.874 15.8984C9.25014 17.962 6.40177 20.9604 4.32828 24.8277L7.85353 26.7178ZM14.8594 19.3709C17.8039 17.6805 21.1373 16.8182 24.9091 16.8182V12.8182C20.4991 12.8182 16.4689 13.8346 12.8679 15.9019L14.8594 19.3709ZM24.9091 16.8182C27.4174 16.8182 29.7041 17.1702 31.7841 17.8544L33.034 14.0547C30.508 13.2238 27.7947 12.8182 24.9091 12.8182V16.8182ZM31.7878 17.8556C33.8864 18.5414 35.7194 19.5333 37.306 20.8241L39.8304 17.7213C37.8412 16.103 35.5681 14.8828 33.0304 14.0535L31.7878 17.8556ZM37.314 20.8306C38.886 22.0962 40.1703 23.6505 41.1692 25.5133L44.6944 23.623C43.4509 21.304 41.8261 19.328 39.8224 17.7149L37.314 20.8306ZM41.1746 25.5232C42.1736 27.3613 42.8349 29.5046 43.1274 31.9843L47.0999 31.5157C46.756 28.6014 45.9628 25.9568 44.6891 23.6132L41.1746 25.5232ZM92.0568 51.6818L90.2973 50.7309L90.2942 50.7368L92.0568 51.6818ZM84.2386 59.8409L85.2249 61.5808L85.2275 61.5794L84.2386 59.8409ZM62.0114 59.8182L63.0036 58.0817L62.0114 59.8182ZM54.2159 51.6591L52.4533 52.6042L52.4533 52.6042L54.2159 51.6591ZM54.2159 25.7727L55.9785 26.7178L55.9785 26.7178L54.2159 25.7727ZM62.0114 17.6364L62.9976 19.3763L63.0036 19.3728L62.0114 17.6364ZM84.2386 17.6364L83.2463 19.3729L83.2558 19.3782L84.2386 17.6364ZM92.0568 25.7727L90.2942 26.7178L90.2973 26.7236L92.0568 25.7727ZM83.4886 30.4091L81.651 31.1984L81.6555 31.2088L83.4886 30.4091ZM79.375 25.2727L78.2755 26.9434L78.2755 26.9434L79.375 25.2727ZM66.9205 25.2727L68.02 26.9434L68.02 26.9434L66.9205 25.2727ZM62.7841 30.4091L60.9509 29.6094L60.9464 29.6198L62.7841 30.4091ZM62.7841 47.0455L60.9464 47.8348L60.9509 47.8452L62.7841 47.0455ZM66.9205 52.1818L68.02 50.5112L68.02 50.5112L66.9205 52.1818ZM79.375 52.1818L78.2755 50.5112L78.2755 50.5112L79.375 52.1818ZM83.4886 47.0455L81.6554 46.2457L81.651 46.2561L83.4886 47.0455ZM92.9432 38.7273C92.9432 43.5538 92.0285 47.5275 90.2973 50.7309L93.8163 52.6327C95.9336 48.7149 96.9432 44.0522 96.9432 38.7273H92.9432ZM90.2942 50.7368C88.5514 53.9872 86.2043 56.4219 83.2498 58.1025L85.2275 61.5794C88.879 59.5023 91.7441 56.4976 93.8194 52.6269L90.2942 50.7368ZM83.2524 58.101C80.2909 59.7796 76.9389 60.6364 73.1477 60.6364V64.6364C77.5687 64.6364 81.6106 63.6295 85.2249 61.5808L83.2524 58.101ZM73.1477 60.6364C69.3264 60.6364 65.9619 59.7721 63.0036 58.0817L61.0191 61.5547C64.6366 63.6218 68.6963 64.6364 73.1477 64.6364V60.6364ZM63.0036 58.0817C60.0638 56.4018 57.7226 53.9668 55.9785 50.714L52.4533 52.6042C54.5274 56.4725 57.3832 59.477 61.0191 61.5547L63.0036 58.0817ZM55.9785 50.714C54.2598 47.5084 53.3523 43.5399 53.3523 38.7273H49.3523C49.3523 44.0359 50.3538 48.6885 52.4533 52.6042L55.9785 50.714ZM53.3523 38.7273C53.3523 33.8984 54.2602 29.9226 55.9785 26.7178L52.4533 24.8277C50.3534 28.7441 49.3523 33.4046 49.3523 38.7273H53.3523ZM55.9785 26.7178C57.722 23.4662 60.0613 21.0406 62.9976 19.3763L61.0251 15.8964C57.3857 17.9594 54.528 20.9581 52.4533 24.8277L55.9785 26.7178ZM63.0036 19.3728C65.9619 17.6824 69.3264 16.8182 73.1477 16.8182V12.8182C68.6963 12.8182 64.6366 13.8327 61.0191 15.8999L63.0036 19.3728ZM73.1477 16.8182C76.936 16.8182 80.2859 17.6811 83.2464 19.3728L85.2309 15.8999C81.6156 13.834 77.5716 12.8182 73.1477 12.8182V16.8182ZM83.2558 19.3782C86.2068 21.0432 88.552 23.4685 90.2942 26.7178L93.8194 24.8277C91.7434 20.9557 88.8765 17.9568 85.2214 15.8945L83.2558 19.3782ZM90.2973 26.7236C92.0285 29.927 92.9432 33.9007 92.9432 38.7273H96.9432C96.9432 33.4023 95.9336 28.7396 93.8163 24.8219L90.2973 26.7236ZM86.9659 38.7273C86.9659 35.2515 86.4469 32.1885 85.3218 29.6094L81.6555 31.2088C82.5 33.1448 82.9659 35.6273 82.9659 38.7273H86.9659ZM85.3263 29.6198C84.2271 27.0607 82.6234 25.0163 80.4745 23.6021L78.2755 26.9434C79.6721 27.8625 80.8108 29.2424 81.651 31.1984L85.3263 29.6198ZM80.4745 23.6021C78.3367 22.1952 75.8684 21.5227 73.1477 21.5227V25.5227C75.1846 25.5227 76.8678 26.017 78.2755 26.9434L80.4745 23.6021ZM73.1477 21.5227C70.427 21.5227 67.9587 22.1952 65.821 23.6021L68.02 26.9434C69.4277 26.017 71.1109 25.5227 73.1477 25.5227V21.5227ZM65.821 23.6021C63.6751 25.0143 62.0653 27.0549 60.9509 29.6094L64.6173 31.2088C65.4726 29.2481 66.6204 27.8645 68.02 26.9434L65.821 23.6021ZM60.9464 29.6198C59.84 32.1957 59.3295 35.2548 59.3295 38.7273H63.3295C63.3295 35.624 63.7888 33.1376 64.6217 31.1984L60.9464 29.6198ZM59.3295 38.7273C59.3295 42.1997 59.84 45.2588 60.9464 47.8348L64.6217 46.2561C63.7888 44.3169 63.3295 41.8306 63.3295 38.7273H59.3295ZM60.9509 47.8452C62.0653 50.3996 63.6751 52.4402 65.821 53.8525L68.02 50.5112C66.6204 49.5901 65.4726 48.2064 64.6173 46.2458L60.9509 47.8452ZM65.821 53.8525C67.9587 55.2594 70.427 55.9318 73.1477 55.9318V51.9318C71.1109 51.9318 69.4277 51.4376 68.02 50.5112L65.821 53.8525ZM73.1477 55.9318C75.8684 55.9318 78.3367 55.2594 80.4745 53.8525L78.2755 50.5112C76.8678 51.4376 75.1846 51.9318 73.1477 51.9318V55.9318ZM80.4745 53.8525C82.6234 52.4383 84.2271 50.3939 85.3263 47.8348L81.651 46.2561C80.8108 48.2122 79.6721 49.592 78.2755 50.5112L80.4745 53.8525ZM85.3218 47.8452C86.4469 45.266 86.9659 42.203 86.9659 38.7273H82.9659C82.9659 41.8273 82.5 44.3097 81.6555 46.2458L85.3218 47.8452ZM141.165 15.4545H143.165V13.4545H141.165V15.4545ZM141.165 62V64H143.165V62H141.165ZM132.665 62L131.02 63.1372L131.616 64H132.665V62ZM112.415 32.7045L114.06 31.5673L113.464 30.7045H112.415V32.7045ZM112.074 32.7045V30.7045H110.074V32.7045H112.074ZM112.074 62V64H114.074V62H112.074ZM102.233 62H100.233V64H102.233V62ZM102.233 15.4545V13.4545H100.233V15.4545H102.233ZM110.869 15.4545L112.518 14.3228L111.922 13.4545H110.869V15.4545ZM130.96 44.7273L129.311 45.859L129.907 46.7273H130.96V44.7273ZM131.369 44.7273V46.7273H133.369V44.7273H131.369ZM131.369 15.4545V13.4545H129.369V15.4545H131.369ZM139.165 15.4545V62H143.165V15.4545H139.165ZM141.165 60H132.665V64H141.165V60ZM134.31 60.8628L114.06 31.5673L110.77 33.8418L131.02 63.1372L134.31 60.8628ZM112.415 30.7045H112.074V34.7045H112.415V30.7045ZM110.074 32.7045V62H114.074V32.7045H110.074ZM112.074 60H102.233V64H112.074V60ZM104.233 62V15.4545H100.233V62H104.233ZM102.233 17.4545H110.869V13.4545H102.233V17.4545ZM109.22 16.5863L129.311 45.859L132.609 43.5955L112.518 14.3228L109.22 16.5863ZM130.96 46.7273H131.369V42.7273H130.96V46.7273ZM133.369 44.7273V15.4545H129.369V44.7273H133.369ZM131.369 17.4545H141.165V13.4545H131.369V17.4545ZM147.523 23.5682H145.523V25.5682H147.523V23.5682ZM147.523 15.4545V13.4545H145.523V15.4545H147.523ZM185.75 15.4545H187.75V13.4545H185.75V15.4545ZM185.75 23.5682V25.5682H187.75V23.5682H185.75ZM171.5 23.5682V21.5682H169.5V23.5682H171.5ZM171.5 62V64H173.5V62H171.5ZM161.773 62H159.773V64H161.773V62ZM161.773 23.5682H163.773V21.5682H161.773V23.5682ZM149.523 23.5682V15.4545H145.523V23.5682H149.523ZM147.523 17.4545H185.75V13.4545H147.523V17.4545ZM183.75 15.4545V23.5682H187.75V15.4545H183.75ZM185.75 21.5682H171.5V25.5682H185.75V21.5682ZM169.5 23.5682V62H173.5V23.5682H169.5ZM171.5 60H161.773V64H171.5V60ZM163.773 62V23.5682H159.773V62H163.773ZM161.773 21.5682H147.523V25.5682H161.773V21.5682ZM194.381 62V64H195.833L196.283 62.6187L194.381 62ZM183.835 62L181.945 61.3474L181.029 64H183.835V62ZM199.903 15.4545V13.4545H198.478L198.013 14.8019L199.903 15.4545ZM212.585 15.4545L214.476 14.8027L214.011 13.4545H212.585V15.4545ZM228.631 62V64H231.436L230.521 61.3482L228.631 62ZM218.085 62L216.183 62.6176L216.632 64H218.085V62ZM206.426 26.0909L208.328 25.4733L207.88 24.0909H206.426V26.0909ZM206.062 26.0909V24.0909H204.61L204.161 25.4722L206.062 26.0909ZM193.722 43.7045V41.7045H191.722V43.7045H193.722ZM218.631 43.7045H220.631V41.7045H218.631V43.7045ZM218.631 51.3864V53.3864H220.631V51.3864H218.631ZM193.722 51.3864H191.722V53.3864H193.722V51.3864ZM194.381 60H183.835V64H194.381V60ZM185.726 62.6526L201.794 16.1072L198.013 14.8019L181.945 61.3474L185.726 62.6526ZM199.903 17.4545H212.585V13.4545H199.903V17.4545ZM210.694 16.1064L226.74 62.6518L230.521 61.3482L214.476 14.8027L210.694 16.1064ZM228.631 60H218.085V64H228.631V60ZM219.987 61.3824L208.328 25.4733L204.524 26.7085L216.183 62.6176L219.987 61.3824ZM206.426 24.0909H206.062V28.0909H206.426V24.0909ZM204.161 25.4722L192.479 61.3813L196.283 62.6187L207.964 26.7096L204.161 25.4722ZM193.722 45.7045H218.631V41.7045H193.722V45.7045ZM216.631 43.7045V51.3864H220.631V43.7045H216.631ZM218.631 49.3864H193.722V53.3864H218.631V49.3864ZM195.722 51.3864V43.7045H191.722V51.3864H195.722ZM273.114 31.75V33.75H275.363L275.1 31.5157L273.114 31.75ZM263.159 31.75L261.179 32.0296L261.422 33.75H263.159V31.75ZM262.045 28.3182L260.295 29.285L260.301 29.2962L262.045 28.3182ZM259.886 25.7273L258.627 27.2811L258.627 27.2811L259.886 25.7273ZM256.841 24.0909L256.208 25.9883L256.216 25.9908L256.841 24.0909ZM246.841 25.3182L247.944 26.9866L247.954 26.9801L246.841 25.3182ZM242.682 30.5L244.515 31.2997L244.517 31.2952L242.682 30.5ZM242.682 47.0909L240.849 47.8906L240.853 47.9009L242.682 47.0909ZM246.864 52.2045L245.781 53.886L245.781 53.886L246.864 52.2045ZM256.727 53.4091L256.141 51.497L256.134 51.4992L256.727 53.4091ZM259.75 51.8864L260.959 53.4797L260.967 53.4732L260.976 53.4665L259.75 51.8864ZM261.932 49.4091L260.224 48.3684L260.218 48.3781L260.212 48.388L261.932 49.4091ZM263.159 46.0909L263.168 44.0909L261.493 44.0833L261.192 45.731L263.159 46.0909ZM273.114 46.1364L275.099 46.3758L275.368 44.1466L273.123 44.1364L273.114 46.1364ZM271.182 52.3182L269.407 51.3968L269.404 51.4019L271.182 52.3182ZM267.068 57.6136L268.408 59.0983L268.409 59.0976L267.068 57.6136ZM260.932 61.2955L261.639 63.1661L261.646 63.1637L260.932 61.2955ZM241.773 59.8182L240.774 61.5507L240.777 61.5527L241.773 59.8182ZM234.045 51.6591L232.277 52.5924L232.28 52.5983L234.045 51.6591ZM234.091 25.7727L235.854 26.7178L235.854 26.7178L234.091 25.7727ZM241.864 17.6364L242.853 19.3743L242.859 19.3709L241.864 17.6364ZM260.409 15.9545L259.784 17.8544L259.788 17.8556L260.409 15.9545ZM266.568 19.2727L265.306 20.8242L265.314 20.8306L266.568 19.2727ZM270.932 24.5682L269.169 25.5133L269.175 25.5232L270.932 24.5682ZM273.114 29.75H263.159V33.75H273.114V29.75ZM265.139 31.4704C264.928 29.9699 264.487 28.5834 263.79 27.3402L260.301 29.2962C260.725 30.0529 261.027 30.9544 261.179 32.0296L265.139 31.4704ZM263.796 27.3513C263.114 26.1165 262.23 25.0518 261.146 24.1734L258.627 27.2811C259.301 27.8269 259.855 28.4896 260.295 29.285L263.796 27.3513ZM261.146 24.1734C260.065 23.2978 258.831 22.6402 257.466 22.1911L256.216 25.9908C257.153 26.2992 257.95 26.7325 258.627 27.2811L261.146 24.1734ZM257.473 22.1935C256.111 21.7396 254.661 21.5227 253.136 21.5227V25.5227C254.279 25.5227 255.298 25.6847 256.208 25.9883L257.473 22.1935ZM253.136 21.5227C250.38 21.5227 247.884 22.213 245.728 23.6562L247.954 26.9801C249.374 26.0294 251.074 25.5227 253.136 25.5227V21.5227ZM245.738 23.6497C243.579 25.0772 241.961 27.1329 240.847 29.7048L244.517 31.2952C245.372 29.3216 246.528 27.9228 247.944 26.9866L245.738 23.6497ZM240.849 29.7003C239.725 32.2754 239.205 35.3062 239.205 38.7273H243.205C243.205 35.6938 243.669 33.2398 244.515 31.2997L240.849 29.7003ZM239.205 38.7273C239.205 42.2304 239.723 45.3095 240.849 47.8906L244.515 46.2912C243.671 44.3572 243.205 41.8605 243.205 38.7273H239.205ZM240.853 47.9009C241.985 50.4567 243.614 52.4906 245.781 53.886L247.947 50.5231C246.537 49.6154 245.378 48.2403 244.51 46.2809L240.853 47.9009ZM245.781 53.886C247.925 55.2669 250.377 55.9318 253.068 55.9318V51.9318C251.062 51.9318 249.378 51.4453 247.947 50.5231L245.781 53.886ZM253.068 55.9318C254.563 55.9318 255.986 55.734 257.321 55.319L256.134 51.4992C255.227 51.7811 254.209 51.9318 253.068 51.9318V55.9318ZM257.314 55.3212C258.657 54.9092 259.879 54.299 260.959 53.4797L258.541 50.293C257.864 50.807 257.07 51.212 256.141 51.497L257.314 55.3212ZM260.976 53.4665C262.056 52.6288 262.95 51.6125 263.652 50.4302L260.212 48.388C259.763 49.1451 259.202 49.7803 258.524 50.3062L260.976 53.4665ZM263.64 50.4498C264.372 49.2488 264.86 47.9072 265.126 46.4508L261.192 45.731C261.004 46.7595 260.674 47.63 260.224 48.3684L263.64 50.4498ZM263.15 48.0909L273.105 48.1363L273.123 44.1364L263.168 44.0909L263.15 48.0909ZM271.128 45.897C270.9 47.7859 270.331 49.6163 269.407 51.3968L272.957 53.2396C274.093 51.0504 274.812 48.7596 275.099 46.3758L271.128 45.897ZM269.404 51.4019C268.505 53.147 267.285 54.7222 265.727 56.1296L268.409 59.0976C270.306 57.3839 271.829 55.4288 272.96 53.2344L269.404 51.4019ZM265.728 56.129C264.217 57.4927 262.39 58.5971 260.218 59.4272L261.646 63.1637C264.231 62.1756 266.495 60.8255 268.408 59.0983L265.728 56.129ZM260.224 59.4248C258.124 60.2193 255.695 60.6364 252.909 60.6364V64.6364C256.093 64.6364 259.013 64.1595 261.639 63.1661L260.224 59.4248ZM252.909 60.6364C249.071 60.6364 245.708 59.7715 242.768 58.0837L240.777 61.5527C244.382 63.6225 248.444 64.6364 252.909 64.6364V60.6364ZM242.772 58.0857C239.863 56.4079 237.542 53.9744 235.811 50.7199L232.28 52.5983C234.336 56.465 237.167 59.4709 240.774 61.5507L242.772 58.0857ZM235.814 50.7257C234.121 47.5174 233.227 43.5444 233.227 38.7273H229.227C229.227 44.0313 230.212 48.6796 232.277 52.5924L235.814 50.7257ZM233.227 38.7273C233.227 33.8984 234.135 29.9226 235.854 26.7178L232.328 24.8277C230.228 28.7441 229.227 33.4046 229.227 38.7273H233.227ZM235.854 26.7178C237.598 23.4638 239.932 21.038 242.853 19.3743L240.874 15.8984C237.25 17.962 234.402 20.9604 232.328 24.8277L235.854 26.7178ZM242.859 19.3709C245.804 17.6805 249.137 16.8182 252.909 16.8182V12.8182C248.499 12.8182 244.469 13.8346 240.868 15.9019L242.859 19.3709ZM252.909 16.8182C255.417 16.8182 257.704 17.1702 259.784 17.8544L261.034 14.0547C258.508 13.2238 255.795 12.8182 252.909 12.8182V16.8182ZM259.788 17.8556C261.886 18.5414 263.719 19.5333 265.306 20.8241L267.83 17.7213C265.841 16.103 263.568 14.8828 261.03 14.0535L259.788 17.8556ZM265.314 20.8306C266.886 22.0962 268.17 23.6505 269.169 25.5133L272.694 23.623C271.451 21.304 269.826 19.328 267.822 17.7149L265.314 20.8306ZM269.175 25.5232C270.174 27.3613 270.835 29.5046 271.127 31.9843L275.1 31.5157C274.756 28.6014 273.963 25.9568 272.689 23.6132L269.175 25.5232ZM278.398 23.5682H276.398V25.5682H278.398V23.5682ZM278.398 15.4545V13.4545H276.398V15.4545H278.398ZM316.625 15.4545H318.625V13.4545H316.625V15.4545ZM316.625 23.5682V25.5682H318.625V23.5682H316.625ZM302.375 23.5682V21.5682H300.375V23.5682H302.375ZM302.375 62V64H304.375V62H302.375ZM292.648 62H290.648V64H292.648V62ZM292.648 23.5682H294.648V21.5682H292.648V23.5682ZM280.398 23.5682V15.4545H276.398V23.5682H280.398ZM278.398 17.4545H316.625V13.4545H278.398V17.4545ZM314.625 15.4545V23.5682H318.625V15.4545H314.625ZM316.625 21.5682H302.375V25.5682H316.625V21.5682ZM300.375 23.5682V62H304.375V23.5682H300.375ZM302.375 60H292.648V64H302.375V60ZM294.648 62V23.5682H290.648V62H294.648ZM292.648 21.5682H278.398V25.5682H292.648V21.5682Z" fill="black" mask="url(#path-1-outside-1_84_1078)"/>
<path d="M1.84 85.76H9.24V87.9H1.84V85.76ZM4.02 90.02H7.52V91.98H4.02V90.02ZM9.82 98.46H12.8V100.08H9.82V98.46ZM16.06 98.46H19.12V100.08H16.06V98.46ZM4.02 94.1H7.52V96.06H4.02V94.1ZM2.76 86.9H4.72V99.46H2.76V86.9ZM6.28 86.88H8.28V103.8H6.28V86.88ZM14.88 94.9H16.82V103.8H14.88V94.9ZM9.18 95.5H10.92V100.8H9.18V95.5ZM17.98 95.5H19.78V100.78H17.98V95.5ZM1.5 98.96C2.24667 98.8533 3.12667 98.72 4.14 98.56C5.15333 98.3867 6.18667 98.2067 7.24 98.02L7.4 100.08C6.45333 100.28 5.5 100.473 4.54 100.66C3.59333 100.847 2.70667 101.02 1.88 101.18L1.5 98.96ZM12 94.92H13.92V98.46C13.92 99.2067 13.8467 99.92 13.7 100.6C13.5533 101.28 13.2467 101.893 12.78 102.44C12.3267 103 11.6267 103.48 10.68 103.88C10.6133 103.733 10.5133 103.56 10.38 103.36C10.2467 103.16 10.1 102.96 9.94 102.76C9.79333 102.573 9.65333 102.427 9.52 102.32C10.2533 102.013 10.7933 101.66 11.14 101.26C11.4867 100.847 11.7133 100.4 11.82 99.92C11.94 99.44 12 98.9467 12 98.44V94.92ZM8.64 93C9.29333 92.96 10.06 92.9067 10.94 92.84C11.82 92.7733 12.7333 92.7067 13.68 92.64L13.7 94.18C12.8467 94.2733 12.0067 94.36 11.18 94.44C10.3533 94.52 9.58 94.5933 8.86 94.66L8.64 93ZM8.9 88.94L9.88 87.56C10.3333 87.92 10.7933 88.3333 11.26 88.8C11.74 89.2667 12.0933 89.6867 12.32 90.06L11.28 91.62C11.0667 91.2333 10.7267 90.7867 10.26 90.28C9.80667 89.7733 9.35333 89.3267 8.9 88.94ZM12.48 91.7L13.86 91.3C14.1133 91.7667 14.3267 92.28 14.5 92.84C14.6733 93.3867 14.78 93.8533 14.82 94.24L13.34 94.72C13.3133 94.32 13.22 93.84 13.06 93.28C12.9 92.72 12.7067 92.1933 12.48 91.7ZM11.28 85.02L13.22 85.6C12.8733 86.2267 12.5067 86.8733 12.12 87.54C11.7467 88.2067 11.4067 88.7733 11.1 89.24L9.82 88.74C10.0067 88.3933 10.1933 88 10.38 87.56C10.5667 87.12 10.74 86.68 10.9 86.24C11.06 85.7867 11.1867 85.38 11.28 85.02ZM12.76 87.6L14.52 88.22C14.1467 88.8333 13.74 89.4867 13.3 90.18C12.8733 90.8733 12.44 91.54 12 92.18C11.5733 92.8067 11.1667 93.36 10.78 93.84L9.56 93.3C9.93333 92.7933 10.32 92.2133 10.72 91.56C11.12 90.8933 11.5 90.2133 11.86 89.52C12.22 88.8133 12.52 88.1733 12.76 87.6ZM14.46 92.94C15.1133 92.9 15.88 92.8467 16.76 92.78C17.64 92.7133 18.5533 92.6467 19.5 92.58L19.52 94.1C18.68 94.1933 17.8467 94.2867 17.02 94.38C16.2067 94.46 15.4467 94.54 14.74 94.62L14.46 92.94ZM14.28 88.9L15.22 87.46C15.7 87.8067 16.18 88.2133 16.66 88.68C17.1533 89.1467 17.5133 89.5733 17.74 89.96L16.74 91.58C16.5267 91.18 16.18 90.7333 15.7 90.24C15.2333 89.7333 14.76 89.2867 14.28 88.9ZM18.02 91.72L19.46 91.26C19.74 91.78 19.9867 92.3467 20.2 92.96C20.4133 93.5733 20.54 94.1 20.58 94.54L19.04 95.08C19 94.6267 18.8867 94.0933 18.7 93.48C18.5133 92.8533 18.2867 92.2667 18.02 91.72ZM16.74 85.02L18.72 85.62C18.36 86.2467 17.9867 86.9 17.6 87.58C17.2133 88.2467 16.86 88.8067 16.54 89.26L15.2 88.74C15.3867 88.3933 15.5733 88.0067 15.76 87.58C15.96 87.14 16.14 86.7 16.3 86.26C16.4733 85.8067 16.62 85.3933 16.74 85.02ZM18.26 87.54L20.1 88.2C19.7267 88.8133 19.32 89.4667 18.88 90.16C18.4533 90.84 18.0267 91.5 17.6 92.14C17.1733 92.78 16.76 93.3333 16.36 93.8L15.1 93.24C15.4733 92.7333 15.8533 92.1467 16.24 91.48C16.64 90.8133 17.0133 90.1333 17.36 89.44C17.7067 88.7467 18.0067 88.1133 18.26 87.54ZM45.24 96.1H54.18V103.72H51.84V98.14H47.48V103.78H45.24V96.1ZM46.54 100.9H52.58V102.98H46.54V100.9ZM47.58 85L49.9 85.4C49.5533 86.2133 49.1333 87.02 48.64 87.82C48.16 88.62 47.6 89.3933 46.96 90.14C46.3333 90.8867 45.6067 91.5867 44.78 92.24C44.6733 92.08 44.5267 91.8933 44.34 91.68C44.1533 91.4667 43.96 91.2733 43.76 91.1C43.56 90.9133 43.3667 90.7667 43.18 90.66C43.9267 90.1267 44.58 89.54 45.14 88.9C45.7133 88.26 46.2 87.6067 46.6 86.94C47 86.2733 47.3267 85.6267 47.58 85ZM47.84 86.78H52.84V88.84H46.82L47.84 86.78ZM52.2 86.78H52.66L53.06 86.7L54.52 87.52C53.9333 89.0533 53.14 90.4267 52.14 91.64C51.1533 92.8533 50.04 93.9 48.8 94.78C47.56 95.6467 46.2667 96.34 44.92 96.86C44.8267 96.6733 44.6933 96.46 44.52 96.22C44.36 95.98 44.18 95.7467 43.98 95.52C43.7933 95.28 43.62 95.0933 43.46 94.96C44.7667 94.52 46 93.9333 47.16 93.2C48.3333 92.4533 49.3533 91.58 50.22 90.58C51.1 89.5667 51.76 88.44 52.2 87.2V86.78ZM47.56 88.64C48.1067 89.48 48.8067 90.2867 49.66 91.06C50.5133 91.8333 51.46 92.5267 52.5 93.14C53.5533 93.74 54.64 94.2267 55.76 94.6C55.5867 94.7467 55.4 94.94 55.2 95.18C55 95.4067 54.8133 95.64 54.64 95.88C54.48 96.12 54.34 96.3333 54.22 96.52C53.0733 96.0667 51.96 95.4867 50.88 94.78C49.8133 94.06 48.8267 93.2533 47.92 92.36C47.0267 91.4533 46.2533 90.4867 45.6 89.46L47.56 88.64ZM39.6 85.02L41.68 85.8C41.4133 86.3067 41.1333 86.8333 40.84 87.38C40.5467 87.9267 40.26 88.4467 39.98 88.94C39.7 89.4333 39.4333 89.86 39.18 90.22L37.58 89.54C37.82 89.1267 38.0667 88.66 38.32 88.14C38.5733 87.62 38.8133 87.0867 39.04 86.54C39.2667 85.9933 39.4533 85.4867 39.6 85.02ZM41.9 87.4L43.86 88.28C43.38 89.04 42.8533 89.84 42.28 90.68C41.7067 91.5067 41.1333 92.3067 40.56 93.08C39.9867 93.84 39.4467 94.5067 38.94 95.08L37.54 94.3C37.9133 93.8467 38.3 93.34 38.7 92.78C39.1 92.2067 39.4933 91.6133 39.88 91C40.28 90.3733 40.6533 89.7533 41 89.14C41.3467 88.5133 41.6467 87.9333 41.9 87.4ZM36.52 89.76L37.68 88.12C38.0267 88.4267 38.38 88.7667 38.74 89.14C39.1133 89.5 39.4533 89.8667 39.76 90.24C40.08 90.6 40.32 90.9267 40.48 91.22L39.26 93.08C39.1 92.76 38.8667 92.4067 38.56 92.02C38.2667 91.6333 37.94 91.24 37.58 90.84C37.22 90.44 36.8667 90.08 36.52 89.76ZM41.32 92.16L42.9 91.5C43.1533 91.9533 43.4 92.44 43.64 92.96C43.88 93.4667 44.0867 93.96 44.26 94.44C44.4467 94.92 44.58 95.3533 44.66 95.74L42.96 96.5C42.8933 96.1133 42.7733 95.6733 42.6 95.18C42.44 94.6733 42.2467 94.16 42.02 93.64C41.7933 93.1067 41.56 92.6133 41.32 92.16ZM36.5 93.82C37.42 93.7933 38.52 93.7533 39.8 93.7C41.08 93.6467 42.38 93.5933 43.7 93.54L43.68 95.44C42.44 95.5333 41.2067 95.62 39.98 95.7C38.7667 95.78 37.6733 95.8533 36.7 95.92L36.5 93.82ZM41.74 97.14L43.42 96.6C43.6733 97.1733 43.9133 97.8 44.14 98.48C44.38 99.1467 44.56 99.7333 44.68 100.24L42.9 100.88C42.8067 100.373 42.6467 99.7733 42.42 99.08C42.1933 98.3733 41.9667 97.7267 41.74 97.14ZM37.38 96.76L39.36 97.12C39.2533 98.08 39.0933 99.0267 38.88 99.96C38.6667 100.893 38.42 101.68 38.14 102.32C38.0067 102.227 37.8267 102.12 37.6 102C37.3733 101.893 37.14 101.787 36.9 101.68C36.6733 101.573 36.4733 101.493 36.3 101.44C36.5933 100.84 36.8267 100.127 37 99.3C37.1733 98.46 37.3 97.6133 37.38 96.76ZM39.62 94.88H41.72V103.8H39.62V94.88ZM72.58 86.94L73.64 85.3C74.0933 85.4067 74.58 85.5467 75.1 85.72C75.62 85.88 76.1267 86.0533 76.62 86.24C77.1267 86.4133 77.5467 86.58 77.88 86.74L76.8 88.56C76.48 88.4 76.08 88.22 75.6 88.02C75.12 87.8067 74.6133 87.6067 74.08 87.42C73.5467 87.2333 73.0467 87.0733 72.58 86.94ZM71.7 90.32C72.4333 90.1867 73.3133 90 74.34 89.76C75.38 89.52 76.4267 89.28 77.48 89.04L77.7 90.92C76.8333 91.2 75.9533 91.4667 75.06 91.72C74.18 91.96 73.36 92.1867 72.6 92.4L71.7 90.32ZM80.56 86.34H88.24V88.04H79.22L80.56 86.34ZM87.68 86.34H88.02L88.38 86.26L89.96 86.68C89.7067 87.2133 89.4067 87.76 89.06 88.32C88.7267 88.88 88.4 89.3467 88.08 89.72L86.2 89.14C86.4667 88.82 86.74 88.4267 87.02 87.96C87.3 87.48 87.52 87.0333 87.68 86.62V86.34ZM82.62 87.06H84.76C84.6667 87.7667 84.5067 88.4133 84.28 89C84.0533 89.5733 83.72 90.0867 83.28 90.54C82.8533 90.98 82.2733 91.3667 81.54 91.7C80.82 92.0333 79.8933 92.3133 78.76 92.54C78.6667 92.2867 78.5133 91.9933 78.3 91.66C78.0867 91.3133 77.88 91.04 77.68 90.84C78.64 90.68 79.4267 90.4867 80.04 90.26C80.6533 90.0333 81.1267 89.7733 81.46 89.48C81.8067 89.1733 82.0667 88.82 82.24 88.42C82.4133 88.02 82.54 87.5667 82.62 87.06ZM84.64 87.56C84.72 87.9333 84.8533 88.2933 85.04 88.64C85.24 88.9867 85.54 89.3067 85.94 89.6C86.34 89.88 86.9 90.1333 87.62 90.36C88.34 90.5733 89.2667 90.7467 90.4 90.88C90.1733 91.12 89.9467 91.4333 89.72 91.82C89.4933 92.2067 89.32 92.5533 89.2 92.86C87.96 92.66 86.94 92.38 86.14 92.02C85.3533 91.66 84.7333 91.2533 84.28 90.8C83.84 90.3467 83.5 89.86 83.26 89.34C83.0333 88.8067 82.8533 88.28 82.72 87.76L84.64 87.56ZM80.5 85L82.62 85.36C82.2333 86.1467 81.78 86.9067 81.26 87.64C80.74 88.36 80.1 89.0267 79.34 89.64C79.1267 89.4267 78.84 89.2133 78.48 89C78.1333 88.7867 77.8133 88.62 77.52 88.5C78.2533 87.9933 78.8667 87.4333 79.36 86.82C79.8533 86.1933 80.2333 85.5867 80.5 85ZM76.74 95.9V96.74H85.44V95.9H76.74ZM76.74 98.1V98.98H85.44V98.1H76.74ZM76.74 93.68V94.54H85.44V93.68H76.74ZM74.42 92.26H87.86V100.4H74.42V92.26ZM82.12 101.46L84.12 100.32C84.84 100.573 85.5667 100.847 86.3 101.14C87.0467 101.42 87.7533 101.707 88.42 102C89.1 102.28 89.6733 102.533 90.14 102.76L87.34 103.84C86.9667 103.627 86.5 103.38 85.94 103.1C85.38 102.82 84.7733 102.533 84.12 102.24C83.48 101.96 82.8133 101.7 82.12 101.46ZM77.7 100.24L79.88 101.24C79.3467 101.587 78.72 101.927 78 102.26C77.28 102.593 76.54 102.893 75.78 103.16C75.02 103.44 74.3 103.673 73.62 103.86C73.4733 103.7 73.2933 103.507 73.08 103.28C72.88 103.067 72.6667 102.847 72.44 102.62C72.2133 102.407 72.0133 102.233 71.84 102.1C72.5467 101.967 73.26 101.807 73.98 101.62C74.7133 101.433 75.4 101.22 76.04 100.98C76.6933 100.74 77.2467 100.493 77.7 100.24ZM114.42 85.8H122.18V88.08H114.42V85.8ZM114.18 92.52H120.54V94.76H114.18V92.52ZM116.38 87.32H118.66V92.38C118.66 93.3267 118.62 94.3 118.54 95.3C118.46 96.3 118.293 97.3 118.04 98.3C117.8 99.3 117.433 100.267 116.94 101.2C116.447 102.12 115.793 102.987 114.98 103.8C114.86 103.627 114.693 103.427 114.48 103.2C114.267 102.987 114.047 102.78 113.82 102.58C113.607 102.38 113.407 102.22 113.22 102.1C113.927 101.393 114.493 100.64 114.92 99.84C115.347 99.04 115.66 98.22 115.86 97.38C116.073 96.5267 116.213 95.68 116.28 94.84C116.347 93.9867 116.38 93.1533 116.38 92.34V87.32ZM120.92 85.8H123.38C123.353 86.9333 123.333 88.0933 123.32 89.28C123.307 90.4667 123.3 91.6267 123.3 92.76C123.313 93.88 123.34 94.94 123.38 95.94C123.42 96.9267 123.473 97.8067 123.54 98.58C123.62 99.34 123.713 99.9533 123.82 100.42C123.927 100.873 124.06 101.12 124.22 101.16C124.273 101.173 124.32 101.047 124.36 100.78C124.4 100.513 124.433 100.167 124.46 99.74C124.5 99.3133 124.527 98.8733 124.54 98.42C124.66 98.62 124.8 98.8533 124.96 99.12C125.12 99.3867 125.28 99.6333 125.44 99.86C125.6 100.087 125.74 100.26 125.86 100.38C125.753 101.42 125.567 102.207 125.3 102.74C125.047 103.273 124.74 103.6 124.38 103.72C124.02 103.84 123.62 103.807 123.18 103.62C122.7 103.447 122.313 102.987 122.02 102.24C121.727 101.507 121.507 100.567 121.36 99.42C121.213 98.26 121.107 96.9533 121.04 95.5C120.987 94.0333 120.953 92.4733 120.94 90.82C120.927 89.1667 120.92 87.4933 120.92 85.8ZM107.54 91.14H113.58V92.96H107.54V91.14ZM107.62 85.64H113.54V87.44H107.62V85.64ZM107.54 93.88H113.58V95.68H107.54V93.88ZM106.6 88.32H114.24V90.22H106.6V88.32ZM108.58 96.64H113.62V102.74H108.58V100.84H111.56V98.54H108.58V96.64ZM107.5 96.64H109.52V103.52H107.5V96.64Z" fill="black"/>
</svg>
