<svg width="129" height="118" viewBox="0 0 129 118" fill="none" xmlns="http://www.w3.org/2000/svg">
<g clip-path="url(#clip0_41_1012)">
<path d="M70.3977 26.4441C73.687 24.456 76.8406 22.124 80.3261 20.5544C85.0489 18.4167 90.4205 20.3899 93.6646 24.8446C96.8332 29.2096 96.5616 35.3834 93.0007 39.569C89.5755 43.5902 83.9625 45.2345 79.5566 42.6484C74.4867 39.6587 69.8545 35.9514 64.6338 32.2591C66.4294 30.5849 67.6214 29.4637 68.8586 28.2978C71.2879 30.4653 73.4758 32.8272 76.0711 34.5911C77.8666 35.802 80.2657 36.8783 82.3329 36.7886C86.6785 36.6092 89.4548 32.005 88.3835 27.655C87.4027 23.6637 82.9515 21.1972 78.9832 22.7817C76.1465 23.9178 73.5362 25.622 70.8202 27.072C70.6844 26.8627 70.5486 26.6534 70.3977 26.4441Z" fill="#B51E25"/>
<path d="M64.4529 30.9885C62.7177 29.1797 61.6313 28.0436 60.545 26.9075C62.9893 24.0822 65.479 21.4811 67.6367 18.611C69.9905 15.4867 69.7491 12.3176 67.3802 9.68669C65.0263 7.07068 61.1334 6.42789 58.1458 8.17688C55.0225 10.0156 53.589 13.4537 54.9018 16.7873C55.7015 18.8203 56.9538 20.6739 58.0251 22.5873C58.4778 23.3796 59.0059 24.142 59.2473 25.0539C55.7618 20.7636 51.371 16.8471 51.9745 10.5687C52.4574 5.59077 55.445 2.34692 60.0621 0.687621C64.7396 -1.00157 69.8849 0.47834 73.1742 4.17065C76.3731 7.75832 77.2935 12.5419 74.7435 16.6527C71.7559 21.4961 68.1195 25.9508 64.4529 30.9885Z" fill="#B51E25"/>
<path d="M63.3061 31.3173C61.4652 33.0364 60.3185 34.0977 59.2472 35.0993C56.2445 32.6029 53.4833 30.1513 50.5561 27.909C48.0362 25.9806 45.275 26.0105 42.6345 27.8044C40.1599 29.4936 38.9679 31.9152 39.4206 34.8601C39.9034 37.9993 41.7895 40.406 44.9431 40.8994C46.8744 41.1983 49.1377 40.5854 51.0238 39.838C53.1815 38.9859 55.0978 37.521 57.2253 36.5643C52.5176 40.137 48.338 45.0551 41.3368 43.3808C36.5839 42.2447 33.536 39.1205 32.4948 34.4565C31.4084 29.6131 32.7966 25.3229 36.8555 22.2136C40.7182 19.2538 45.0939 18.5362 49.2735 21.212C54.0114 24.2316 58.4173 27.7595 63.3061 31.3173Z" fill="#B51E25"/>
<path d="M69.3719 38.2235C71.424 41.5571 73.7929 44.7561 75.4376 48.2839C77.4595 52.6041 75.4376 58.0304 71.2429 61.1398C66.9728 64.2939 60.8166 64.2042 56.5767 60.9305C52.3971 57.6866 50.7373 52.4546 52.6536 47.985C55.1432 42.1999 59.4435 37.7302 63.8796 33.1709C65.1018 34.4714 66.2184 35.6673 67.2746 36.8034C64.9509 39.5241 62.3406 42.1849 60.1829 45.1746C57.7083 48.5979 58.5533 52.5742 61.8728 54.951C65.0113 57.1933 69.4474 56.5804 71.937 53.5459C73.6571 51.4531 74.1249 49.0463 73.0234 46.6097C71.7861 43.904 70.2169 41.3478 68.7986 38.7168C68.9796 38.5375 69.1758 38.373 69.3719 38.2235Z" fill="#B51E25"/>
<path d="M30.4726 69.4812C29.3862 69.3317 28.1942 69.8998 27.2285 69.0029C28.3602 68.8085 29.522 68.4049 30.4726 69.4812Z" fill="#595758"/>
<path d="M111.877 86.2534C113.204 85.207 113.974 85.5957 114.668 87.0756C115.302 88.406 115.03 88.8545 113.778 89.6916C110.685 91.7545 106.867 91.0968 103.623 92.7262C101.888 93.5932 97.6781 91.4107 95.8071 89.4823C98.4778 88.1669 101.963 88.1519 103.231 84.8184C103.925 83.7869 103.865 82.7405 103.276 81.6941C102.733 81.4101 102.19 81.141 101.631 80.857C100.545 80.2889 100.439 79.3322 100.832 78.3755C101.179 77.5234 101.873 76.9255 102.929 77.2544C103.804 77.5384 104.649 77.5533 105.524 77.2245C107.923 76.3126 110.413 77.1497 112.269 78.9585C113.265 79.9302 112.827 80.2291 112.028 80.6477C109.734 81.8585 109.07 83.9663 108.738 86.2833C109.794 86.971 110.836 87.0009 111.877 86.2534Z" fill="#595758"/>
<path d="M80.341 80.4534C80.5673 79.7508 82.9966 79.1977 80.4918 78.1812C80.341 78.1214 81.8348 76.8508 82.5741 75.7297C79.8129 75.8941 77.3534 76.1034 75.2108 77.673C74.2602 78.3756 73.204 78.9735 72.012 78.3905C71.0463 77.9271 69.2205 77.8823 69.3262 76.8359C69.462 75.5054 71.2123 75.4606 72.4345 75.4008C75.5276 75.2513 78.4549 73.891 81.6084 74.1301C81.8649 74.1451 82.1516 73.8162 82.4232 73.6368C82.0007 72.9193 81.3972 72.8296 80.7785 72.7549C79.4658 72.6054 80.854 71.4394 80.0845 70.9311C79.7525 70.7219 80.3711 70.1239 80.7785 70.109C82.1818 70.0641 83.6454 69.9296 84.9883 70.2136C86.1049 70.4528 87.5232 71.0956 85.3353 72.9343C88.5794 72.5157 91.5066 71.0507 93.2117 74.5936C91.6877 75.6101 90.043 75.1168 88.4436 74.9972C85.9992 74.8327 85.8182 75.0271 86.2558 77.3441C86.3916 78.0317 85.7427 78.1812 85.4711 78.5848C85.1392 79.0781 84.0528 79.4519 85.2297 80.1694C85.3504 80.289 85.3806 80.4235 85.3353 80.5431C85.2901 80.6627 85.2448 80.7225 85.1995 80.7225C84.5205 81.0514 84.6563 82.1725 83.7058 82.2622C82.4685 82.9648 81.6386 82.0081 80.6729 81.5447C80.3561 81.2158 80.0995 80.9168 80.341 80.4534Z" fill="#595758"/>
<path d="M18.5677 89.9906C18.6884 90.4091 18.8996 90.8127 18.9147 91.2313C18.9298 92.1432 19.2768 93.4587 18.0395 93.6081C16.9532 93.7427 16.4703 92.6664 16.4703 91.5751C16.4703 90.5885 16.425 90.1849 15.0218 90.4241C13.7543 90.6334 13.1659 88.2565 14.0863 86.9112C14.9313 85.6704 16.5307 84.6838 14.0259 83.2039C12.7736 82.4565 12.5321 80.6327 14.1466 79.1977C15.3236 78.1513 16.8626 77.2693 17.0739 75.3409C17.1342 74.743 18.0848 73.9507 18.628 74.3394C19.6239 75.0569 20.8762 75.8791 20.5895 77.4188C20.3632 78.6296 19.473 79.8554 21.4798 80.4833C21.9023 80.6178 21.4949 81.4101 21.2535 81.8884C20.3632 83.5776 19.5182 85.2967 18.6431 86.9859C17.8585 87.9725 18.0395 88.9741 18.5677 89.9906Z" fill="#595758"/>
<path d="M26.3233 85.4164C24.9351 84.6391 24.92 83.8318 26.0668 82.7256C26.8514 81.9632 27.3946 80.9467 28.0585 80.0498C28.7375 79.5416 28.7978 78.4055 29.8691 78.2859C30.1256 78.3008 30.3218 78.4055 30.5029 78.5849C30.7895 79.138 31.0008 79.706 30.8348 80.3488C31.0159 80.7375 31.1215 81.3504 31.4082 81.455C33.581 82.2622 32.4493 83.0993 31.4685 83.8916C30.6688 84.5344 29.6277 84.8932 29.0996 85.8648C28.6922 86.5226 28.4206 87.3298 27.3946 87.2252C26.3535 87.0308 27.123 85.7452 26.3233 85.4164Z" fill="#595758"/>
<path d="M86.814 80.1394C89.0924 80.3188 89.1678 81.5894 88.3832 83.2637C87.9004 85.5807 88.2776 87.9276 88.1569 90.2596C88.0663 91.5302 88.353 92.8158 87.9456 94.0566C87.4477 94.8488 87.7495 97.2406 85.7879 95.1777C85.1995 94.5648 84.8072 93.7725 84.2036 92.8607C85.1089 92.6215 86.4518 92.9055 86.5122 91.5153C86.6631 88.0771 87.3723 84.609 86.2708 81.1858C85.8936 80.558 86.4368 80.3935 86.814 80.1394Z" fill="#595758"/>
<path d="M50.3899 92.4721C49.907 93.6531 49.5902 95.0881 48.0662 94.9984C46.844 94.9237 45.8934 94.0268 45.3955 92.8159C46.7535 92.4123 48.0964 91.9639 49.4846 91.6201C50.073 91.4706 50.4352 91.8592 50.3899 92.4721Z" fill="#595758"/>
<path d="M58.6281 94.3556C59.292 93.668 56.4855 90.8278 60.1068 92.0237C61.148 92.3675 62.7474 92.6515 62.0533 94.2211C61.4045 95.6711 60.0616 95.985 58.6583 94.8788C58.8394 94.7294 59.1562 94.535 59.1411 94.4154C59.0959 94.1912 58.7941 94.5649 58.6281 94.3556Z" fill="#595758"/>
<path d="M80.4014 82.7704C80.5825 82.2323 80.7786 81.709 80.9597 81.1709C81.8801 81.5147 82.7855 81.8735 83.7059 82.2173C83.7662 83.4132 82.6647 83.7122 82.031 84.3849C80.8692 84.4596 80.326 83.9214 80.4014 82.7704Z" fill="#595758"/>
<path d="M38.334 93.3989C38.1227 92.4571 37.142 92.9803 36.5384 92.7411C35.3162 92.2628 34.0789 91.8143 32.8718 91.321C32.0419 90.9922 31.6346 90.4241 31.8609 89.4674C32.8266 85.4761 32.8115 85.4761 29.16 86.4627C29.16 86.687 29.1298 86.8962 29.0846 87.0906C29.3712 87.6437 30.4878 87.9875 29.7334 88.8545C28.8733 89.8411 28.0585 89.0787 27.2135 88.9591C27.0928 89.004 26.9721 89.0339 26.8514 89.0787C26.7911 89.3179 26.8212 89.5571 26.957 89.7664C27.1834 90.3643 28.2547 90.3045 28.1038 91.2164C28.2245 91.7695 28.6922 91.9489 29.1298 92.1731C29.6428 92.2777 30.2464 92.2478 30.6538 92.502C32.1325 93.4288 33.581 94.4004 34.9993 95.4319C35.9348 96.1195 36.5988 95.5814 37.3079 95.0881C37.9266 94.6845 38.4848 94.1164 38.334 93.3989Z" fill="#595758"/>
<path d="M27.7415 87.0308C27.0927 87.5241 26.8211 88.137 27.0776 88.9292C27.0324 89.1983 26.9871 89.4823 26.9569 89.7514C26.1723 88.6303 25.3123 89.5421 24.4673 89.6617C24.1806 89.886 23.909 89.8411 23.6978 89.5571C24.6182 88.1968 26.4288 87.3895 26.3232 85.4014C26.7909 85.9545 27.2738 86.4926 27.7415 87.0308Z" fill="#595758"/>
<path d="M23.698 89.572C23.9546 89.6019 24.2111 89.6468 24.4676 89.6767C24.2412 90.1401 24.1205 90.7978 23.7433 91.0071C22.8682 91.4854 22.3702 92.6215 21.1933 92.5318C20.9972 92.5169 20.6199 91.9339 20.6954 91.7545C21.1028 90.753 21.9025 90.0504 22.8983 89.6468C23.1548 89.5421 23.4415 89.587 23.698 89.572Z" fill="#595758"/>
<path d="M77.7308 82.3369C77.4743 85.9844 78.3344 89.6916 77.248 93.2942C77.1575 89.6318 76.4936 85.9395 77.7308 82.3369Z" fill="#595758"/>
<path d="M47.3722 80.5879C47.3269 80.274 47.2967 79.9601 47.2515 79.6462C46.7837 78.7792 47.3118 77.7776 46.8592 76.9106C46.7988 76.1781 46.3914 75.4008 47.508 74.5487C47.855 75.9389 48.1568 77.1498 48.4737 78.3606C48.4586 79.2725 48.6849 80.3039 47.3722 80.5879Z" fill="#595758"/>
<path d="M30.8497 80.3338C30.6234 79.676 30.3971 79.0332 30.1707 78.3755C30.0048 77.2843 29.8991 76.208 30.7592 75.311C31.8456 75.3858 30.9704 76.9554 32.0719 77.0002C31.408 78.0317 31.8003 79.4219 30.8497 80.3338Z" fill="#595758"/>
<path d="M28.104 91.2014C28.451 91.5153 28.7829 91.8442 29.13 92.1581C29.0395 92.188 28.964 92.2179 28.8735 92.2329C27.3797 92.4571 24.8146 93.6829 24.6184 92.5916C24.3318 90.9174 27.0176 92.0983 28.104 91.2014Z" fill="#595758"/>
<path d="M47.3722 80.5879C47.7343 79.8404 48.0964 79.093 48.4736 78.3456C48.9867 78.794 48.8961 79.4368 49.0168 80.0049C49.2281 80.3487 49.3035 80.7075 49.1979 81.0961C48.8056 81.7389 48.187 82.1874 47.7946 82.8302C47.2364 82.1575 47.2816 81.3801 47.3722 80.5879Z" fill="#595758"/>
<path d="M87.9003 90.155C88.1568 87.8679 87.3118 85.506 88.3831 83.2787C88.368 85.5658 88.3378 87.8679 88.3227 90.155C88.1719 90.3793 88.0361 90.3643 87.9003 90.155Z" fill="#595758"/>
<path d="M47.7793 82.8302C47.8849 82.1277 48.081 81.4849 48.8053 81.156C49.1825 81.4849 49.1674 81.8287 48.8656 82.1875C47.568 83.3235 49.3183 85.3715 47.6133 86.388C47.6736 85.2071 47.734 84.0112 47.7793 82.8302Z" fill="#595758"/>
<path d="M79.9033 86.0143C80.6125 85.6107 81.3066 85.2071 82.0157 84.8035C82.1968 84.8334 82.3779 84.8782 82.5589 84.9081C82.7551 85.0127 82.8155 85.1174 82.74 85.222C82.6797 85.3267 82.6193 85.3715 82.5439 85.3715C82.5439 85.7452 82.5288 86.1189 82.5288 86.4777C82.0308 86.7468 81.6234 87.5241 80.9444 86.7468C80.5974 86.5076 80.2504 86.2684 79.9033 86.0143Z" fill="#595758"/>
<path d="M59.6089 87.9427C61.3894 87.0009 63.2755 87.6736 65.1163 87.554C63.366 89.019 61.4346 87.7185 59.6089 87.9427Z" fill="#595758"/>
<path d="M29.7333 78.3904C29.2354 78.9884 29.1147 79.975 28.0585 80.0497C28.0434 79.5714 28.0283 79.0781 28.0132 78.5997C28.3904 77.942 29.0241 77.9569 29.6729 77.9719C29.8389 78.0466 29.8993 78.1363 29.854 78.2409C29.8238 78.3456 29.7786 78.3904 29.7333 78.3904Z" fill="#595758"/>
<path d="M54.8862 74.8477C54.509 74.8327 54.1167 74.8178 53.7394 74.8028C53.1057 71.9775 55.3841 74.5039 55.8368 73.6817C55.8669 73.9358 55.9122 74.2049 55.9424 74.459C55.7462 75.0271 55.3992 75.1766 54.8862 74.8477Z" fill="#595758"/>
<path d="M65.8556 85.8947C64.6636 85.7901 63.4263 86.1489 61.9023 85.536C63.2 85.4313 64.1506 85.3566 65.1162 85.2819C65.6444 85.1473 66.0367 85.1772 65.8556 85.8947Z" fill="#595758"/>
<path d="M87.9004 90.155C88.0362 90.155 88.1871 90.155 88.3229 90.155C88.3832 91.4855 88.8963 92.8458 87.9457 94.0716C87.9306 92.7561 87.9155 91.4556 87.9004 90.155Z" fill="#595758"/>
<path d="M18.5679 89.9906C17.4211 88.9592 17.6776 87.9726 18.6433 86.986C18.6131 87.9875 18.583 88.9891 18.5679 89.9906Z" fill="#595758"/>
<path d="M82.5439 85.3715C82.5439 85.222 82.5439 85.0576 82.5439 84.9081C83.57 84.4297 84.5357 84.3251 85.3505 85.3266C84.415 85.3416 83.4794 85.3565 82.5439 85.3715Z" fill="#595758"/>
<path d="M103.276 81.6941C104.226 82.7405 104.272 83.7869 103.23 84.8184C103.246 83.772 103.261 82.7405 103.276 81.6941Z" fill="#595758"/>
<path d="M82.5742 89.7365C83.1174 89.318 83.6455 88.8994 84.1887 88.4808C84.8677 89.7515 84.8677 89.7515 82.5742 89.7365Z" fill="#595758"/>
<path d="M111.877 86.2534C110.836 87.3447 109.794 87.3447 108.738 86.2684C109.794 86.2534 110.836 86.2534 111.877 86.2534Z" fill="#595758"/>
<path d="M51.0688 87.6287C51.8686 86.5972 52.7588 86.7766 53.6943 87.4344C52.8191 87.4942 51.944 87.5689 51.0688 87.6287Z" fill="#595758"/>
<path d="M26.9421 70.677C28.1191 71.3796 27.6513 72.0224 26.8667 72.6502C26.8969 71.9925 26.912 71.3347 26.9421 70.677Z" fill="#595758"/>
<path d="M86.8142 80.1394C86.6331 80.4982 86.452 80.842 86.2559 81.2008C85.8937 81.0363 85.5467 80.8719 85.1846 80.6925C85.1846 80.5131 85.1997 80.3337 85.1997 80.1394C85.7429 80.1394 86.2861 80.1394 86.8142 80.1394Z" fill="#595758"/>
<path d="M51.0988 80.8868C51.1592 79.9152 50.7065 78.8688 51.4912 77.9868C51.4459 78.9585 51.627 79.975 51.0988 80.8868Z" fill="#595758"/>
<path d="M50.0732 80.588C50.0128 80.4086 49.9524 80.2441 49.8921 80.0648C50.1335 79.2874 49.7865 78.3756 50.4353 77.673C50.4051 78.6745 50.8427 79.706 50.0732 80.588Z" fill="#595758"/>
<path d="M46.859 76.9105C47.6436 77.7327 47.3116 78.7044 47.2513 79.6461C46.693 78.794 46.8137 77.8523 46.859 76.9105Z" fill="#595758"/>
<path d="M58.6284 94.3556C58.8547 94.0118 59.0811 93.653 59.4583 93.0551C59.6243 94.0417 59.7148 94.6695 58.6586 94.8788C58.6586 94.6994 58.6435 94.535 58.6284 94.3556Z" fill="#595758"/>
<path d="M65.8557 85.8946C65.3577 85.5957 64.7995 85.6106 64.2261 85.6405C64.5279 85.5957 64.8146 85.491 65.1163 85.2668C64.1959 84.7884 63.185 84.9678 62.2344 84.9977C60.303 85.0725 59.7447 84.2802 60.137 82.4714C60.6651 79.96 61.0725 77.4487 63.185 75.6249C63.6829 75.2064 64.4675 74.6383 63.9847 73.8909C63.6527 73.3528 62.853 73.5471 62.2344 73.6966C61.6157 74.5337 60.8613 75.0121 59.6995 74.5935C60.2427 74.1002 60.7406 73.6368 61.2385 73.1883C59.2317 70.946 57.6021 73.1285 55.8367 73.6517C55.6557 73.8311 55.5953 74.0553 55.6557 74.3095C55.6859 74.3842 55.716 74.444 55.7462 74.5187C55.8066 74.4888 55.882 74.4739 55.9424 74.444C57.2853 75.595 57.1796 75.8641 54.7654 77.8224C53.6489 76.776 54.7353 75.8193 54.8862 74.8327C54.9163 74.8177 54.9314 74.8177 54.9616 74.8028C54.9163 74.728 54.856 74.6682 54.7654 74.6234C54.3882 74.459 54.0412 74.4739 53.7394 74.7878C52.5927 77.9121 53.2566 81.3951 51.9137 84.6689C50.8424 83.3683 51.4308 82.0379 51.114 80.8719C51.5214 79.9451 51.0838 78.8987 51.5063 77.9719C51.5968 77.1049 51.6421 76.2378 51.793 75.3858C52.0042 74.2497 51.114 73.6517 50.435 73.6966C49.3335 73.7564 50.0125 74.8028 50.0276 75.3858C50.0427 76.1481 50.2992 76.9105 50.4501 77.6729C50.0879 78.4652 50.4651 79.3621 50.0879 80.1544C50.1483 80.2142 50.1785 80.274 50.1785 80.3487C50.1634 80.4982 50.1332 80.5729 50.0879 80.5729C49.9823 81.3353 49.922 82.1126 49.7711 82.875C49.7107 83.2039 49.3637 83.1889 49.59 82.9199C49.6051 82.9049 49.4995 82.7853 49.4542 82.7106C49.258 82.5312 49.077 82.3518 48.8808 82.1724C48.8808 82.1425 48.8808 82.0977 48.8808 82.0678C48.6394 82.0379 48.4282 82.1425 48.232 82.3518C47.7643 83.6524 48.7149 85.1622 47.6285 86.373C45.7273 86.7766 43.811 87.0457 41.8646 86.8962C41.3063 86.8514 40.5066 86.5075 40.2802 87.3148C40.0992 87.9874 40.8989 88.2864 41.2459 88.7498C41.7438 89.4375 42.4832 89.1235 43.1773 89.1534C45.9536 89.2581 48.5036 88.3014 51.0989 87.5988C51.9137 86.8663 52.819 87.1503 53.7243 87.4045C55.7009 87.5689 57.6625 87.7483 59.6391 87.9127C61.4347 87.3297 63.3359 88.1369 65.1465 87.524C65.7048 87.1503 65.9311 86.5972 65.8557 85.8946ZM55.7915 85.3565C56.2291 84.3998 56.395 83.5926 57.3456 83.3235C57.6172 84.4147 57.5418 85.222 55.7915 85.3565ZM62.4758 85.4462C62.9435 85.5359 63.3811 85.6405 63.8187 85.6555C63.366 85.6854 62.8983 85.6704 62.4758 85.4462Z" fill="#595758"/>
<path d="M32.6002 70.5873C31.4535 70.8414 30.8801 70.2136 30.2765 69.4961C29.2656 68.8981 28.0434 69.6156 27.0325 69.0177C26.1875 69.526 26.6552 70.1089 26.9419 70.6919C27.6209 71.3796 27.47 72.0224 26.8665 72.6652C26.112 73.7265 24.4221 75.5801 25.8857 75.9688C27.802 76.4771 27.3342 77.7626 28.0132 78.6147C28.6319 78.6446 29.2203 78.5699 29.7183 78.1663C29.7032 78.1065 29.6881 78.0467 29.6579 78.0018C29.8088 77.5683 29.8088 77.2095 29.4165 76.8209C29.0242 76.4472 28.149 76.1332 28.7375 75.4008C29.2958 74.7131 30.0502 74.5038 30.7292 75.3559C30.7594 75.61 30.7594 75.8642 30.7443 76.1183C31.0159 76.6116 31.0762 77.4039 32.0419 77.0451C33.068 75.4755 32.6304 73.4425 33.8677 71.8579C34.5014 71.0507 33.5206 70.378 32.6002 70.5873Z" fill="#595758"/>
<path d="M85.3507 85.3266C84.551 85.0575 83.7513 84.8333 82.8912 85.1024C82.4688 85.1921 82.2273 85.4761 82.0764 85.8498C81.8501 85.9246 81.9256 86.3132 81.8954 86.5972C82.1066 86.5673 82.3179 86.5225 82.5291 86.4926C82.3028 86.956 82.1519 87.4643 81.8501 87.8529C81.5634 88.2117 81.0957 88.8246 80.5978 88.3014C80.0998 87.7931 80.3714 87.1802 80.9448 86.7617C81.0202 86.7467 81.0806 86.7318 81.156 86.7318C81.0655 86.4328 80.8844 86.1936 80.6883 85.9545C80.4167 85.9545 80.1451 85.9395 79.9037 86.0143C78.8022 84.7436 78.6664 83.6225 80.4016 82.7853C80.462 82.8451 80.5374 82.9199 80.5978 82.9797C80.6128 82.9498 80.6279 82.9348 80.643 82.9049C80.9448 82.3668 81.2767 81.8436 80.9599 81.1858C80.7486 80.9467 80.5525 80.6925 80.3412 80.4534C79.4661 81.0812 78.606 81.709 77.7309 82.3369C77.248 83.2488 77.5347 84.2354 77.4895 85.1771C77.3386 87.8828 77.746 90.6035 77.248 93.2942C77.3386 93.9819 77.7007 94.4752 78.4401 94.3257C79.0134 94.221 79.1794 93.653 79.2699 93.1447C79.4661 91.9638 80.8844 90.3792 81.9256 90.1401C82.167 90.0803 82.3631 89.871 82.5744 89.7365C82.7554 88.8694 84.4756 89.9308 84.1889 88.4808C84.0531 87.7931 83.9173 87.1952 84.8679 86.8663C85.4865 86.6421 86.1051 86.1189 85.3507 85.3266Z" fill="#595758"/>
</g>
<path d="M0.704545 106V100.182H4.19318V100.807H1.40909V102.773H3.93182V103.398H1.40909V106H0.704545ZM9.21804 100.182H9.92259V104.034C9.92259 104.432 9.82884 104.787 9.64134 105.099C9.45573 105.41 9.19342 105.655 8.8544 105.835C8.51539 106.013 8.11766 106.102 7.66122 106.102C7.20478 106.102 6.80705 106.013 6.46804 105.835C6.12902 105.655 5.86577 105.41 5.67827 105.099C5.49266 104.787 5.39986 104.432 5.39986 104.034V100.182H6.1044V103.977C6.1044 104.261 6.1669 104.514 6.2919 104.736C6.4169 104.955 6.59493 105.129 6.82599 105.256C7.05895 105.381 7.33736 105.443 7.66122 105.443C7.98509 105.443 8.26349 105.381 8.49645 105.256C8.7294 105.129 8.90743 104.955 9.03054 104.736C9.15554 104.514 9.21804 104.261 9.21804 103.977V100.182ZM13.7386 102.778V103.403H11.1932V102.778H13.7386ZM15.0092 106V100.182H15.7138V102.773H18.8161V100.182H19.5206V106H18.8161V103.398H15.7138V106H15.0092ZM24.1129 101.636C24.0788 101.348 23.9406 101.125 23.6982 100.966C23.4557 100.807 23.1584 100.727 22.8061 100.727C22.5485 100.727 22.3232 100.769 22.13 100.852C21.9387 100.936 21.7891 101.05 21.6811 101.196C21.575 101.342 21.522 101.508 21.522 101.693C21.522 101.848 21.5589 101.982 21.6328 102.094C21.7086 102.204 21.8052 102.295 21.9226 102.369C22.04 102.441 22.1631 102.501 22.2919 102.548C22.4207 102.594 22.5391 102.631 22.647 102.659L23.2379 102.818C23.3894 102.858 23.558 102.913 23.7436 102.983C23.9311 103.053 24.1101 103.149 24.2805 103.27C24.4529 103.389 24.5949 103.543 24.7067 103.73C24.8184 103.918 24.8743 104.148 24.8743 104.42C24.8743 104.735 24.7919 105.019 24.6271 105.273C24.4643 105.527 24.2256 105.728 23.9112 105.878C23.5987 106.027 23.219 106.102 22.772 106.102C22.3554 106.102 21.9946 106.035 21.6896 105.901C21.3866 105.766 21.148 105.579 20.9737 105.338C20.8014 105.098 20.7038 104.818 20.6811 104.5H21.4084C21.4273 104.72 21.5012 104.902 21.63 105.045C21.7607 105.187 21.9254 105.294 22.1243 105.364C22.325 105.432 22.541 105.466 22.772 105.466C23.041 105.466 23.2824 105.422 23.4964 105.335C23.7105 105.246 23.88 105.123 24.005 104.966C24.13 104.807 24.1925 104.621 24.1925 104.409C24.1925 104.216 24.1385 104.059 24.0305 103.938C23.9226 103.816 23.7805 103.718 23.6044 103.642C23.4283 103.566 23.2379 103.5 23.0334 103.443L22.3175 103.239C21.8629 103.108 21.5031 102.921 21.2379 102.679C20.9728 102.437 20.8402 102.119 20.8402 101.727C20.8402 101.402 20.9283 101.117 21.1044 100.875C21.2824 100.631 21.5211 100.441 21.8203 100.307C22.1214 100.17 22.4576 100.102 22.8288 100.102C23.2038 100.102 23.5372 100.17 23.8288 100.304C24.1205 100.437 24.3516 100.618 24.522 100.849C24.6944 101.08 24.7853 101.343 24.7947 101.636H24.1129ZM26.7372 100.182V106H26.0327V100.182H26.7372ZM32.7635 100.182V106H32.0817L28.9112 101.432H28.8544V106H28.1499V100.182H28.8317L32.0135 104.761H32.0703V100.182H32.7635ZM36.1051 100.807V100.182H40.4688V100.807H38.6392V106H37.9347V100.807H36.1051ZM41.5561 106V100.182H43.522C43.9766 100.182 44.3497 100.259 44.6413 100.415C44.933 100.568 45.1489 100.779 45.2891 101.048C45.4292 101.317 45.4993 101.623 45.4993 101.966C45.4993 102.309 45.4292 102.613 45.2891 102.878C45.1489 103.143 44.9339 103.351 44.6442 103.503C44.3544 103.652 43.9841 103.727 43.5334 103.727H41.9425V103.091H43.5107C43.8213 103.091 44.0713 103.045 44.2607 102.955C44.4519 102.864 44.5902 102.735 44.6754 102.568C44.7625 102.4 44.8061 102.199 44.8061 101.966C44.8061 101.733 44.7625 101.529 44.6754 101.355C44.5883 101.181 44.4491 101.046 44.2578 100.952C44.0665 100.855 43.8137 100.807 43.4993 100.807H42.2607V106H41.5561ZM44.2947 103.386L45.7266 106H44.9084L43.4993 103.386H44.2947ZM46.9119 106H46.1733L48.3097 100.182H49.0369L51.1733 106H50.4347L48.696 101.102H48.6506L46.9119 106ZM47.1847 103.727H50.1619V104.352H47.1847V103.727ZM53.875 106H52.0795V100.182H53.9545C54.5189 100.182 55.0019 100.298 55.4034 100.531C55.8049 100.762 56.1127 101.095 56.3267 101.528C56.5407 101.96 56.6477 102.477 56.6477 103.08C56.6477 103.686 56.5398 104.207 56.3239 104.645C56.108 105.08 55.7936 105.416 55.3807 105.651C54.9678 105.884 54.4659 106 53.875 106ZM52.7841 105.375H53.8295C54.3106 105.375 54.7093 105.282 55.0256 105.097C55.3419 104.911 55.5777 104.647 55.733 104.304C55.8883 103.961 55.9659 103.553 55.9659 103.08C55.9659 102.61 55.8892 102.205 55.7358 101.866C55.5824 101.526 55.3532 101.264 55.0483 101.082C54.7434 100.899 54.3636 100.807 53.9091 100.807H52.7841V105.375ZM57.8295 106V100.182H61.3409V100.807H58.5341V102.773H61.1591V103.398H58.5341V105.375H61.3864V106H57.8295ZM66.4176 106.08C66.035 106.08 65.7055 106.009 65.429 105.869C65.1525 105.729 64.9394 105.537 64.7898 105.293C64.6402 105.048 64.5653 104.769 64.5653 104.455C64.5653 104.212 64.6165 103.997 64.7188 103.81C64.8229 103.62 64.9659 103.445 65.1477 103.284C65.3314 103.121 65.5426 102.958 65.7812 102.795L66.6222 102.17C66.7869 102.062 66.9186 101.947 67.017 101.824C67.1174 101.701 67.1676 101.54 67.1676 101.341C67.1676 101.193 67.1023 101.05 66.9716 100.912C66.8428 100.774 66.6733 100.705 66.4631 100.705C66.3153 100.705 66.1847 100.742 66.071 100.818C65.9593 100.892 65.8712 100.987 65.8068 101.102C65.7443 101.216 65.7131 101.333 65.7131 101.455C65.7131 101.591 65.75 101.729 65.8239 101.869C65.8996 102.008 65.9953 102.15 66.1108 102.295C66.2282 102.439 66.3494 102.587 66.4744 102.739L69.1449 106H68.3381L66.1335 103.341C65.929 103.095 65.7434 102.871 65.5767 102.67C65.41 102.47 65.2775 102.272 65.179 102.077C65.0805 101.882 65.0312 101.67 65.0312 101.443C65.0312 101.182 65.089 100.953 65.2045 100.756C65.322 100.557 65.4858 100.402 65.696 100.293C65.9081 100.181 66.1563 100.125 66.4403 100.125C66.732 100.125 66.983 100.182 67.1932 100.295C67.4034 100.407 67.5653 100.556 67.679 100.741C67.7926 100.925 67.8494 101.125 67.8494 101.341C67.8494 101.619 67.7803 101.861 67.642 102.065C67.5038 102.27 67.3153 102.46 67.0767 102.636L65.9176 103.5C65.6563 103.693 65.4792 103.881 65.3864 104.062C65.2936 104.244 65.2472 104.375 65.2472 104.455C65.2472 104.636 65.2945 104.806 65.3892 104.963C65.4839 105.12 65.6174 105.247 65.7898 105.344C65.9621 105.44 66.1638 105.489 66.3949 105.489C66.6146 105.489 66.8286 105.442 67.0369 105.349C67.2453 105.255 67.4337 105.118 67.6023 104.94C67.7727 104.762 67.9072 104.548 68.0057 104.298C68.1061 104.048 68.1562 103.767 68.1562 103.455H68.804C68.804 103.841 68.7595 104.156 68.6705 104.401C68.5814 104.645 68.4811 104.836 68.3693 104.974C68.2576 105.113 68.1676 105.216 68.0994 105.284C68.0767 105.312 68.0559 105.341 68.0369 105.369C68.018 105.398 67.9972 105.426 67.9744 105.455C67.7869 105.665 67.5502 105.822 67.2642 105.926C66.9782 106.028 66.696 106.08 66.4176 106.08ZM72.4666 106H71.728L73.8643 100.182H74.5916L76.728 106H75.9893L74.2507 101.102H74.2053L72.4666 106ZM72.7393 103.727H75.7166V104.352H72.7393V103.727ZM77.6342 106V100.182H79.6001C80.0547 100.182 80.4278 100.259 80.7195 100.415C81.0111 100.568 81.227 100.779 81.3672 101.048C81.5073 101.317 81.5774 101.623 81.5774 101.966C81.5774 102.309 81.5073 102.613 81.3672 102.878C81.227 103.143 81.0121 103.351 80.7223 103.503C80.4325 103.652 80.0623 103.727 79.6115 103.727H78.0206V103.091H79.5888C79.8994 103.091 80.1494 103.045 80.3388 102.955C80.5301 102.864 80.6683 102.735 80.7536 102.568C80.8407 102.4 80.8842 102.199 80.8842 101.966C80.8842 101.733 80.8407 101.529 80.7536 101.355C80.6664 101.181 80.5272 101.046 80.3359 100.952C80.1446 100.855 79.8918 100.807 79.5774 100.807H78.3388V106H77.6342ZM80.3729 103.386L81.8047 106H80.9865L79.5774 103.386H80.3729ZM82.4332 100.807V100.182H86.7969V100.807H84.9673V106H84.2628V100.807H82.4332ZM91.0661 101.636C91.032 101.348 90.8937 101.125 90.6513 100.966C90.4089 100.807 90.1115 100.727 89.7592 100.727C89.5017 100.727 89.2763 100.769 89.0831 100.852C88.8918 100.936 88.7422 101.05 88.6342 101.196C88.5282 101.342 88.4751 101.508 88.4751 101.693C88.4751 101.848 88.5121 101.982 88.5859 102.094C88.6617 102.204 88.7583 102.295 88.8757 102.369C88.9931 102.441 89.1162 102.501 89.245 102.548C89.3738 102.594 89.4922 102.631 89.6001 102.659L90.1911 102.818C90.3426 102.858 90.5111 102.913 90.6967 102.983C90.8842 103.053 91.0632 103.149 91.2337 103.27C91.406 103.389 91.5481 103.543 91.6598 103.73C91.7715 103.918 91.8274 104.148 91.8274 104.42C91.8274 104.735 91.745 105.019 91.5803 105.273C91.4174 105.527 91.1787 105.728 90.8643 105.878C90.5518 106.027 90.1721 106.102 89.7251 106.102C89.3085 106.102 88.9477 106.035 88.6428 105.901C88.3397 105.766 88.1011 105.579 87.9268 105.338C87.7545 105.098 87.657 104.818 87.6342 104.5H88.3615C88.3804 104.72 88.4543 104.902 88.5831 105.045C88.7138 105.187 88.8786 105.294 89.0774 105.364C89.2782 105.432 89.4941 105.466 89.7251 105.466C89.9941 105.466 90.2356 105.422 90.4496 105.335C90.6636 105.246 90.8331 105.123 90.9581 104.966C91.0831 104.807 91.1456 104.621 91.1456 104.409C91.1456 104.216 91.0916 104.059 90.9837 103.938C90.8757 103.816 90.7337 103.718 90.5575 103.642C90.3814 103.566 90.1911 103.5 89.9865 103.443L89.2706 103.239C88.8161 103.108 88.4562 102.921 88.1911 102.679C87.9259 102.437 87.7933 102.119 87.7933 101.727C87.7933 101.402 87.8814 101.117 88.0575 100.875C88.2356 100.631 88.4742 100.441 88.7734 100.307C89.0746 100.17 89.4107 100.102 89.782 100.102C90.157 100.102 90.4903 100.17 90.782 100.304C91.0736 100.437 91.3047 100.618 91.4751 100.849C91.6475 101.08 91.7384 101.343 91.7479 101.636H91.0661ZM98.4176 101.636C98.3835 101.348 98.2453 101.125 98.0028 100.966C97.7604 100.807 97.4631 100.727 97.1108 100.727C96.8532 100.727 96.6278 100.769 96.4347 100.852C96.2434 100.936 96.0938 101.05 95.9858 101.196C95.8797 101.342 95.8267 101.508 95.8267 101.693C95.8267 101.848 95.8636 101.982 95.9375 102.094C96.0133 102.204 96.1098 102.295 96.2273 102.369C96.3447 102.441 96.4678 102.501 96.5966 102.548C96.7254 102.594 96.8438 102.631 96.9517 102.659L97.5426 102.818C97.6941 102.858 97.8627 102.913 98.0483 102.983C98.2358 103.053 98.4148 103.149 98.5852 103.27C98.7576 103.389 98.8996 103.543 99.0114 103.73C99.1231 103.918 99.179 104.148 99.179 104.42C99.179 104.735 99.0966 105.019 98.9318 105.273C98.7689 105.527 98.5303 105.728 98.2159 105.878C97.9034 106.027 97.5237 106.102 97.0767 106.102C96.66 106.102 96.2992 106.035 95.9943 105.901C95.6913 105.766 95.4527 105.579 95.2784 105.338C95.1061 105.098 95.0085 104.818 94.9858 104.5H95.7131C95.732 104.72 95.8059 104.902 95.9347 105.045C96.0653 105.187 96.2301 105.294 96.429 105.364C96.6297 105.432 96.8456 105.466 97.0767 105.466C97.3456 105.466 97.5871 105.422 97.8011 105.335C98.0152 105.246 98.1847 105.123 98.3097 104.966C98.4347 104.807 98.4972 104.621 98.4972 104.409C98.4972 104.216 98.4432 104.059 98.3352 103.938C98.2273 103.816 98.0852 103.718 97.9091 103.642C97.733 103.566 97.5426 103.5 97.3381 103.443L96.6222 103.239C96.1676 103.108 95.8078 102.921 95.5426 102.679C95.2775 102.437 95.1449 102.119 95.1449 101.727C95.1449 101.402 95.233 101.117 95.4091 100.875C95.5871 100.631 95.8258 100.441 96.125 100.307C96.4261 100.17 96.7623 100.102 97.1335 100.102C97.5085 100.102 97.8419 100.17 98.1335 100.304C98.4252 100.437 98.6563 100.618 98.8267 100.849C98.9991 101.08 99.09 101.343 99.0994 101.636H98.4176ZM105.019 102H104.315C104.273 101.797 104.2 101.619 104.096 101.466C103.994 101.312 103.869 101.184 103.721 101.08C103.575 100.973 103.413 100.894 103.235 100.841C103.057 100.788 102.871 100.761 102.678 100.761C102.326 100.761 102.007 100.85 101.721 101.028C101.437 101.206 101.21 101.469 101.042 101.815C100.875 102.162 100.792 102.587 100.792 103.091C100.792 103.595 100.875 104.02 101.042 104.366C101.21 104.713 101.437 104.975 101.721 105.153C102.007 105.331 102.326 105.42 102.678 105.42C102.871 105.42 103.057 105.394 103.235 105.341C103.413 105.288 103.575 105.209 103.721 105.105C103.869 104.999 103.994 104.869 104.096 104.716C104.2 104.561 104.273 104.383 104.315 104.182H105.019C104.966 104.479 104.87 104.745 104.729 104.98C104.589 105.215 104.415 105.415 104.207 105.58C103.998 105.742 103.764 105.866 103.505 105.952C103.247 106.037 102.972 106.08 102.678 106.08C102.182 106.08 101.741 105.958 101.354 105.716C100.968 105.473 100.664 105.129 100.442 104.682C100.221 104.235 100.11 103.705 100.11 103.091C100.11 102.477 100.221 101.947 100.442 101.5C100.664 101.053 100.968 100.708 101.354 100.466C101.741 100.223 102.182 100.102 102.678 100.102C102.972 100.102 103.247 100.145 103.505 100.23C103.764 100.315 103.998 100.44 104.207 100.605C104.415 100.768 104.589 100.967 104.729 101.202C104.87 101.435 104.966 101.701 105.019 102ZM106.158 106V100.182H106.862V102.773H109.964V100.182H110.669V106H109.964V103.398H106.862V106H106.158ZM116.989 103.091C116.989 103.705 116.878 104.235 116.656 104.682C116.435 105.129 116.131 105.473 115.744 105.716C115.358 105.958 114.917 106.08 114.42 106.08C113.924 106.08 113.483 105.958 113.097 105.716C112.71 105.473 112.406 105.129 112.185 104.682C111.963 104.235 111.852 103.705 111.852 103.091C111.852 102.477 111.963 101.947 112.185 101.5C112.406 101.053 112.71 100.708 113.097 100.466C113.483 100.223 113.924 100.102 114.42 100.102C114.917 100.102 115.358 100.223 115.744 100.466C116.131 100.708 116.435 101.053 116.656 101.5C116.878 101.947 116.989 102.477 116.989 103.091ZM116.307 103.091C116.307 102.587 116.223 102.162 116.054 101.815C115.887 101.469 115.661 101.206 115.375 101.028C115.091 100.85 114.773 100.761 114.42 100.761C114.068 100.761 113.749 100.85 113.463 101.028C113.179 101.206 112.953 101.469 112.784 101.815C112.617 102.162 112.534 102.587 112.534 103.091C112.534 103.595 112.617 104.02 112.784 104.366C112.953 104.713 113.179 104.975 113.463 105.153C113.749 105.331 114.068 105.42 114.42 105.42C114.773 105.42 115.091 105.331 115.375 105.153C115.661 104.975 115.887 104.713 116.054 104.366C116.223 104.02 116.307 103.595 116.307 103.091ZM123.082 103.091C123.082 103.705 122.972 104.235 122.75 104.682C122.528 105.129 122.224 105.473 121.838 105.716C121.452 105.958 121.01 106.08 120.514 106.08C120.018 106.08 119.577 105.958 119.19 105.716C118.804 105.473 118.5 105.129 118.278 104.682C118.057 104.235 117.946 103.705 117.946 103.091C117.946 102.477 118.057 101.947 118.278 101.5C118.5 101.053 118.804 100.708 119.19 100.466C119.577 100.223 120.018 100.102 120.514 100.102C121.01 100.102 121.452 100.223 121.838 100.466C122.224 100.708 122.528 101.053 122.75 101.5C122.972 101.947 123.082 102.477 123.082 103.091ZM122.401 103.091C122.401 102.587 122.316 102.162 122.148 101.815C121.981 101.469 121.755 101.206 121.469 101.028C121.185 100.85 120.866 100.761 120.514 100.761C120.162 100.761 119.843 100.85 119.557 101.028C119.273 101.206 119.046 101.469 118.878 101.815C118.711 102.162 118.628 102.587 118.628 103.091C118.628 103.595 118.711 104.02 118.878 104.366C119.046 104.713 119.273 104.975 119.557 105.153C119.843 105.331 120.162 105.42 120.514 105.42C120.866 105.42 121.185 105.331 121.469 105.153C121.755 104.975 121.981 104.713 122.148 104.366C122.316 104.02 122.401 103.595 122.401 103.091ZM124.267 106V100.182H124.972V105.375H127.676V106H124.267Z" fill="#595758"/>
<defs>
<clipPath id="clip0_41_1012">
<rect width="102" height="96" fill="white" transform="translate(13)"/>
</clipPath>
</defs>
</svg>
