<svg width="121" height="107" viewBox="0 0 121 107" fill="none" xmlns="http://www.w3.org/2000/svg">
<g clip-path="url(#clip0_41_1073)">
<path d="M12.8089 78.8925C12.7821 78.4134 13.1043 78.44 13.4265 78.4933C14.3127 78.5997 15.0646 78.0674 15.8702 77.8545C16.2193 77.748 16.3535 77.5085 16.3535 77.1624C16.3267 76.151 16.3267 75.1129 16.3267 74.1015C16.3267 72.8771 15.1451 73.5425 14.5007 73.09C15.6016 72.3714 16.5683 72.3182 17.5888 72.8771C18.4212 73.3562 18.5286 74.1015 18.4481 74.9266C18.3138 76.6833 18.3138 76.6833 20.0861 76.6035C20.838 76.5502 21.4825 76.7099 21.5362 77.5883C21.6167 78.5731 20.9991 78.7861 20.1398 78.6796C19.925 78.653 19.6833 78.7062 19.4685 78.653C18.2869 78.4933 18.0184 79.1587 18.0453 80.1435C18.0721 80.7291 18.2869 80.942 18.8777 80.809C19.4953 80.6759 20.0861 80.5428 20.7037 80.4097C22.2075 80.0371 23.3085 81.0485 23.0668 82.5657C22.6103 85.5734 23.0936 88.5811 23.1742 91.5888C23.2279 93.452 22.6371 95.1555 22.2612 96.9388C22.1269 97.5776 21.6973 97.3647 21.3482 97.1251C20.6769 96.646 20.2741 95.954 20.0055 95.1821C19.7639 94.5167 19.6296 93.8246 19.0657 93.0261C20.5157 93.2923 20.6232 92.5204 20.5963 91.5622C20.5695 88.8739 20.6769 86.159 20.4083 83.4706C20.3546 82.9649 20.4083 82.2995 19.6296 82.3261C19.0657 82.3527 18.3406 82.2196 18.0721 82.8585C17.8573 83.3908 18.0184 83.8965 18.636 84.2958C19.3074 84.7216 19.5759 85.3604 18.7434 85.9993C18.5018 86.1856 18.3138 86.4517 18.1527 86.7179C17.9379 87.0107 17.6962 87.3567 17.8841 87.6761C18.099 87.9955 18.4481 87.7027 18.7434 87.6761C19.2268 87.6229 19.7907 87.4366 20.0055 88.0221C20.2741 88.6876 19.7907 89.2199 19.2268 89.3264C17.6425 89.6458 17.5351 90.7371 17.6156 92.0147C17.6693 93.0794 17.5351 94.144 16.8906 95.049C16.7295 95.2886 16.6758 95.6878 16.273 95.6612C15.8165 95.608 15.8165 95.1555 15.7359 94.8361C15.4942 93.798 15.5211 92.7067 15.7628 91.6953C16.0044 90.6838 16.0581 89.9652 14.6618 90.0184C14.3395 90.045 14.0173 89.7789 13.4534 89.5659C13.4534 90.4443 13.4265 91.2162 13.4534 91.9881C13.4802 92.3873 13.5071 92.7866 13.3191 93.1592C13.0774 93.6383 12.7552 94.1706 12.1644 94.144C11.4931 94.0908 11.4931 93.4254 11.3857 92.9196C11.3588 92.7599 11.3588 92.5736 11.332 92.3873C11.1172 90.0983 11.1172 90.1515 8.7541 90.5774C7.92165 90.7104 7.76053 91.1097 7.76053 91.8284C7.76053 92.7067 7.70683 93.5851 7.65312 94.49C7.62627 94.9958 7.43829 95.4216 6.98179 95.7144C6.28361 96.1403 5.80026 96.1403 5.74655 95.1821C5.66599 94.3037 5.50487 93.4254 5.50487 92.547C5.53173 91.7485 5.23634 91.5622 4.56501 91.855C3.92054 92.1478 3.27607 92.4938 2.63159 92.7866C1.63803 93.2391 1.20838 93.2657 -0.107422 92.8132C1.74544 92.201 3.06124 90.9234 4.80669 90.4177C5.3169 90.2846 5.85396 90.0716 5.66599 89.4595C5.42431 88.6343 4.88725 89.2465 4.48446 89.353C4.0011 89.4861 3.51774 89.6191 3.03439 89.5127C2.79271 89.4594 2.52418 89.4595 2.52418 89.0602C2.63159 87.1704 1.96027 85.3604 1.66488 83.5239C1.50376 82.5124 1.07411 81.5276 1.826 80.596C1.96027 80.4097 2.12138 80.25 2.47047 80.3298C2.38991 80.9687 1.98712 81.6873 2.63159 82.2463C3.27607 82.0067 3.94739 81.7938 4.59187 81.501C5.29005 81.2082 6.12249 80.9154 5.98823 79.9572C5.85396 79.0789 4.77984 79.2918 4.4576 79.345C3.51774 79.5313 3.19551 79.1321 2.87327 78.4667C2.84642 78.3868 2.71215 78.3336 2.55103 78.2005C3.65201 77.8811 4.61872 77.402 5.55858 76.9495C6.1762 76.6301 6.68641 76.3905 6.49844 75.6187C6.31047 74.7137 5.61229 75.246 5.10208 75.2992C5.45117 73.9684 6.25676 73.4627 7.492 73.5958C7.92165 73.649 8.48557 73.8087 8.48557 74.1281C8.56612 75.5654 9.53284 75.459 10.5264 75.4856C11.0903 75.4856 11.4394 75.9114 11.52 76.4172C11.6005 76.9229 11.1709 77.2157 10.7412 77.3754C10.2042 77.5883 9.6134 77.6682 9.10319 77.9077C8.40501 78.2537 8.24389 78.9458 8.48557 79.6112C8.78095 80.4097 9.39857 79.8507 9.80137 79.7177C10.7412 79.4249 11.6274 78.9724 12.6478 79.2386C13.8025 79.7975 13.5071 80.7025 13.2117 81.6075C12.8089 82.2995 12.4867 83.0182 12.0302 83.657C11.3588 84.6418 10.9292 85.7597 10.419 86.8244C10.0699 87.5963 10.5801 88.0221 11.0366 88.1818C11.7885 88.448 11.4931 87.6761 11.6005 87.3567C12.1913 85.6 12.7284 83.8433 13.3191 82.0866C13.3728 81.9002 13.5339 81.847 13.7488 81.8736C13.7756 82.1398 13.8293 82.539 14.1516 82.3527C14.796 81.9535 15.7628 81.9535 16.0044 81.0219C16.3535 79.7177 15.9507 79.2652 14.6081 79.345C14.071 79.3983 13.4534 79.1055 12.8089 78.8925ZM13.7756 86.1057C13.7219 86.7445 13.6951 87.2769 13.6682 87.8092C13.6414 88.1286 13.6414 88.4214 13.6682 88.7408C13.6682 88.9271 13.5877 89.1667 13.9099 89.2731C14.3932 89.4062 15.7896 88.4746 16.0313 87.8358C16.3267 87.0107 15.7359 86.9042 15.172 86.6913C14.7155 86.5316 14.3395 86.3453 13.7756 86.1057ZM13.8293 84.4555C13.8562 84.9612 13.6682 85.5734 14.5007 85.6266C15.3062 85.6799 16.273 84.908 16.273 84.1094C16.273 83.7368 16.5683 83.1512 15.8433 83.0714C14.6081 82.9383 13.883 83.444 13.8293 84.4555ZM3.16865 82.6721C3.51774 83.3109 3.86683 83.9231 4.18907 84.5353C4.48446 85.1209 4.94096 84.8281 5.34375 84.7216C5.7734 84.5886 6.20305 84.4022 6.06879 83.8167C5.98823 83.3908 5.93452 82.9649 5.29005 82.9649C4.59187 82.9117 3.92054 82.7786 3.16865 82.6721ZM9.42542 83.1779C10.5801 83.2311 10.5264 82.1398 10.9023 81.501C11.0903 81.1816 10.7949 80.8089 10.4458 80.9953C9.6671 81.3945 8.59298 81.5276 8.3513 82.5124C8.19018 83.2311 8.99577 82.9915 9.42542 83.1779ZM5.88082 86.7978C5.93452 86.2654 5.90767 85.7863 5.18264 85.8129C4.67243 85.8395 4.26963 85.9726 4.4576 86.5848C4.59187 87.0373 4.18907 87.8624 5.10208 87.8624C5.66599 87.8624 5.98823 87.3833 5.88082 86.7978ZM8.45871 86.2388C9.13004 85.9726 9.18375 85.3072 9.42542 84.7483C9.53284 84.5087 9.47913 84.2425 9.2106 84.2692C8.53927 84.349 8.27074 84.8281 8.16333 85.4403C8.08277 85.7863 8.10962 86.0791 8.45871 86.2388Z" fill="#163065"/>
<path d="M105.828 84.6151C104.808 84.9612 103.868 84.2957 102.847 84.4554C103.599 83.8166 104.485 83.5771 105.372 83.444C106.365 83.2843 106.687 82.9383 105.962 81.9535C105.613 82.4858 105.398 83.2311 104.512 82.8584C103.707 82.539 103.546 81.9801 103.546 81.1816C103.546 79.7176 103.465 78.2537 103.358 76.8164C103.331 76.2841 103.223 75.7517 102.686 75.2992C104.056 75.0863 104.673 75.8049 104.915 76.8962C105.264 78.4933 105.533 80.1435 105.989 81.7405C106.097 79.6378 106.392 77.5084 105.372 75.5122C106.446 75.6452 106.849 76.3905 107.01 77.2955C107.359 79.1054 107.654 80.942 107.574 82.885C108.325 82.7253 108.916 82.5656 109.534 82.4592C109.883 82.3793 110.205 82.3527 110.232 81.8736C110.339 80.6758 110.501 79.5047 110.662 78.3335C110.796 77.2156 110.877 76.1776 109.346 75.9646C109.158 75.938 108.916 75.7251 108.889 75.5388C108.621 74.5539 107.842 74.6072 107.198 74.9C106.473 75.2194 105.828 75.1661 105.13 75.0331C104.888 74.9 104.673 74.7935 104.432 74.6604C107.735 72.1584 107.869 72.1318 108.809 73.649C108.916 72.9303 109.024 72.2915 109.077 71.6527C109.104 71.3333 109.104 71.3067 108.487 71.1204C108.164 71.0139 108.272 70.7743 108.299 70.6146C108.352 70.1622 108.567 69.7629 109.104 69.7097C110.178 69.5766 111.252 70.3751 111.602 71.5196C111.736 71.9721 112.595 71.9455 112.434 72.6375C112.488 73.09 112.219 73.303 111.843 73.5425C111.172 73.9151 110.796 74.6072 110.85 75.2992C110.903 75.9114 111.763 75.5122 112.165 75.8316C112.998 76.4704 112.837 75.7251 112.917 75.3258C112.971 74.9798 112.407 74.9 112.541 74.5273C113.213 74.4209 113.669 74.8201 114.26 74.9798C114.448 74.3676 114.609 73.8087 114.421 73.1965C113.132 73.5425 113.132 73.5425 112.649 72.9303C113.454 72.8239 113.777 72.1318 114.26 71.6261C115.012 70.8808 115.791 70.8276 116.65 71.4664C117.106 71.8124 117.268 72.0786 116.972 72.6641C115.791 75.1928 115.656 77.9609 115.066 80.6226C114.824 81.6873 115.603 81.3146 116.113 81.3146C116.113 81.4211 116.14 81.5276 116.14 81.6341C115.603 81.7671 115.092 81.7671 114.77 82.4858C114.475 83.2044 113.777 83.8166 113.24 82.5656C113.025 82.0599 112.622 82.1132 112.38 82.2729C111.279 83.098 109.856 82.8052 108.648 83.3375C106.849 84.1094 106.795 84.0296 107.6 85.9726C108.621 85.4137 109.802 85.041 110.581 84.2691C111.709 83.1246 112.756 83.5771 113.884 84.003C114.099 84.0828 114.233 84.4554 114.529 84.136L114.502 84.1094C114.878 85.387 114.045 86.3985 112.327 86.7711C111.951 86.851 111.306 86.6913 111.494 87.3567C111.655 87.889 111.897 88.5012 112.81 88.1818C114.072 87.7559 115.388 87.3567 116.731 87.8092C117.16 87.9423 117.59 88.102 117.939 88.3149C118.422 88.6343 118.637 89.14 118.449 89.699C118.261 90.2845 117.751 90.3112 117.241 90.2579C116.059 90.1515 114.904 89.6724 113.696 89.8321C112.891 89.9385 112.434 90.0982 112.595 91.1097C112.917 93.1059 112.595 95.0756 112.058 97.0186C111.655 98.5092 110.957 98.9617 109.534 98.4293C108.111 97.897 106.661 98.3761 105.103 98.1632C105.533 97.3646 105.613 96.7258 106.849 96.6992C109.238 96.646 111.091 93.6383 110.554 91.1895C110.393 90.4443 109.964 90.8435 109.641 91.0032C108.03 91.7751 106.473 92.6268 104.835 93.3189C103.385 93.9311 101.854 94.1174 100.538 92.9196L100.511 92.9462C101.559 93.1592 102.525 92.8664 103.438 92.3607C105.425 91.2694 107.574 90.5241 109.614 89.5925C110.098 89.3796 110.447 89.1666 110.205 88.5278C109.964 87.889 109.641 87.9156 109.024 87.889C107.842 87.8358 106.875 88.102 106.016 88.9005C105.721 89.1666 105.318 89.1134 105.103 88.7408C104.7 88.1552 104.271 87.5696 104.781 86.7977C105.184 86.1855 105.936 85.8129 106.177 85.041C106.204 84.9345 106.204 84.8281 106.231 84.7216C106.124 84.5885 105.989 84.6151 105.828 84.6151ZM111.602 84.5087C110.527 84.9345 109.99 86.0258 108.836 86.5848C110.715 86.6646 111.36 86.1323 111.602 84.5087C111.655 84.4821 111.709 84.4821 111.763 84.4554C111.736 84.4288 111.736 84.4022 111.709 84.349C111.682 84.4022 111.628 84.4554 111.602 84.5087ZM113.078 79.5845C111.897 79.7442 112.165 80.6758 111.951 81.3413C111.843 81.6607 111.977 81.847 112.353 81.8204C113.481 81.7671 113.266 80.8355 113.454 80.1701C113.535 79.8507 113.401 79.5845 113.078 79.5845ZM113.857 76.7632C113.454 77.0027 112.837 77.0559 113.025 77.7214C113.052 77.8278 113.32 78.0141 113.428 77.9609C114.018 77.7746 113.911 77.2423 113.857 76.7632Z" fill="#163065"/>
<path d="M91.6229 92.4405C91.059 92.547 90.7905 92.5736 90.5488 92.6268C86.2255 93.7714 82.654 92.7333 79.915 89.1134C79.1363 88.102 78.2232 87.2236 77.3371 86.2388C75.6991 91.4291 73.9536 92.8664 68.8247 93.1326C72.2082 91.1097 74.2758 88.4214 74.6518 84.5619C70.7044 85.2806 70.7044 85.2806 68.3682 83.6836C70.5701 83.7368 72.2887 82.6987 74.0879 81.8204C75.5916 81.0751 74.8398 79.6644 74.8935 78.5199C74.9472 77.5883 74.437 77.1358 73.3091 77.4552C73.7656 76.1244 74.4101 75.1661 75.8333 74.9798C77.0954 74.8201 77.7667 75.5388 77.4982 76.7632C77.4714 76.9229 77.3639 77.1092 77.3639 77.2689C77.3639 78.2271 77.0417 79.5047 77.5251 80.0903C78.1964 80.9154 79.1631 79.8241 79.9955 79.5313C81.4188 79.0256 83.1911 79.5047 83.8355 80.5694C84.3189 81.3679 84.3458 81.9535 83.1642 82.1132C81.8753 82.2729 80.6132 82.5656 79.3511 82.8052C78.8946 82.8851 78.2232 82.8052 78.089 83.3109C77.9547 83.79 78.5186 84.136 78.8409 84.4821C81.016 87.0639 83.8087 88.7408 86.9505 89.9119C88.4811 90.5507 89.8775 91.4823 91.6229 92.4405Z" fill="#163065"/>
<path d="M70.0058 59.9945C67.7233 59.9147 65.7898 61.0592 63.3999 61.7778C64.7426 62.4433 65.8436 62.9756 66.8908 63.5346C67.401 63.8007 67.8575 64.1734 68.3409 64.4928C68.7974 64.7856 68.7437 65.0783 68.4214 65.451C68.0992 65.8236 67.8844 65.9301 67.4547 65.5841C66.1389 64.4928 64.6083 63.8007 63.1045 62.9756C62.2721 62.5231 61.5739 62.5497 60.7415 63.0022C59.2914 63.8007 57.7876 64.4928 56.4987 65.5308C56.0153 65.9301 55.8005 65.8236 55.4246 65.4244C54.9412 64.892 55.3171 64.6791 55.6662 64.3863C57.0357 63.3216 58.6738 62.7361 60.4461 61.8045C58.1099 60.9793 56.1227 59.888 53.8134 59.9679L53.8402 59.9945C53.9208 59.4888 53.4374 59.542 53.1957 59.3557C51.3966 58.0515 50.403 56.2948 50.1076 54.1388C50.0539 53.8194 49.9465 53.3935 50.3225 53.154C50.7521 52.8878 50.9669 53.3137 51.2086 53.5266C52.8467 54.9639 54.3773 56.5077 54.9412 58.7169C55.0486 59.1428 55.2903 59.4089 55.7468 59.4622C55.9348 59.4888 56.0959 59.5154 56.257 59.5953C60.097 61.4318 63.9101 61.1923 67.7501 59.5154C68.2603 59.3025 68.6631 59.196 68.8511 58.5572C69.4419 56.348 71.0531 54.8574 72.6642 53.3935C72.8522 53.2072 73.0402 52.9676 73.3624 53.0741C73.7384 53.2072 73.6846 53.5798 73.6846 53.8726C73.4967 56.1617 72.4226 57.9716 70.5965 59.3557C70.4086 59.5686 69.9521 59.542 70.0058 59.9945Z" fill="#163065"/>
<path d="M36.0635 87.3832C36.6274 85.5467 37.7015 84.0561 38.6145 82.4591C39.259 81.3146 39.9035 80.1434 40.5211 78.9989C40.8165 78.4666 41.0581 77.9076 40.0646 77.7213C41.5147 76.6833 43.636 76.6034 44.9787 77.4019C45.7306 77.8544 46.026 78.3069 45.2472 79.0255C43.0721 81.075 41.4609 83.6569 39.0979 85.5999C38.1849 86.3452 37.1107 86.7444 36.0635 87.3832Z" fill="#163065"/>
<path d="M46.0532 89.699C48.1478 89.912 49.7589 88.6876 51.5313 88.0488C53.3841 87.3834 55.237 87.1172 57.1704 87.1172C58.2177 87.1172 59.3724 88.8207 59.0501 89.8321C58.889 90.3112 58.6473 90.4177 58.1371 90.3112C55.2638 89.7523 52.3637 89.9386 49.5173 90.4709C48.2283 90.7371 47.1005 90.4177 46.0532 89.699Z" fill="#163065"/>
<path d="M64.2057 3.67311C63.1315 3.35371 62.7825 3.80619 62.8899 4.87087C62.9704 5.82908 62.863 6.81391 62.9167 7.77211C62.9704 8.51739 62.7287 8.78356 61.95 8.75694C61.2518 8.73032 60.8759 8.62385 60.9296 7.79873C61.0101 6.92037 60.8759 6.0154 60.9564 5.16366C61.0907 3.91266 60.7416 3.30047 59.399 3.61988C58.3248 3.88604 58.3785 3.22062 58.4054 2.52858C58.4323 1.67684 59.0767 1.99624 59.4795 1.96963C60.3657 1.88978 61.1713 1.86316 60.9564 0.585547C60.849 -0.106493 61.4398 -0.0266419 61.8694 -2.49565e-05C62.2722 -2.49565e-05 62.9436 -0.159726 62.8362 0.532313C62.675 1.73007 63.3195 1.96963 64.2862 1.91639C65.065 1.88978 65.4946 2.04948 65.4409 2.98107C65.4141 4.15221 64.6353 3.46017 64.2057 3.67311Z" fill="#163065"/>
<path d="M40.5752 85.4137C41.7567 86.6647 42.1326 88.1819 42.2669 89.7256C42.4012 91.296 42.1058 92.8398 41.5956 94.357C41.3539 95.1023 41.0317 95.2087 40.4677 94.703C39.7427 94.0376 39.2325 93.2391 39.3936 92.2542C39.7696 90.0184 39.5816 87.7028 40.5752 85.4137Z" fill="#163065"/>
<path d="M79.0821 58.7701C78.7062 58.7168 78.3302 58.7168 77.9811 58.637C77.5515 58.5305 77.0681 58.4507 76.9876 57.8917C76.907 57.3594 77.2829 57.0666 77.6589 56.8537C79.8877 55.6293 82.3045 55.1236 84.8018 55.0171C85.0972 55.0171 85.4731 55.0171 85.6074 55.3631C85.7148 55.6559 85.4463 55.8422 85.2315 56.0019C83.4591 57.5723 81.4452 58.6104 79.0821 58.7701Z" fill="#163065"/>
<path d="M39.6621 55.0704C41.8641 55.2301 43.9855 55.6826 45.9726 56.7207C46.456 56.9602 46.993 57.2264 46.9125 57.8652C46.8051 58.6105 46.1337 58.6637 45.5698 58.6903C42.7771 58.9033 40.5752 57.6256 38.5612 55.8955C38.3732 55.7358 38.2658 55.5495 38.3195 55.31C38.3463 55.097 38.8028 55.0172 39.6621 55.0704Z" fill="#163065"/>
<path d="M84.7216 53.4734C84.2651 53.4201 83.7817 53.5266 83.54 52.9943C83.2984 52.4619 83.7011 52.1691 84.0234 51.8764C85.7688 50.3326 87.7828 49.2147 90.0385 48.6025C90.3876 48.5226 90.8978 48.2831 91.1394 48.6823C91.3811 49.0816 90.9515 49.401 90.7098 49.6938C89.1523 51.69 87.3263 53.2072 84.7216 53.4734Z" fill="#163065"/>
<path d="M69.979 60.0211C72.3958 59.7283 74.8394 59.4621 77.2562 59.9945C77.5516 60.0743 77.847 60.1542 78.1692 60.234C78.4377 60.3139 78.7331 60.3937 78.7063 60.6865C78.6794 60.8462 78.4646 61.0591 78.2766 61.139C75.9673 62.2037 73.5773 62.8159 71.0263 62.0706C69.9522 61.7778 69.3614 61.1656 69.979 60.0211Z" fill="#163065"/>
<path d="M53.867 59.9945C54.5652 61.0858 54.055 61.6979 52.9809 62.044C50.3761 62.8957 47.9594 62.2037 45.5963 61.139C45.3815 61.0325 45.1935 60.8728 45.2203 60.6599C45.274 60.2872 45.65 60.2606 45.9454 60.1808C48.1742 59.5686 50.4567 59.5686 52.7124 59.888C53.1151 59.9678 53.4911 60.1808 53.867 59.9945Z" fill="#163065"/>
<path d="M47.5029 82.0068C49.3826 81.6341 50.9133 80.5961 52.6319 80.0637C54.5921 79.4515 55.7468 80.0105 56.0959 81.6874C56.1496 81.9535 56.257 82.2995 55.8811 82.2729C53.7866 82.2463 51.8531 83.1513 49.7586 83.0714C48.8187 83.0182 48.3354 82.2197 47.5029 82.0068Z" fill="#163065"/>
<path d="M38.7222 53.4733C36.2249 52.9942 34.3183 51.3706 32.8414 49.188C32.4655 48.6024 32.8951 48.5226 33.3516 48.5492C34.2915 48.6291 35.1508 49.0017 36.0101 49.3743C37.299 49.9599 38.5343 50.6786 39.6084 51.6101C40.038 51.9828 40.6557 52.3022 40.3871 52.9942C40.1186 53.6064 39.4741 53.3935 38.7222 53.4733Z" fill="#163065"/>
<path d="M88.7494 47.6442C88.0243 47.6176 87.7558 47.1917 88.078 46.4997C89.2864 44.1308 91.3004 42.5071 93.5292 41.1763C93.7977 41.0166 94.12 40.9634 94.1468 41.4957C94.2005 43.4387 91.005 47.2449 89.0716 47.5644C88.9911 47.591 88.9105 47.6176 88.7494 47.6442Z" fill="#163065"/>
<path d="M34.9629 47.591C34.3184 47.5377 33.7813 47.2183 33.2711 46.8457C31.5257 45.5415 30.4516 43.8114 29.8071 41.7619C29.7534 41.5489 29.646 41.3094 29.8339 41.1497C30.0219 40.99 30.2636 41.0964 30.4516 41.2029C32.5998 42.5338 34.5332 44.0775 35.7148 46.3666C36.1981 47.2183 35.849 47.6974 34.9629 47.591Z" fill="#163065"/>
<path d="M32.7877 39.5261C32.7877 39.8988 32.7877 40.2182 32.4386 40.3779C32.009 40.5908 31.6599 40.3779 31.3376 40.1383C29.5922 38.7276 28.9477 36.758 28.6792 34.6552C28.5986 34.0164 28.1958 32.9518 28.8403 32.7122C29.4848 32.4727 29.8876 33.4841 30.2904 34.0431C31.4988 35.7465 32.4386 37.5299 32.7877 39.5261Z" fill="#163065"/>
<path d="M31.6865 30.7426C31.6865 30.9289 31.7402 31.195 31.7134 31.4612C31.6597 31.8339 31.7134 32.313 31.2569 32.4993C30.7198 32.7122 30.3976 32.313 30.1559 31.9669C28.5716 29.7577 28.5447 27.2824 29.0549 24.7538C29.0818 24.5941 29.216 24.3811 29.3235 24.3545C29.6994 24.3013 29.8605 24.6207 29.9948 24.8868C31.0689 26.6702 31.4986 28.6398 31.6865 30.7426Z" fill="#163065"/>
<path d="M95.1137 26.9629C95.0869 28.9326 94.8183 30.503 93.7979 31.8871C93.5294 32.2597 93.2072 32.659 92.7238 32.5259C92.1867 32.3928 92.2136 31.8604 92.2136 31.4346C92.2405 29.1455 92.7507 26.9896 93.8248 24.9667C93.9859 24.6739 94.1739 24.248 94.5767 24.3545C94.8721 24.4343 94.8989 24.8602 94.9258 25.153C95.0063 25.8716 95.0869 26.5637 95.1137 26.9629Z" fill="#163065"/>
<path d="M95.3018 33.9632C95.1407 36.1458 94.5768 38.1154 93.0461 39.6858C92.6165 40.1117 92.16 40.7239 91.4618 40.3246C90.8442 39.952 91.1396 39.2866 91.2738 38.7543C91.8109 36.8644 92.6971 35.161 93.9054 33.6172C94.2008 33.2179 94.4694 32.4993 95.0333 32.7122C95.5703 32.8985 95.1138 33.5906 95.3018 33.9632Z" fill="#163065"/>
<path d="M79.2702 51.2375C79.1359 53.2604 78.4915 55.0438 76.9608 56.4544C76.5849 56.8005 76.1821 57.253 75.5645 56.8803C75.0274 56.5609 75.1617 56.0818 75.2422 55.5761C75.6182 53.4467 76.8803 51.7965 78.1961 50.1729C78.3572 49.9599 78.5989 49.7204 78.8674 49.9067C79.3239 50.2527 79.1896 50.8117 79.2702 51.2375Z" fill="#163065"/>
<path d="M48.7385 56.0818C48.7653 56.4012 48.631 56.7206 48.282 56.9069C47.906 57.1198 47.5838 56.9335 47.2884 56.7738C45.6772 55.8156 44.254 52.2489 44.7373 50.4124C44.8716 49.9333 45.1401 49.5873 45.5429 50.0397C47.0736 51.7698 48.4162 53.633 48.7385 56.0818Z" fill="#163065"/>
<path d="M87.5413 34.5221C87.6487 33.9898 87.2727 33.1115 87.9172 32.9251C88.5348 32.7388 88.8839 33.5906 89.2062 34.0697C90.1192 35.4271 90.5488 36.9443 90.4145 38.5679C90.3608 39.2333 90.4414 40.1383 89.5284 40.298C88.6691 40.4311 88.5348 39.5527 88.2931 38.9672C87.7292 37.5565 87.5681 36.0659 87.5413 34.5221Z" fill="#163065"/>
<path d="M33.3784 19.5102C33.2442 21.0805 33.2173 22.5179 32.6803 23.8487C32.546 24.1947 32.3849 24.5141 31.9552 24.4875C31.5524 24.4609 31.3644 24.1947 31.2033 23.8487C30.4246 22.1985 31.0691 18.2059 32.3043 16.9017C32.7071 16.4758 32.9219 16.6355 33.0025 17.088C33.1905 17.9398 33.2979 18.8181 33.3784 19.5102Z" fill="#163065"/>
<path d="M36.3859 34.9747C36.3053 36.3321 36.1174 38.009 35.3386 39.5528C35.1507 39.952 34.909 40.3779 34.3719 40.3247C33.808 40.2714 33.7006 39.7657 33.62 39.3398C33.1904 37.1572 33.7543 35.2142 35.1506 33.5107C35.3923 33.2179 35.6609 32.7388 36.0905 32.9252C36.4933 33.0849 36.3859 33.6172 36.4127 34.0164C36.4127 34.2028 36.3859 34.4423 36.3859 34.9747Z" fill="#163065"/>
<path d="M38.6416 44.0243C38.6684 44.9027 38.6416 45.781 38.3193 46.6328C38.1851 46.9788 38.024 47.2716 37.5943 47.3248C37.1647 47.3514 36.9767 47.1119 36.7619 46.7925C35.7146 45.089 35.9831 41.7619 37.2989 40.2713C37.8091 39.6857 37.9971 39.9785 38.1582 40.5109C38.4268 41.6554 38.6684 42.7999 38.6416 44.0243Z" fill="#163065"/>
<path d="M83.9967 48.2831C83.9967 49.8801 83.5402 51.1843 82.6272 52.3288C82.3318 52.7015 82.0095 52.9943 81.4993 52.8079C81.0428 52.6482 81.016 52.2224 80.9891 51.8231C80.9354 49.6405 81.6605 47.6709 82.7077 45.8077C82.9763 45.302 83.2716 45.3286 83.5402 45.8609C83.943 46.6594 84.0235 47.5112 83.9967 48.2831Z" fill="#163065"/>
<path d="M42.9381 51.2642C42.8575 51.8232 43.1261 52.5418 42.4279 52.7814C41.6491 53.0475 41.3269 52.3555 40.9778 51.8764C39.7963 50.1197 39.6352 48.2033 40.2259 46.1804C40.3065 45.9142 40.3871 45.5416 40.7361 45.4617C41.1389 45.3553 41.2195 45.7811 41.3538 46.0207C42.2668 47.6709 42.8307 49.401 42.9381 51.2642Z" fill="#163065"/>
<path d="M85.2583 43.8381C85.2583 42.8533 85.4731 41.6289 85.7954 40.4311C85.9833 39.7391 86.2519 39.8189 86.6547 40.298C87.9436 41.8684 88.1853 44.9826 87.1917 46.6861C87.0038 47.0055 86.8158 47.2983 86.3861 47.2717C85.8759 47.2717 85.7148 46.9256 85.5805 46.5264C85.312 45.7545 85.2583 44.9294 85.2583 43.8381Z" fill="#163065"/>
<path d="M116.166 81.5276C116.166 81.4211 116.14 81.3147 116.14 81.2082C116.703 80.9952 117.294 80.8888 117.831 80.5161C118.637 79.9838 120.893 81.1283 121 82.0865C121.08 82.8318 120.517 83.1778 119.926 83.3642C118.18 83.9763 116.381 84.003 114.555 83.9231L114.582 83.9497C115.065 83.1778 115.898 82.8052 116.542 82.2196C116.73 82.0599 117.079 81.9268 116.918 81.6341C116.811 81.5276 116.408 81.5808 116.166 81.5276Z" fill="#163065"/>
<path d="M90.6025 19.7497C90.6294 18.8713 90.6025 17.993 90.8711 17.1146C91.059 16.5024 91.3544 16.4758 91.6498 16.9815C92.8313 19.031 93.4758 21.187 92.7776 23.5825C92.6434 24.0084 92.4554 24.4609 91.8915 24.4343C91.3276 24.4343 91.247 23.9552 91.0859 23.5293C90.71 22.3049 90.6025 21.0539 90.6025 19.7497Z" fill="#163065"/>
<path d="M36.4665 26.0048C36.2516 28.4535 35.3655 30.503 33.9154 32.2864C33.7006 32.5525 33.3784 32.7921 32.9756 32.659C32.4922 32.4993 32.4654 32.1 32.4385 31.7008C32.3042 29.5714 34.1571 26.8299 36.4665 26.0048Z" fill="#163065"/>
<path d="M91.4615 31.4346C91.4346 31.9935 91.4883 32.4992 90.9513 32.6589C90.4411 32.8186 90.1188 32.4726 89.8234 32.1C88.5882 30.5828 87.9437 28.7995 87.4872 26.9363C87.4335 26.6968 87.2992 26.3774 87.5409 26.191C87.8363 25.9249 88.1585 26.191 88.4002 26.3241C90.3336 27.5485 91.1929 29.3851 91.4615 31.4346Z" fill="#163065"/>
<path d="M36.1712 16.6622C36.037 16.4492 35.9027 16.5291 35.7684 16.6622C35.4999 16.9017 35.3388 17.4074 34.8017 17.0614C34.4258 16.8219 34.2915 16.4759 34.2915 16.05C34.2915 14.2134 34.9628 12.6164 36.1444 11.2057C36.4935 10.7798 36.762 10.2475 37.487 9.95471C37.7018 11.9776 37.1379 13.7875 36.386 15.5709C36.2249 15.9169 35.6073 16.1831 36.1712 16.6622Z" fill="#163065"/>
<path d="M89.7969 25.4192C89.6627 25.3393 89.3941 25.2329 89.2062 25.0732C87.6218 23.9286 86.5746 22.3582 85.7421 20.6281C85.393 19.8829 85.7153 19.7764 86.3597 19.8829C87.9709 20.1757 90.5757 23.0237 90.6562 24.5674C90.6831 25.153 90.4146 25.4458 89.7969 25.4192Z" fill="#163065"/>
<path d="M38.346 20.282C38.1312 20.7345 37.9432 21.187 37.7015 21.6129C36.8959 22.997 35.9292 24.2479 34.5865 25.1795C34.2375 25.4191 33.9152 25.5788 33.4856 25.286C33.1096 25.0198 33.1902 24.6738 33.2976 24.3544C34.0226 22.3581 35.2847 20.841 37.3256 20.0159C37.7015 19.8295 38.158 19.6166 38.346 20.282Z" fill="#163065"/>
<path d="M86.5208 10.0878C88.3736 11.6582 89.6089 13.4947 89.6089 15.9701C89.6089 16.5024 89.5552 17.0082 88.9913 17.1413C88.4273 17.2743 88.2662 16.742 88.0514 16.3694C86.843 14.4529 86.3597 12.3502 86.5208 10.0878Z" fill="#163065"/>
<path d="M80.6934 100.159C82.6536 100.372 83.0833 102.608 84.6945 103.566C84.775 102.448 84.963 101.384 84.4797 100.319C84.8556 100.106 85.2315 100.266 85.6612 100.213C85.0167 101.969 85.5806 103.753 85.2315 105.616C83.9694 104.232 82.7879 102.954 81.6064 101.65C81.499 101.677 81.4184 101.73 81.311 101.756C81.311 102.741 81.311 103.753 81.311 104.738C81.311 105.03 81.4721 105.376 81.0425 105.509C80.8813 105.563 80.6397 105.536 80.5322 105.456C80.2637 105.19 80.6665 105.004 80.6665 104.764C80.7202 103.3 80.6934 101.836 80.6934 100.159Z" fill="#163065"/>
<path d="M22.9059 103.593C23.0938 101.331 23.067 101.064 22.6105 100.08C22.9864 99.8667 23.3624 99.9998 23.7652 99.9998C23.2818 101.836 23.6846 103.646 23.4429 105.669C22.0734 104.179 20.8113 102.821 19.3344 101.224C19.3075 102.848 19.039 104.125 19.6029 105.376C19.2538 105.589 18.8779 105.536 18.502 105.403C18.851 103.62 18.6899 101.863 18.6362 99.9199C20.7308 100.346 21.2678 102.582 22.9059 103.593Z" fill="#163065"/>
<path d="M53.1692 105.589C51.4774 105.589 50.3496 104.525 50.3496 102.901C50.3496 101.304 51.5043 100.08 53.0886 100.026C54.7267 99.9731 55.9619 101.171 56.0156 102.848C56.0156 104.392 54.8072 105.589 53.1692 105.589ZM55.0489 102.901C55.0489 101.57 54.297 100.665 53.1423 100.639C52.0682 100.612 51.2089 101.49 51.1821 102.715C51.1552 104.046 51.9876 105.03 53.196 105.03C54.3507 105.03 55.0489 104.232 55.0489 102.901Z" fill="#163065"/>
<path d="M82.9221 13.9207C84.9629 14.2667 86.6547 15.2515 87.7557 17.1147C87.9436 17.4341 88.051 17.7535 87.7288 18.0729C87.4603 18.3391 87.138 18.2858 86.8695 18.1794C85.0166 17.4341 83.486 16.2896 82.3045 14.6925C82.1702 14.5062 81.9822 14.3465 82.1165 14.107C82.2776 13.8408 82.5999 14.0005 82.9221 13.9207Z" fill="#163065"/>
<path d="M43.7705 4.89746C42.9918 7.3196 41.8371 9.15617 40.0111 10.5935C39.7425 10.8064 39.474 10.9395 39.1786 10.6733C38.9369 10.4604 38.8564 10.1942 38.9369 9.84821C39.2323 8.49074 39.9842 7.42607 41.0046 6.54771C41.7565 5.9089 42.5353 5.32333 43.7705 4.89746Z" fill="#163065"/>
<path d="M36.1443 16.6622C37.2453 15.9169 38.0509 14.799 39.3667 14.3465C40.1454 14.0804 41.1658 13.4948 41.676 14.1868C42.052 14.7192 41.0584 15.4112 40.5482 15.9169C39.7963 16.6888 38.937 17.301 37.9703 17.7801C37.4332 18.0463 36.8693 18.5254 36.2517 18.1794C35.5267 17.7801 36.4128 17.1413 36.1443 16.6622Z" fill="#163065"/>
<path d="M80.3174 5.08386C82.4925 5.9356 84.1574 7.26645 84.8824 9.52889C85.0167 9.98137 85.1241 10.4072 84.6676 10.7266C84.2111 11.0194 83.9157 10.6202 83.6203 10.3806C81.9286 9.02317 80.935 7.1866 80.3174 5.08386Z" fill="#163065"/>
<path d="M6.79393 100.08C6.20316 101.251 6.41799 102.475 6.5254 103.673C6.60596 104.551 7.16987 105.004 8.05603 105.004C8.94218 105.004 9.37183 104.498 9.42553 103.7C9.53294 102.475 9.72092 101.251 9.18386 100.08C9.58665 99.8933 9.96259 99.9465 10.3654 100.053C9.88204 101.118 10.1506 102.209 10.0969 103.274C10.0163 104.897 9.34497 105.616 7.8412 105.616C6.31058 105.589 5.6661 104.897 5.55869 103.3C5.50498 102.315 5.82722 101.277 5.34386 100.293C5.18275 99.9732 5.31701 99.9199 6.79393 100.08Z" fill="#163065"/>
<path d="M47.9328 100.239C48.4162 100.239 48.819 100.239 49.1949 100.239C48.9801 101.943 48.9532 103.646 49.2218 105.403C48.4699 105.589 47.8254 105.696 48.2013 104.445C48.3356 103.992 48.4967 103.167 48.0134 103.007C47.342 102.768 46.2679 102.661 45.8114 103.034C45.1938 103.54 45.516 104.551 45.7846 105.35C45.4355 105.616 45.0327 105.43 44.6299 105.483C44.791 103.699 44.8447 101.996 44.6299 100.213C44.8716 100.106 45.3012 100.186 45.8383 100.239C45.6234 100.931 45.2207 101.863 45.8114 102.236C46.4022 102.608 47.5032 102.661 48.0939 102.209C48.5504 101.836 48.3088 100.958 47.9328 100.239Z" fill="#163065"/>
<path d="M100.592 105.483C100.001 105.483 99.5444 105.483 99.061 105.483C99.3296 103.753 99.3564 102.049 99.0879 100.266C99.4907 100.08 100.055 100.213 100.592 100.239C102.471 100.239 102.928 100.958 102.015 102.555C101.773 102.981 101.961 103.194 102.122 103.487C102.31 103.833 102.525 104.179 102.686 104.525C102.82 104.844 103.196 105.004 103.143 105.43C102.498 105.589 102.149 105.243 101.854 104.764C101.639 104.418 101.451 104.072 101.29 103.726C101.075 103.327 100.86 102.874 100.296 103.087C99.7861 103.274 100.108 103.779 100.028 104.125C99.974 104.631 100.243 105.03 100.592 105.483ZM100.028 102.023C100.001 102.182 100.081 102.502 100.645 102.448C101.156 102.395 101.639 102.315 101.639 101.65C101.639 101.064 101.263 100.825 100.726 100.745C99.8935 100.665 100.162 101.304 100.028 102.023Z" fill="#163065"/>
<path d="M46.3751 8.86335C45.0593 10.6733 43.3138 11.738 41.273 12.2969C40.5748 12.4832 40.1989 11.9509 40.5748 11.2323C41.4341 9.60862 44.3342 8.35763 46.3751 8.86335Z" fill="#163065"/>
<path d="M78.6526 8.59729C80.4249 8.78361 81.8482 9.50227 83.0028 10.7799C83.2982 11.1259 83.7279 11.4985 83.3251 12.0309C82.976 12.51 82.5463 12.2704 82.1167 12.1373C80.6129 11.6316 79.324 10.7799 78.223 9.68858C77.9813 9.44903 77.5785 9.18286 77.7396 8.81023C77.9276 8.41097 78.3841 8.73037 78.6526 8.59729Z" fill="#163065"/>
<path d="M50.645 3.99246C49.3292 5.69594 47.6375 6.86709 45.5429 7.45266C45.2744 7.53251 44.979 7.47928 44.8447 7.23973C44.6299 6.89371 44.7373 6.54769 45.0059 6.28152C46.5096 4.57803 48.3894 3.85938 50.645 3.99246Z" fill="#163065"/>
<path d="M101.182 82.3794C101.37 83.311 101.209 84.2692 102.203 84.7749C102.283 84.8282 102.525 84.8015 102.364 85.0145C101.612 85.9727 101.827 87.2237 101.397 88.2617C101.129 88.9005 100.753 88.8739 100.269 88.5545C99.7592 88.2085 99.3296 87.6762 99.4102 87.1438C99.625 85.4403 100.484 83.9498 101.182 82.3794Z" fill="#163065"/>
<path d="M13.7485 99.9731C14.6078 99.9731 15.4403 99.9731 16.2996 99.9731C16.6755 99.9731 17.0783 99.9998 16.9978 100.505C16.8903 101.198 16.5413 100.692 16.2459 100.639C15.8162 100.559 15.306 100.399 15.0106 100.772C14.7421 101.118 14.7958 101.65 14.9301 102.049C15.0912 102.555 15.6283 102.262 15.9773 102.289C16.219 102.315 16.5413 102.129 16.5681 102.555C16.595 102.848 16.3533 102.928 16.1116 102.874C14.769 102.582 14.6884 103.433 14.9032 104.312C15.1449 105.376 16.0579 104.738 16.6755 104.897C16.9172 104.951 17.2126 104.046 17.3737 104.897C17.4811 105.483 17.0783 105.536 16.6487 105.509C15.682 105.509 14.6884 105.509 13.7485 105.509C14.0708 103.646 14.0708 101.836 13.7485 99.9731Z" fill="#163065"/>
<path d="M72.9331 3.80615C75.4036 3.80615 77.2027 4.55143 78.6797 5.98874C79.0019 6.28153 79.3241 6.68078 79.0825 7.15988C78.7871 7.69222 78.2769 7.45267 77.9009 7.31959C76.0481 6.65416 74.41 5.64272 72.9331 3.80615Z" fill="#163065"/>
<path d="M74.5977 100.239C75.1079 100.239 75.5375 100.239 76.0746 100.239C75.4838 101.384 75.6718 102.582 75.7792 103.779C75.8598 104.658 76.5042 105.084 77.3635 105.004C78.2497 104.951 78.5988 104.392 78.5988 103.566C78.5719 102.502 78.7599 101.384 78.4108 100.239C78.6256 100.08 79.0016 100.239 79.3775 100.239C79.4849 100.346 79.4849 100.426 79.4044 100.559C78.9479 101.49 79.2432 102.475 79.1895 103.433C79.0821 104.924 78.4914 105.589 77.095 105.589C75.7255 105.589 74.9736 104.897 74.8662 103.487C74.7588 102.449 75.0542 101.384 74.5977 100.239Z" fill="#163065"/>
<path d="M35.0972 105.376C35.9028 103.673 36.7084 101.943 37.6214 99.9998C38.4807 101.943 39.2594 103.673 40.0113 105.403C38.9909 105.563 38.964 105.563 38.6686 104.525C38.4538 103.779 37.9973 103.646 37.2723 103.62C36.4667 103.593 36.1444 104.125 36.1713 104.658C36.3056 105.776 35.7685 105.616 35.0972 105.376Z" fill="#163065"/>
<path d="M35.0971 105.376C34.2916 105.137 33.5934 105.643 32.7878 105.616C31.472 105.589 30.4516 105.163 29.9145 103.886C29.4311 102.715 29.7265 101.703 30.5858 100.851C31.3914 100.053 33.3248 99.7602 34.2378 100.213C34.7481 100.452 34.6138 100.825 34.4527 101.277C33.5128 100.505 32.5192 100.426 31.4988 101.011C30.6932 101.517 30.4516 102.315 30.6127 103.194C30.8275 104.498 32.1702 105.483 33.3785 104.897C34.3453 104.471 34.6406 104.871 35.0971 105.376Z" fill="#163065"/>
<path d="M68.6366 101.331C67.1865 100.426 65.8975 100.479 65.1457 101.41C64.4743 102.236 64.5012 103.54 65.2262 104.338C66.005 105.217 67.2133 105.27 68.4754 104.471C68.5829 105.43 68.556 105.456 67.3476 105.563C65.2531 105.749 63.8836 104.817 63.7762 103.114C63.6687 101.41 64.8771 100.106 66.7568 100.106C67.455 100.08 68.7171 99.6537 68.6366 101.331Z" fill="#163065"/>
<path d="M2.87341 105.483C2.3632 105.483 1.93355 105.483 1.47705 105.483C1.66502 103.673 1.69187 101.89 1.4502 99.9731C2.28264 99.9731 3.19565 99.9731 4.1355 99.9731C4.61886 99.9731 4.80683 100.213 4.69942 100.639C4.5383 101.277 4.26977 100.692 4.02809 100.639C3.54474 100.585 3.00767 100.346 2.68544 100.772C2.44376 101.118 2.44376 101.677 2.68544 102.049C2.95397 102.475 3.49103 102.262 3.92068 102.209C4.48459 102.129 4.48459 102.102 4.40403 103.141C3.84012 102.928 3.06138 102.555 2.73914 103.061C2.33635 103.726 2.55117 104.631 2.87341 105.483Z" fill="#163065"/>
<path d="M94.4961 105.509C94.8452 103.726 94.7915 101.996 94.5767 100.213C95.3017 100.213 96.1878 100.213 97.074 100.213C97.3425 100.213 97.6379 100.213 97.5842 100.612C97.5305 100.985 97.2888 100.851 97.0203 100.851C96.5101 100.825 95.7313 100.292 95.5165 101.277C95.2748 102.395 95.785 102.635 97.3157 102.129C97.4499 102.821 97.6379 103.433 96.4832 102.981C96.1073 102.848 95.436 102.741 95.4897 103.566C95.5434 104.152 95.2748 104.897 96.2684 104.924C96.6175 104.924 96.9666 104.871 97.3425 104.871C97.5305 104.871 97.8259 104.179 97.9333 104.924C97.987 105.27 97.8527 105.509 97.4231 105.509C96.4564 105.483 95.4897 105.509 94.4961 105.509Z" fill="#163065"/>
<path d="M91.3543 103.939C91.8376 102.821 92.2941 101.916 92.6432 100.985C92.9118 100.239 92.858 100.239 93.7173 100.239C92.9386 101.969 92.133 103.699 91.22 105.722C90.3607 103.779 89.6088 102.023 88.8301 100.239C89.5014 100.186 90.2264 99.7868 90.2533 101.171C90.2801 102.049 90.8978 102.874 91.3543 103.939Z" fill="#163065"/>
<path d="M104.19 104.471C104.646 104.551 104.807 105.03 105.291 105.03C105.72 105.03 106.07 104.924 106.311 104.525C106.58 104.099 106.419 103.726 106.096 103.46C105.774 103.167 105.371 102.954 104.995 102.715C104.243 102.209 104.082 101.49 104.512 100.745C105.049 99.8667 105.962 99.9997 106.795 100.266C107.224 100.399 107.117 100.825 107.009 101.224C106.714 101.038 106.445 100.825 106.15 100.718C105.801 100.585 105.425 100.665 105.237 101.038C105.049 101.384 105.13 101.73 105.479 101.969C105.935 102.315 106.472 102.582 106.875 102.981C107.358 103.46 107.466 104.072 107.117 104.684C106.633 105.563 105.801 105.643 104.915 105.536C104.324 105.483 103.975 105.217 104.19 104.471Z" fill="#163065"/>
<path d="M21.1333 74.2878C23.5501 73.8353 24.5436 74.341 24.6779 75.9912C24.7316 76.5502 24.9464 77.2422 24.0334 77.4818C23.1473 77.6947 22.8788 76.8164 22.2343 76.6301C22.5834 75.5654 21.4824 75.1395 21.1333 74.2878Z" fill="#163065"/>
<path d="M115.28 100.293C117.294 99.6005 116.569 101.996 117.778 102.289C118.503 101.863 118.449 100.878 118.986 100.213C119.093 100.08 119.523 100.186 119.899 100.186C118.932 101.89 117.214 103.194 118.288 105.43C117.778 105.43 117.348 105.43 116.918 105.43C117.429 103.806 117.402 103.646 115.28 100.293Z" fill="#163065"/>
<path d="M41.0316 105.43C41.4881 103.966 41.3001 102.555 41.2464 101.144C41.2196 100.426 40.4945 100.825 40.0917 100.772C39.9038 100.745 39.6621 101.251 39.5278 100.718C39.4473 100.452 39.5547 100.186 39.9038 100.186C41.1122 100.186 42.2937 100.186 43.5021 100.186C43.8512 100.186 43.9586 100.399 43.9049 100.718C43.8512 101.091 43.6364 100.905 43.4215 100.851C42.2937 100.452 41.9983 100.985 42.1326 101.996C42.2668 103.114 41.8372 104.285 42.4817 105.35C42.0252 105.616 41.5687 105.509 41.0316 105.43Z" fill="#163065"/>
<path d="M57.0093 100.239C57.4121 100.239 57.8686 100.239 58.4056 100.239C57.9223 101.597 58.0028 102.981 58.1908 104.285C58.3519 105.456 59.3723 104.791 60.0437 104.817C60.2316 104.817 60.527 104.205 60.6344 104.897C60.6881 105.243 60.5807 105.509 60.1511 105.483C59.1307 105.483 58.1103 105.483 57.0361 105.483C57.2778 103.753 57.2778 102.049 57.0093 100.239Z" fill="#163065"/>
<path d="M113.347 105.403C112.863 105.563 112.434 105.536 112.004 105.43C112.3 104.072 112.112 102.741 112.165 101.384C112.219 100.426 111.521 100.825 111.064 100.772C110.876 100.745 110.608 101.251 110.5 100.718C110.447 100.426 110.527 100.213 110.903 100.213C112.112 100.213 113.293 100.213 114.501 100.239C114.904 100.239 114.877 100.559 114.824 100.825C114.743 101.251 114.528 100.931 114.367 100.878C113.347 100.585 112.863 100.851 113.025 101.996C113.132 103.087 112.729 104.285 113.347 105.403Z" fill="#163065"/>
<path d="M11.5469 99.9731C11.7617 99.9731 12.1913 99.9731 12.8358 99.9731C11.7348 102.236 13.5608 105.004 11.3857 106.973C11.8154 104.684 11.4394 102.395 11.5469 99.9731Z" fill="#163065"/>
<path d="M86.7891 100.239C87.1919 100.159 87.6752 100.133 88.078 100.266C87.7558 102.023 87.8363 103.726 88.0512 105.483C87.6752 105.483 87.2456 105.483 86.7622 105.483C87.0844 103.753 87.0576 102.049 86.7891 100.239Z" fill="#163065"/>
<path d="M108.513 100.266C108.916 100.133 109.372 100.159 109.856 100.266C109.48 101.996 109.614 103.699 109.775 105.483C109.426 105.616 108.97 105.589 108.486 105.456C108.835 103.726 108.809 102.023 108.513 100.266Z" fill="#163065"/>
<path d="M62.7826 105.456C62.3261 105.509 61.8964 105.589 61.4668 105.403C61.8159 103.699 61.789 101.996 61.4937 100.239C61.8696 100.239 62.2992 100.239 62.7289 100.239C62.3261 101.969 62.3261 103.673 62.7826 105.456Z" fill="#163065"/>
<path d="M100.592 92.7599C100.538 92.7333 100.484 92.6801 100.431 92.6535C100.484 92.6268 100.538 92.6268 100.592 92.6002C100.592 92.6535 100.592 92.7067 100.592 92.7599Z" fill="#163065"/>
<path d="M80.3444 26.6967C80.3444 24.035 80.3712 21.8258 80.3444 19.59C80.2907 15.9169 77.3637 13.3617 73.6848 13.8141C70.1402 14.2666 66.9178 13.4947 63.9909 11.5251C62.5139 10.5403 61.2518 10.5935 59.8018 11.5517C57.0359 13.4149 53.9747 14.2134 50.6449 13.8408C46.3484 13.3617 43.5288 15.7572 43.5288 20.0159C43.5288 24.0084 43.5288 28.001 43.5288 31.9935C43.5288 41.7353 50.1347 50.3858 59.5869 52.9942C60.7685 53.3136 61.95 53.5798 63.1584 53.2604C71.6977 51.0246 77.2294 45.7544 79.6462 37.3169C80.6935 33.697 80.237 29.944 80.3444 26.6967ZM48.3355 28.2405C49.6245 27.442 50.5375 26.9895 51.3968 28.1074C50.6449 28.1873 51.4773 29.4383 50.0541 29.4915C48.4966 29.5447 49.7587 27.9211 48.3355 28.2405ZM50.2958 35.6666C48.8457 36.5716 49.6245 34.5753 48.8726 34.4156C49.4633 34.1761 49.9198 33.7768 50.2958 33.2977C50.4301 33.9898 51.2893 33.9365 51.531 34.5221C50.7523 34.5221 51.719 36.1723 50.2958 35.6666ZM53.2228 21.6395C54.27 22.1719 54.6728 22.997 54.0552 23.9818C53.8941 24.248 52.632 24.2746 52.4709 24.0084C51.7996 23.0236 52.3635 22.1985 53.2228 21.6395ZM54.0821 41.0965C53.1691 41.2562 52.4172 40.8835 52.3903 39.5793C52.632 39.3398 53.2765 39.2067 53.5182 38.6743C53.9747 39.0204 54.458 39.3664 54.9145 39.7124C54.27 39.9786 54.7265 40.99 54.0821 41.0965ZM56.1766 28.134C56.8479 28.0808 56.9016 28.4534 56.8748 28.9592C56.8748 30.2368 56.8479 31.541 56.8748 32.8186C56.8748 33.484 56.9016 34.0962 55.9349 33.9631C55.7738 33.9365 55.559 33.9898 55.559 34.2293C55.559 34.5221 55.7738 34.5753 56.0155 34.602C56.3914 34.6286 56.8479 34.5221 56.8748 35.1609C56.8748 35.7731 56.4451 35.7731 56.0423 35.7199C55.6127 35.6666 55.5321 36.8112 54.7534 35.8529C54.1089 35.0544 53.8672 35.2408 54.8071 34.5221C54.8877 34.4689 54.9682 34.3092 54.9414 34.2027C54.9414 33.9631 54.7265 33.9365 54.5654 33.9631C53.7061 34.043 53.7867 33.4574 53.7867 32.9251C53.7867 31.7273 53.7867 30.5296 53.7867 29.3318C53.7867 28.7196 53.6524 28.0276 54.6728 28.1074C54.8608 28.134 55.0219 27.9743 54.9682 27.7614C54.9414 27.6549 54.8071 27.5219 54.7265 27.5219C54.2432 27.442 53.5987 27.442 53.8404 26.7233C54.0552 26.0579 54.9951 26.4572 55.3442 25.9248C55.5858 26.6435 56.7137 25.9781 56.8748 26.8564C56.9016 27.3622 56.6063 27.4952 56.2035 27.4952C55.9349 27.4952 55.6127 27.4686 55.5858 27.8146C55.5858 28.1873 55.9618 28.134 56.1766 28.134ZM58.486 18.3124C59.6675 18.898 59.8286 19.7763 59.4258 20.8144C58.0832 21.1072 57.4656 20.4418 57.2776 19.1908C57.8415 19.1375 58.298 18.8714 58.486 18.3124ZM59.3184 44.1042C57.5998 44.9293 58.298 43.0927 57.6535 42.8798C57.9489 42.3741 58.6739 42.3741 58.8888 41.8151C59.3453 42.1612 59.8018 42.5072 60.2314 42.8532C59.6407 43.0395 60.124 44.2373 59.3184 44.1042ZM60.2583 36.3587C59.9092 36.1457 60.124 35.7997 60.0435 35.5335C59.8823 35.0012 60.4463 34.0164 59.6138 34.043C58.8888 34.0696 59.4258 35.0544 59.2647 35.6134C59.1842 35.8796 59.399 36.2256 58.9962 36.5184C58.5665 35.9594 58.8351 35.3472 58.7545 34.7883C58.7008 34.4955 58.9425 33.9631 58.3517 33.9898C57.8146 34.0164 58.0026 34.5221 57.9758 34.8415C57.9489 35.3472 57.9758 35.8796 57.9758 36.4119C57.2239 36.3054 57.4119 35.8529 57.4119 35.5602C57.385 33.484 57.4119 31.3813 57.385 29.3052C57.385 28.6131 57.385 28.0276 58.3249 28.1607C58.5128 28.1873 58.6739 28.1074 58.7008 27.8945C58.7277 27.6017 58.486 27.5485 58.2712 27.5219C57.8952 27.4686 57.4119 27.6283 57.4119 26.9895C57.385 26.2709 58.1369 26.5903 58.3249 26.3507C58.9693 25.5788 59.9092 26.9895 60.4463 25.845C60.4731 26.6169 61.0907 27.5219 59.6944 27.5219C59.5064 27.5219 59.3184 27.5751 59.2916 27.788C59.2647 28.0808 59.4527 28.1873 59.6944 28.1607C60.5805 28.0542 60.5805 28.6131 60.5805 29.2253C60.5537 31.3015 60.5805 33.4042 60.5537 35.4803C60.5537 35.7465 60.7416 36.1724 60.2583 36.3587ZM78.5452 35.8796C77.31 43.492 70.8115 50.0398 63.2121 51.7432C62.2991 51.9562 61.95 51.7965 61.95 50.7584C62.0037 44.5034 61.9769 38.2751 61.9769 32.0201C61.95 32.0201 61.95 32.0201 61.9232 32.0201C61.9232 25.8716 61.9232 19.6965 61.9232 13.548C61.9232 12.2704 62.1648 12.0574 63.2121 12.8027C66.3271 14.9587 69.7374 15.5975 73.4969 15.1716C76.5044 14.8256 78.8675 16.6888 78.948 19.7231C79.1629 25.0997 79.4045 30.5296 78.5452 35.8796Z" fill="#163065"/>
<path d="M111.602 84.5087C111.628 84.4555 111.682 84.4022 111.709 84.349C111.736 84.3756 111.736 84.4022 111.763 84.4555C111.709 84.4821 111.655 84.4821 111.602 84.5087Z" fill="#163065"/>
<path d="M107.117 76.4437C109.533 77.0293 110.124 77.9076 109.748 79.9305C109.668 80.3564 109.614 80.8887 109.077 80.942C108.486 81.0218 108.271 80.5161 108.03 80.0902C107.788 79.6378 107.815 79.1586 107.869 78.6529C108.003 77.9343 107.895 77.2156 107.117 76.4437Z" fill="#163065"/>
<path d="M64.1253 33.0848C64.1253 32.3661 64.1253 31.6741 64.1253 30.9554C64.1253 30.4763 64.2864 29.9972 63.4271 29.8641C62.7826 29.7577 62.8632 28.8527 63.3197 28.693C64.4744 28.3204 64.6892 27.6017 64.6086 26.5636C64.5818 26.2709 64.4475 25.7651 65.0114 25.7651C65.5753 25.7651 65.4411 26.2975 65.3874 26.5636C64.7697 29.6246 64.9309 32.7121 64.904 35.7731C64.904 36.0393 64.9309 36.3321 64.5549 36.3587C64.0984 36.3853 64.0984 36.0393 64.0984 35.7199C64.1253 34.8415 64.1253 33.9631 64.1253 33.0848Z" fill="#163065"/>
<path d="M68.1531 27.6283C67.6698 27.6283 67.1596 27.6017 66.6762 27.6283C66.2197 27.6549 66.0317 27.442 66.0317 26.9895C66.0317 26.5636 66.166 26.3241 66.6494 26.3241C67.7235 26.3241 68.7976 26.3241 69.8717 26.3241C70.3282 26.3241 70.4894 26.537 70.4894 26.9629C70.4894 27.3888 70.3551 27.6283 69.8986 27.6283C69.3347 27.6283 68.7439 27.6283 68.1531 27.6283Z" fill="#163065"/>
<path d="M68.2605 36.0926C67.7235 36.0926 67.1864 36.0659 66.6762 36.0926C66.2197 36.1192 66.0586 35.9062 66.0586 35.4538C66.0854 35.0545 66.1392 34.7617 66.6225 34.7617C67.7235 34.7617 68.8245 34.7617 69.9523 34.7617C70.4625 34.7617 70.4625 35.1077 70.4894 35.4804C70.5162 35.9595 70.2745 36.0926 69.8449 36.0659C69.3347 36.0926 68.7976 36.0926 68.2605 36.0926Z" fill="#163065"/>
<path d="M71.8318 41.1497C71.0799 40.7238 70.4891 40.5907 69.8715 41.0965C69.7104 40.431 70.0595 39.6591 69.1465 39.4196C70.2475 38.488 71.2142 38.2484 72.2077 39.3131C71.8855 39.7656 71.4558 40.2713 71.8318 41.1497Z" fill="#163065"/>
<path d="M65.4143 41.4159C65.7365 42.1878 66.3541 42.3209 67.1866 42.5072C66.4347 42.9597 66.193 43.492 66.4078 44.2107C65.8976 43.492 64.9846 44.7164 64.3401 43.3323C63.6151 41.7619 65.6828 42.4007 65.4143 41.4159Z" fill="#163065"/>
<path d="M74.7858 35.4537C73.4968 35.3738 72.3421 35.3472 72.3958 33.7236C73.2014 32.9251 74.2219 32.7388 75.2423 33.9099C74.7589 34.2559 74.5172 34.7616 74.7858 35.4537Z" fill="#163065"/>
<path d="M66.569 19.1641C65.9783 19.6964 65.5755 20.1489 66.0051 20.974C65.2264 20.8143 64.6356 20.5482 63.9106 21.0805C64.018 20.282 64.0448 19.6698 63.0513 19.2439C64.0717 19.1109 64.6356 18.8979 64.9041 17.8599C65.1995 18.8447 65.7366 19.1375 66.569 19.1641Z" fill="#163065"/>
<path d="M75.2692 27.3888C74.6248 27.9744 74.4099 28.5067 74.5979 29.3052C73.8997 28.906 73.3358 28.8527 72.6376 29.3318C72.7987 28.5067 72.6108 27.9744 71.8857 27.442C72.8256 27.3888 73.309 27.0162 73.5775 26.2443C73.9266 26.9629 74.3025 27.442 75.2692 27.3888Z" fill="#163065"/>
<path d="M68.7705 22.4913C69.6298 22.2517 70.1132 21.8791 70.4085 21.0806C70.7576 21.7992 71.2141 22.2517 71.9929 22.3848C70.9993 22.438 71.9392 23.8487 70.3548 23.9818C68.4483 24.1149 70.328 21.9855 68.7705 22.4913Z" fill="#163065"/>
<path d="M59.4529 32.8186C59.1307 32.7654 59.2649 32.4193 59.2381 32.1266C59.2112 31.7805 59.2918 31.5144 59.7214 31.5942C60.178 31.6741 59.99 32.0733 60.0168 32.3395C60.0705 32.6057 59.99 32.8718 59.4529 32.8186Z" fill="#163065"/>
<path d="M58.4862 31.5676C58.8622 31.5942 58.7547 31.9669 58.7547 32.233C58.7547 32.4726 58.7816 32.792 58.4056 32.792C57.8686 32.792 57.976 32.3661 57.9491 32.0467C57.9223 31.7806 58.0297 31.5676 58.4862 31.5676Z" fill="#163065"/>
<path d="M60.0436 29.8375C60.0436 30.2102 60.0705 30.5296 59.5871 30.4763C59.1843 30.4231 59.2649 30.1303 59.2649 29.8908C59.2649 29.598 59.1843 29.2253 59.6677 29.2253C60.1242 29.2253 60.0168 29.6246 60.0436 29.8375Z" fill="#163065"/>
<path d="M58.4861 29.2253C58.8889 29.385 58.7277 29.7843 58.7546 30.077C58.7815 30.3166 58.6472 30.5029 58.3787 30.4763C57.8416 30.4231 57.9759 29.9972 57.9759 29.6778C57.949 29.385 58.0833 29.1987 58.4861 29.2253Z" fill="#163065"/>
<path d="M54.6728 32.8452C54.2432 32.8186 54.2432 32.4726 54.2432 32.1798C54.2432 31.8604 54.2432 31.541 54.6997 31.5676C55.1562 31.5676 55.1293 31.9136 55.1293 32.2064C55.1025 32.4992 55.1025 32.8186 54.6728 32.8452Z" fill="#163065"/>
<path d="M54.6727 29.2253C55.1024 29.2253 55.1292 29.5447 55.1292 29.8375C55.1292 30.1303 55.1829 30.4763 54.7264 30.503C54.2968 30.5296 54.2431 30.2368 54.2699 29.9174C54.2699 29.598 54.2162 29.2786 54.6727 29.2253Z" fill="#163065"/>
<path d="M56.3377 32.1532C56.3108 32.446 56.3914 32.8452 55.9349 32.8186C55.5052 32.792 55.5321 32.446 55.5321 32.1532C55.5321 31.887 55.5321 31.6209 55.8812 31.5676C56.3914 31.5144 56.3108 31.887 56.3377 32.1532Z" fill="#163065"/>
<path d="M56.3378 29.8376C56.311 30.1304 56.4184 30.503 55.9082 30.4764C55.5591 30.4498 55.5054 30.2102 55.5054 29.9441C55.5322 29.6513 55.4248 29.2786 55.8813 29.2254C56.3915 29.1722 56.311 29.5714 56.3378 29.8376Z" fill="#163065"/>
</g>
<defs>
<clipPath id="clip0_41_1073">
<rect width="121" height="107" fill="white"/>
</clipPath>
</defs>
</svg>
