<svg width="28" height="29" viewBox="0 0 28 29" fill="none" xmlns="http://www.w3.org/2000/svg">
<path d="M13.8854 27.7708C21.0018 27.7708 26.7708 22.0018 26.7708 14.8854C26.7708 7.76899 21.0018 2 13.8854 2C6.76899 2 1 7.76899 1 14.8854C1 22.0018 6.76899 27.7708 13.8854 27.7708Z" stroke="black" stroke-width="2"/>
<path d="M14.9477 12.1778C16.0246 11.3635 17.208 11.2512 18.4307 11.4815C19.8161 11.7398 20.5677 12.6664 20.8145 14.0029C20.9322 14.6318 20.9771 15.2832 20.9883 15.9234C21.0108 17.4733 20.9939 19.0231 20.9939 20.573C20.9939 20.9493 20.9491 20.9998 20.5789 20.9998C19.7488 20.9998 18.9187 20.9998 18.0886 20.9998C17.7577 20.9998 17.7016 20.938 17.7016 20.6067C17.696 19.0288 17.7016 17.4508 17.6904 15.8728C17.6904 15.5696 17.6455 15.2607 17.5726 14.9631C17.4772 14.5813 17.2248 14.3398 16.8266 14.2556C15.7553 14.0365 15.1047 14.5925 15.0711 15.7998C15.043 16.7208 15.0598 17.6473 15.0598 18.5739C15.0598 19.2646 15.0542 19.9553 15.0598 20.646C15.0598 20.8931 14.9645 21.0054 14.7121 21.0054C13.854 20.9998 12.9958 21.0054 12.1377 21.0054C11.8292 21.0054 11.7619 20.938 11.7619 20.6236C11.7619 19.4275 11.7619 18.2314 11.7619 17.0409C11.7619 15.3337 11.7619 13.6266 11.7619 11.9139C11.7619 11.5601 11.8124 11.5096 12.1657 11.5096C12.9397 11.5096 13.7137 11.5096 14.4877 11.5096C14.9196 11.5096 14.9364 11.532 14.9421 11.9756C14.9477 12.0206 14.9477 12.0767 14.9477 12.1778Z" fill="black"/>
<path d="M7.21874 16.2322C7.21874 14.7834 7.21874 13.3402 7.21874 11.8914C7.21874 11.5432 7.258 11.4983 7.60013 11.4983C8.44145 11.4983 9.27716 11.4983 10.1185 11.4983C10.4606 11.4983 10.4999 11.5432 10.4999 11.9195C10.4999 14.3622 10.4999 16.8106 10.4999 19.2534C10.4999 19.7082 10.4943 20.1687 10.4999 20.6236C10.5055 20.8819 10.4101 20.9998 10.1409 20.9942C9.28277 20.983 8.42463 20.9886 7.56648 20.9942C7.29726 20.9942 7.21313 20.8763 7.21313 20.618C7.22434 19.1579 7.21874 17.6979 7.21874 16.2322Z" fill="black"/>
<path d="M8.86773 10.7344C7.82449 10.7344 7.00561 9.92011 7 8.88123C7 7.84797 7.82449 7.00564 8.8509 7.00003C9.8717 6.99441 10.713 7.83113 10.7242 8.86439C10.7298 9.89765 9.90535 10.7287 8.86773 10.7344Z" fill="black"/>
</svg>
