<svg width="31" height="31" viewBox="0 0 31 31" fill="none" xmlns="http://www.w3.org/2000/svg">
<path d="M25.3542 4.22916H5.64587C3.43673 4.22916 1.64587 6.02002 1.64587 8.22916V22.7709C1.64587 24.98 3.43673 26.7709 5.64587 26.7709H25.3542C27.5633 26.7709 29.3542 24.98 29.3542 22.7709V8.22916C29.3542 6.02002 27.5633 4.22916 25.3542 4.22916Z" stroke="black" stroke-width="2"/>
<path d="M6 21.4406C6 17.4771 6 13.5433 6 9.58576C6.08315 9.57979 6.16036 9.56786 6.23164 9.56786C8.01938 9.56189 9.80713 9.55592 11.5949 9.56786C12.2957 9.57382 12.9847 9.66336 13.638 9.95585C14.9269 10.5408 15.3901 11.8063 15.2654 13.036C15.1704 13.9672 14.719 14.6476 13.84 15.0655C14.6655 15.3938 15.2357 15.9191 15.4911 16.7428C16.1325 18.8321 14.915 21.172 12.5511 21.3272C10.6446 21.4525 8.72617 21.4048 6.80775 21.4346C6.54048 21.4466 6.27915 21.4406 6 21.4406ZM8.72617 19.3753C9.69428 19.3753 10.6446 19.417 11.5889 19.3633C12.5333 19.3096 12.9787 18.9455 13.1272 18.1695C13.3054 17.2263 13.05 16.4384 11.8978 16.2772C11.6424 16.2414 11.387 16.2295 11.1316 16.2235C10.3357 16.2176 9.53986 16.2235 8.72617 16.2235C8.72617 17.286 8.72617 18.3127 8.72617 19.3753ZM8.72617 14.2537C9.65865 14.2537 10.5674 14.2716 11.4702 14.2417C11.7731 14.2298 12.0878 14.1283 12.3729 13.997C12.8303 13.7881 13.0144 13.2867 12.9253 12.642C12.86 12.1764 12.5808 11.8421 12.0938 11.7645C11.5889 11.6869 11.0782 11.6571 10.5674 11.6392C9.96155 11.6213 9.3498 11.6332 8.73211 11.6332C8.72617 12.5226 8.72617 13.3702 8.72617 14.2537Z" fill="black"/>
<path d="M18.8052 17.4413C18.829 19.0947 20.3495 20.0618 21.7809 19.3753C22.0481 19.244 22.2441 18.9694 22.4817 18.7605C22.5589 18.6948 22.648 18.6053 22.7312 18.6053C23.4201 18.5933 24.1091 18.5993 24.8278 18.5993C24.7565 19.1843 24.4595 19.626 24.1032 20.0319C23.3073 20.9333 22.2857 21.3093 21.1097 21.3571C20.1178 21.3989 19.1972 21.1959 18.3479 20.6706C17.5342 20.1692 16.9937 19.4768 16.768 18.5396C16.477 17.3219 16.4651 16.0982 16.8868 14.9103C17.4095 13.4538 18.4786 12.648 19.9812 12.4092C20.7415 12.2839 21.4958 12.3257 22.2323 12.5525C23.6933 13.0002 24.5189 14.0508 24.8218 15.5132C24.9465 16.128 24.9406 16.7727 25 17.4413C22.9034 17.4413 20.8662 17.4413 18.8052 17.4413ZM22.6361 15.9788C22.654 15.0357 21.9293 14.2776 21.0206 14.194C19.5477 14.0627 18.9656 15.0237 18.8706 15.9788C20.1238 15.9788 21.371 15.9788 22.6361 15.9788Z" fill="black"/>
<path d="M23.0935 11.2452C21.5255 11.2452 19.9634 11.2452 18.3836 11.2452C18.3836 10.8572 18.3836 10.4871 18.3836 10.0932C19.9516 10.0932 21.5077 10.0932 23.0935 10.0932C23.0935 10.4692 23.0935 10.8453 23.0935 11.2452Z" fill="black"/>
</svg>
