<svg width="14" height="12" viewBox="0 0 14 12" fill="none" xmlns="http://www.w3.org/2000/svg">
<path fill-rule="evenodd" clip-rule="evenodd" d="M3.72973 0C2.68218 0 1.73491 0.261814 1.04735 0.900259C0.353267 1.54477 0 2.50187 0 3.72973V8.27027C0 9.49816 0.353267 10.4552 1.04735 11.0997C1.73491 11.7382 2.68218 12 3.72973 12H10.2162C11.2638 12 12.2111 11.7382 12.8986 11.0997C13.5927 10.4552 13.9459 9.49816 13.9459 8.27027V3.72973C13.9459 2.50187 13.5927 1.54477 12.8986 0.900259C12.2111 0.261814 11.2638 0 10.2162 0H3.72973ZM11.6617 3.64041C11.8743 3.47613 11.9135 3.17061 11.7492 2.95801C11.5849 2.7454 11.2794 2.70623 11.0668 2.87051L7.46867 5.65077C7.17671 5.87643 6.76917 5.87643 6.47715 5.65077L2.87909 2.87051C2.66648 2.70623 2.36096 2.7454 2.19668 2.95801C2.0324 3.17061 2.07157 3.47613 2.28418 3.64041L5.88227 6.42071C6.52469 6.91706 7.42119 6.91706 8.06361 6.42071L11.6617 3.64041Z" fill="#333333"/>
</svg>
