<svg width="250" height="250" viewBox="0 0 250 250" fill="none" xmlns="http://www.w3.org/2000/svg">
<g filter="url(#filter0_d_41_917)">
<circle cx="125" cy="122" r="119.5" stroke="black" stroke-width="3" shape-rendering="crispEdges"/>
</g>
<mask id="mask0_41_917" style="mask-type:luminance" maskUnits="userSpaceOnUse" x="10" y="12" width="232" height="231">
<path d="M125.764 242.875C189.698 242.875 241.527 191.192 241.527 127.437C241.527 63.683 189.698 12 125.764 12C61.8291 12 10 63.683 10 127.437C10 191.192 61.8291 242.875 125.764 242.875Z" fill="white"/>
</mask>
<g mask="url(#mask0_41_917)">
<path d="M40.0986 117.394C39.404 117.394 38.8021 116.863 38.7095 116.171C38.6863 116.055 37.2972 103.403 39.1262 87.8423C40.2144 78.6766 42.1824 70.2959 45.007 62.931C48.5494 53.6498 53.4346 45.9617 59.5237 40.0744C68.7617 31.1395 78.6247 25.5062 90.5715 22.3201C104.232 18.6723 120.439 18.3952 140.188 21.4659C150.977 23.1513 160.516 28.0689 168.573 36.0802C174.963 42.4524 180.427 50.7869 184.803 60.83C192.212 77.8685 193.972 94.2606 193.972 94.4222C194.041 95.1841 193.485 95.8537 192.721 95.946C191.957 96.0153 191.286 95.4612 191.193 94.6993C191.17 94.5377 189.457 78.515 182.21 61.8458C177.973 52.126 172.717 44.0916 166.582 37.9734C158.965 30.4007 149.935 25.7371 139.748 24.1671C120.392 21.1657 104.533 21.3966 91.3124 24.929C79.8287 27.9765 70.3592 33.4021 61.4686 41.9906C55.6804 47.6009 51.0036 54.9427 47.6233 63.8083C44.8912 70.9654 42.9696 79.1153 41.9045 88.027C40.0986 103.288 41.4646 115.663 41.4878 115.778C41.5804 116.54 41.0247 117.233 40.2607 117.302C40.2144 117.394 40.1681 117.394 40.0986 117.394Z" fill="black"/>
<path d="M47.5306 157.959C44.5207 157.959 41.8119 157.243 39.4271 155.812C35.1207 153.203 32.0414 148.378 30.3281 141.428C28.6148 134.502 28.8232 127.737 29.0084 125.152C29.2168 122.104 30.4902 119.772 32.8054 118.225C35.9774 116.101 40.9552 115.547 47.6463 116.563C52.4853 117.302 56.3981 118.595 56.5601 118.641C57.2779 118.872 57.6715 119.657 57.4399 120.396C57.2084 121.111 56.3981 121.504 55.6803 121.273C55.634 121.25 51.7907 120.003 47.1833 119.31C41.3025 118.433 36.8572 118.849 34.3335 120.557C32.736 121.619 31.9025 123.189 31.7636 125.382C31.6015 127.853 31.3931 134.271 33.0138 140.805C34.5419 146.992 37.1813 151.264 40.8394 153.48C46.3961 156.828 54.3606 155.373 64.5478 149.186C65.1961 148.793 66.0527 149.001 66.4463 149.647C66.8399 150.294 66.6316 151.148 65.9833 151.541C58.9449 155.789 52.7631 157.959 47.5306 157.959Z" fill="black"/>
<path d="M59.3616 114.254C58.6439 114.254 58.0419 113.7 57.9725 112.985C57.903 112.223 58.4818 111.553 59.2459 111.484C63.0197 111.161 67.3262 106.104 71.401 97.2158C74.6424 90.128 76.6335 83.0863 76.6567 83.017C76.8651 82.2782 77.6291 81.8396 78.37 82.0474C79.1109 82.2551 79.5508 83.017 79.3424 83.7558C79.2498 84.056 77.2818 91.0976 73.9478 98.3702C69.3173 108.506 64.4552 113.839 59.5005 114.254C59.4542 114.254 59.4079 114.254 59.3616 114.254Z" fill="black"/>
<path d="M115.669 96.3616C110.136 96.3616 105.181 95.6459 100.828 94.1914C95.7808 92.506 91.5439 89.874 88.233 86.3417C82.6069 80.2927 81.704 73.8052 81.6577 73.5281C81.5651 72.7662 82.0976 72.0736 82.8616 71.9813C83.6257 71.8889 84.3202 72.4199 84.4128 73.1818C84.4128 73.2511 85.2695 79.1845 90.3631 84.587C93.3498 87.75 97.1931 90.1049 101.801 91.6287C107.635 93.5449 114.697 94.0759 122.823 93.2217C123.587 93.1525 124.259 93.6835 124.351 94.4454C124.421 95.2072 123.888 95.8768 123.124 95.9691C120.531 96.2231 118.031 96.3616 115.669 96.3616Z" fill="black"/>
<path d="M155.029 95.0918C146.509 95.0918 139.146 93.8681 133.103 91.4439C127.94 89.3661 123.726 86.434 120.554 82.7169C115.137 76.3217 114.766 69.8572 114.766 69.5801C114.72 68.8182 115.322 68.1718 116.086 68.1256C116.109 68.1256 116.132 68.1256 116.155 68.1256C116.896 68.1256 117.498 68.7028 117.545 69.4416C117.545 69.5109 117.915 75.3751 122.8 81.0546C125.671 84.4023 129.538 87.0573 134.261 88.9274C140.257 91.3054 147.689 92.4367 156.348 92.2982H156.372C157.136 92.2982 157.738 92.8985 157.761 93.6603C157.784 94.4222 157.159 95.0456 156.395 95.0687C155.932 95.0918 155.469 95.0918 155.029 95.0918Z" fill="black"/>
<path d="M178.251 96.2462C178.205 96.2462 178.181 96.2462 178.135 96.2462C171.143 95.7152 161.697 93.2217 156.302 84.31C153.084 78.9768 152.899 73.8975 152.899 73.6898C152.875 72.9279 153.477 72.2814 154.241 72.2583C155.005 72.2352 155.654 72.8355 155.677 73.5974C155.677 73.6667 155.885 78.2842 158.756 82.994C162.6 89.2738 169.175 92.8062 178.343 93.4988C179.107 93.5681 179.686 94.2145 179.617 94.9764C179.594 95.6921 178.992 96.2462 178.251 96.2462Z" fill="black"/>
<path d="M195.268 139.697C191.124 139.697 186.586 138.427 181.77 135.91C181.099 135.564 180.821 134.71 181.191 134.04C181.538 133.371 182.395 133.094 183.067 133.463C189.109 136.626 194.55 137.642 199.204 136.465C203.14 135.472 206.404 132.886 208.65 129.007C211.22 124.528 212.216 118.526 211.267 112.962C210.271 107.028 207.331 102.295 203.001 99.5939C197.467 96.1538 193.045 95.1611 189.897 96.6849C185.752 98.6704 185.011 104.442 184.988 104.488C184.896 105.25 184.201 105.781 183.437 105.689C182.673 105.597 182.14 104.904 182.233 104.142C182.279 103.842 183.182 96.8003 188.693 94.1683C192.744 92.229 198.069 93.2679 204.46 97.239C209.484 100.356 212.864 105.781 213.999 112.5C215.064 118.756 213.975 125.29 211.058 130.393C208.442 134.941 204.575 137.988 199.899 139.166C198.37 139.512 196.842 139.697 195.268 139.697Z" fill="black"/>
<path d="M112.705 193.583C102.889 193.583 93.9981 191.551 86.2882 187.557C79.9907 184.302 74.4572 179.73 69.8498 174.005C62.0242 164.262 59.5932 154.588 59.5006 154.196C59.3153 153.457 59.7784 152.695 60.5193 152.51C61.2602 152.326 62.0242 152.787 62.2094 153.526C62.2557 153.665 64.6405 163.107 72.0956 172.365C76.4715 177.768 81.6809 182.085 87.6311 185.133C95.0631 188.965 103.653 190.882 113.192 190.812C133.867 190.674 152.042 185.664 165.725 176.313C179.223 167.102 187.79 154.034 190.499 138.589C190.638 137.827 191.355 137.342 192.096 137.457C192.86 137.596 193.346 138.311 193.231 139.05C190.406 155.258 181.423 168.925 167.276 178.599C153.13 188.25 134.423 193.444 113.192 193.583C113.053 193.583 112.868 193.583 112.705 193.583Z" fill="black"/>
<path d="M117.637 203.903C116.896 203.903 116.271 203.303 116.248 202.564L115.947 192.544C115.924 191.782 116.526 191.136 117.29 191.113C117.313 191.113 117.313 191.113 117.336 191.113C118.077 191.113 118.702 191.713 118.725 192.452L119.026 202.472C119.049 203.233 118.447 203.88 117.683 203.903C117.66 203.903 117.637 203.903 117.637 203.903Z" fill="black"/>
<path d="M149.565 200.348C148.824 200.348 148.222 199.77 148.176 199.032L147.574 187.234C147.527 186.472 148.129 185.826 148.893 185.779C149.657 185.733 150.306 186.333 150.352 187.095L150.954 198.893C151 199.655 150.398 200.301 149.634 200.348C149.611 200.348 149.588 200.348 149.565 200.348Z" fill="black"/>
<path d="M241.249 205.658C240.902 205.658 240.578 205.542 240.3 205.288C239.907 204.919 230.669 196.238 224.718 187.673C220.759 181.947 223.051 171.719 225.274 161.815C226.64 155.719 227.937 149.948 227.728 145.676C227.196 135.149 211.244 127.761 211.081 127.691C210.387 127.368 210.086 126.56 210.387 125.867C210.711 125.175 211.521 124.875 212.216 125.175C212.401 125.267 216.638 127.206 220.991 130.623C226.918 135.264 230.206 140.436 230.46 145.538C230.692 150.202 229.372 156.135 227.96 162.438C225.876 171.765 223.7 181.393 226.964 186.126C232.729 194.46 242.06 203.21 242.152 203.303C242.708 203.834 242.731 204.711 242.222 205.265C241.99 205.519 241.62 205.658 241.249 205.658Z" fill="black"/>
<path d="M229.418 213.323C229.071 213.323 228.724 213.184 228.446 212.93C228.214 212.722 222.889 207.505 218.235 200.232C211.938 190.397 210.039 181.531 212.748 174.582C215.179 168.325 215.179 161.653 212.725 154.773C210.873 149.578 208.233 146.184 208.21 146.161C207.747 145.561 207.84 144.684 208.442 144.222C209.044 143.76 209.924 143.853 210.387 144.453C210.502 144.591 213.281 148.17 215.295 153.757C217.981 161.214 217.981 168.764 215.318 175.598C209.507 190.489 230.159 210.76 230.367 210.968C230.923 211.499 230.923 212.376 230.391 212.93C230.136 213.184 229.789 213.323 229.418 213.323Z" fill="black"/>
<path d="M216.407 213.046C216.244 213.046 216.059 213.023 215.897 212.953C215.318 212.722 201.612 207.274 197.676 197.993C196.264 194.668 196.264 191.251 197.676 187.834C202.932 175.251 195.361 153.965 195.291 153.734C195.037 153.018 195.407 152.21 196.125 151.956C196.843 151.702 197.653 152.072 197.908 152.787C198.232 153.711 205.918 175.321 200.246 188.873C199.111 191.597 199.111 194.229 200.223 196.884C203.719 205.104 216.777 210.298 216.916 210.344C217.634 210.621 217.981 211.43 217.703 212.145C217.495 212.699 216.962 213.046 216.407 213.046Z" fill="black"/>
<path d="M243.611 247.238C243.194 247.238 242.801 247.053 242.523 246.707L228.33 229.022C227.844 228.422 227.937 227.545 228.539 227.083C229.141 226.598 230.02 226.713 230.483 227.291L244.676 244.976C245.162 245.576 245.07 246.453 244.468 246.915C244.236 247.146 243.912 247.238 243.611 247.238Z" fill="black"/>
<path d="M64.108 230.431C63.9228 230.431 63.7144 230.384 63.5292 230.292C62.8346 229.969 62.5336 229.138 62.8577 228.445C62.9504 228.26 71.8873 208.728 65.0804 199.47C57.2548 188.873 62.6725 178.391 62.9041 177.953C63.2745 177.283 64.108 177.029 64.7794 177.376C65.4509 177.722 65.7055 178.576 65.3582 179.246C65.1499 179.638 60.5656 188.665 67.3262 197.831C75.1055 208.405 65.7981 228.745 65.4045 229.599C65.1267 230.13 64.6405 230.431 64.108 230.431Z" fill="black"/>
<path d="M44.8913 232.508C44.7524 232.508 44.6135 232.485 44.4977 232.439C43.7568 232.208 43.3401 231.446 43.5716 230.708C43.5948 230.661 44.7987 226.621 45.0766 221.426C45.3312 216.74 44.845 210.09 41.1406 205.104C37.714 200.509 37.112 194.483 39.381 187.719C41.048 182.755 43.6874 179.13 43.78 178.969C44.2431 178.345 45.0997 178.207 45.7248 178.668C46.35 179.13 46.4889 179.984 46.0258 180.608C45.9101 180.769 36.3943 194.091 43.3633 203.441C46.6972 207.92 48.2485 214.223 47.8549 221.634C47.5539 227.152 46.3036 231.331 46.2342 231.516C46.0258 232.116 45.4701 232.508 44.8913 232.508Z" fill="black"/>
<path d="M28.9159 234.263C28.6843 234.263 28.4528 234.217 28.2444 234.101C27.573 233.732 27.3183 232.901 27.6888 232.231C27.7119 232.208 29.3789 229.091 29.9577 224.682C30.7218 218.887 29.3095 213.715 25.7671 209.282C16.2513 197.346 20.0252 184.094 20.1873 183.54C20.3957 182.801 21.1829 182.385 21.9238 182.593C22.6646 182.801 23.0814 183.586 22.873 184.302C22.8267 184.417 19.377 196.746 27.9435 207.528C31.9257 212.538 33.5696 218.61 32.7129 225.12C32.0415 230.015 30.2124 233.409 30.143 233.547C29.8883 234.009 29.4021 234.263 28.9159 234.263Z" fill="black"/>
<path d="M25.3735 174.397C24.9567 174.397 24.5631 174.212 24.2853 173.866C23.7991 173.266 23.9149 172.389 24.5168 171.927C24.5631 171.904 26.5543 170.241 28.5454 166.478C30.3976 162.969 32.574 156.851 32.574 147.639C32.574 146.877 33.1991 146.254 33.9631 146.254C34.7272 146.254 35.3523 146.877 35.3523 147.639C35.3523 166.663 26.6237 173.797 26.2533 174.097C25.9754 174.305 25.6745 174.397 25.3735 174.397Z" fill="black"/>
<path d="M121.92 135.449C119.304 135.449 117.892 134.271 117.174 133.232C115.669 131.085 115.576 127.46 116.873 122.497C117.799 118.987 119.096 116.078 119.142 115.963C119.443 115.27 120.276 114.947 120.971 115.27C121.666 115.57 121.99 116.402 121.666 117.094C119.79 121.296 117.544 128.961 119.42 131.662C119.628 131.939 120.23 132.817 122.337 132.678C123.101 132.632 123.773 133.209 123.819 133.971C123.865 134.733 123.286 135.402 122.522 135.449C122.337 135.449 122.129 135.449 121.92 135.449Z" fill="black"/>
<path d="M121.341 150.871C119.721 150.871 118.031 150.686 116.294 150.248C110.089 148.747 106.107 145.007 105.945 144.845C105.389 144.314 105.366 143.437 105.899 142.883C106.431 142.329 107.311 142.306 107.866 142.837C107.913 142.86 111.548 146.277 117.081 147.57C124.374 149.301 131.436 146.692 138.058 139.835C138.59 139.281 139.47 139.258 140.026 139.789C140.581 140.32 140.604 141.197 140.072 141.751C135.812 146.138 129.375 150.871 121.341 150.871Z" fill="black"/>
<path d="M108.746 118.872C110.895 118.872 112.636 117.135 112.636 114.993C112.636 112.851 110.895 111.115 108.746 111.115C106.598 111.115 104.857 112.851 104.857 114.993C104.857 117.135 106.598 118.872 108.746 118.872Z" fill="black"/>
<path d="M134.006 116.24C136.154 116.24 137.896 114.503 137.896 112.361C137.896 110.219 136.154 108.483 134.006 108.483C131.858 108.483 130.116 110.219 130.116 112.361C130.116 114.503 131.858 116.24 134.006 116.24Z" fill="black"/>
<path d="M38.9873 245.091C38.7326 245.091 38.4779 245.022 38.2696 244.883C37.6213 244.491 37.4129 243.636 37.8065 242.967L41.8119 236.479C42.2055 235.833 43.0622 235.625 43.7336 236.018C44.3819 236.41 44.5903 237.264 44.1967 237.934L40.1912 244.421C39.9134 244.837 39.4735 245.091 38.9873 245.091Z" fill="black"/>
<path d="M66.4928 242.69C66.4928 242.69 73.485 209.79 116.503 209.79C116.503 209.79 129.885 225.882 152.76 202.725C152.76 202.725 217.958 194.899 213.188 245.276L64.3628 248L66.4928 242.69Z" fill="black"/>
</g>
<defs>
<filter id="filter0_d_41_917" x="0" y="0" width="250" height="250" filterUnits="userSpaceOnUse" color-interpolation-filters="sRGB">
<feFlood flood-opacity="0" result="BackgroundImageFix"/>
<feColorMatrix in="SourceAlpha" type="matrix" values="0 0 0 0 0 0 0 0 0 0 0 0 0 0 0 0 0 0 127 0" result="hardAlpha"/>
<feOffset dy="3"/>
<feGaussianBlur stdDeviation="2"/>
<feComposite in2="hardAlpha" operator="out"/>
<feColorMatrix type="matrix" values="0 0 0 0 0 0 0 0 0 0 0 0 0 0 0 0 0 0 0.25 0"/>
<feBlend mode="normal" in2="BackgroundImageFix" result="effect1_dropShadow_41_917"/>
<feBlend mode="normal" in="SourceGraphic" in2="effect1_dropShadow_41_917" result="shape"/>
</filter>
</defs>
</svg>
