<svg width="14" height="14" viewBox="0 0 14 14" fill="none" xmlns="http://www.w3.org/2000/svg">
<path d="M4.50809 3.03609L4.99267 3.90441C5.43 4.68802 5.25446 5.71599 4.56565 6.40478C4.56565 6.40478 3.73027 7.2403 5.24497 8.75506C6.75922 10.2693 7.59526 9.43438 7.59526 9.43438C8.28406 8.74558 9.312 8.57004 10.0956 9.00736L10.9639 9.49195C12.1472 10.1523 12.2869 11.8117 11.2469 12.8518C10.622 13.4768 9.85632 13.9631 9.00997 13.9951C7.58525 14.0492 5.16568 13.6886 2.73856 11.2615C0.311459 8.83436 -0.0491217 6.4148 0.00489222 4.99006C0.0369766 4.14372 0.523267 3.37811 1.14824 2.75314C2.18831 1.71307 3.84771 1.85282 4.50809 3.03609Z" fill="#333333"/>
<path d="M6.91382 0.470276C6.96325 0.164971 7.25184 -0.0421325 7.55715 0.00728943C7.57604 0.0109108 7.6369 0.0222751 7.6687 0.0293684C7.73247 0.0435626 7.82132 0.0654026 7.93213 0.0976811C8.15374 0.162223 8.46331 0.268556 8.83485 0.438894C9.57875 0.779942 10.5687 1.37653 11.596 2.4038C12.6232 3.43106 13.2198 4.421 13.5608 5.16489C13.7312 5.53645 13.8375 5.84602 13.902 6.06761C13.9343 6.17843 13.9562 6.2673 13.9704 6.33101C13.9775 6.36287 13.9827 6.38845 13.9863 6.40735L13.9906 6.43064C14.0399 6.73592 13.8348 7.03653 13.5294 7.08596C13.225 7.13524 12.9382 6.92908 12.8876 6.62526C12.886 6.61705 12.8817 6.59517 12.8772 6.57449C12.8679 6.53312 12.852 6.46755 12.8268 6.38082C12.7762 6.20735 12.6885 5.9495 12.5427 5.63166C12.2517 4.99676 11.7283 4.12003 10.804 3.19576C9.87974 2.27149 9.003 1.74808 8.36811 1.45701C8.05025 1.31129 7.79243 1.22353 7.6189 1.173C7.53221 1.14774 7.4232 1.12271 7.38183 1.11351C7.07794 1.06286 6.86454 0.774708 6.91382 0.470276Z" fill="#333333"/>
<path fill-rule="evenodd" clip-rule="evenodd" d="M7.08272 3.04602C7.1677 2.74859 7.47769 2.57637 7.77513 2.66134L7.6213 3.19988C7.77513 2.66134 7.77513 2.66134 7.77513 2.66134L7.77626 2.66166L7.77738 2.66198L7.77984 2.66271L7.78566 2.66444L7.80045 2.66904C7.81165 2.67264 7.82577 2.67733 7.84249 2.68328C7.87603 2.69519 7.92038 2.71211 7.97475 2.73541C8.08356 2.78204 8.23217 2.85404 8.41483 2.96211C8.7803 3.17844 9.2793 3.53777 9.86553 4.12397C10.4517 4.71018 10.811 5.20917 11.0274 5.57469C11.1354 5.75729 11.2074 5.90594 11.2541 6.01474C11.2774 6.06911 11.2943 6.11344 11.3062 6.14698C11.3122 6.16374 11.3168 6.1778 11.3205 6.18906L11.325 6.20384L11.3268 6.20963L11.3275 6.21212L11.3278 6.21327C11.3278 6.21327 11.3282 6.21434 10.7896 6.36821L11.3282 6.21434C11.4132 6.51176 11.2409 6.82174 10.9435 6.90673C10.6486 6.99097 10.3413 6.82242 10.2533 6.52963L10.2505 6.52158C10.2465 6.51035 10.2383 6.48826 10.2245 6.456C10.1969 6.39152 10.1468 6.28606 10.0634 6.14522C9.89689 5.86388 9.59616 5.43877 9.07341 4.91605C8.55074 4.39334 8.1256 4.09262 7.84429 3.92611C7.70344 3.84275 7.598 3.79264 7.53348 3.76501C7.50122 3.75119 7.47911 3.74294 7.46791 3.73896L7.45984 3.73621C7.1671 3.64818 6.99848 3.34091 7.08272 3.04602Z" fill="#333333"/>
</svg>
