<svg width="32" height="26" viewBox="0 0 32 26" fill="none" xmlns="http://www.w3.org/2000/svg">
<path d="M13.1001 5.5814H29.1923C30.3032 5.5814 31.2039 4.68077 31.2039 3.56987C31.2039 2.45898 30.3032 1.55835 29.1923 1.55835H13.1001C11.9892 1.55835 11.0886 2.45898 11.0886 3.56987C11.0886 4.68077 11.9891 5.5814 13.1001 5.5814Z" fill="black"/>
<path d="M29.1923 10.9456H13.1001C11.9892 10.9456 11.0886 11.8462 11.0886 12.9571C11.0886 14.068 11.9892 14.9686 13.1001 14.9686H29.1923C30.3032 14.9686 31.2039 14.068 31.2039 12.9571C31.2039 11.8462 30.3032 10.9456 29.1923 10.9456Z" fill="black"/>
<path d="M29.1923 20.3325H13.1001C11.9892 20.3325 11.0886 21.2331 11.0886 22.344C11.0886 23.4549 11.9892 24.3556 13.1001 24.3556H29.1923C30.3032 24.3556 31.2039 23.4549 31.2039 22.344C31.2039 21.2331 30.3032 20.3325 29.1923 20.3325Z" fill="black"/>
<path d="M6.5423 11.3562L5.20276 11.1615L4.60373 9.94764C4.43422 9.60434 4.08475 9.38696 3.70176 9.38696C3.31903 9.38696 2.9693 9.60434 2.79979 9.94764L2.20063 11.1615L0.861221 11.3562C0.482384 11.4112 0.167513 11.6766 0.0492359 12.0407C-0.0690417 12.4048 0.029657 12.8044 0.303627 13.0717L1.27291 14.0164L1.044 15.3506C0.97923 15.728 1.13439 16.1093 1.44403 16.3344C1.6193 16.4618 1.82662 16.5265 2.03528 16.5265C2.19526 16.5265 2.35605 16.4883 2.50316 16.4111L3.70149 15.7811L4.89982 16.4111C5.04707 16.4884 5.20772 16.5265 5.3677 16.5265C5.36864 16.5265 5.36972 16.5265 5.37052 16.5265C5.92597 16.5264 6.37615 16.0762 6.37615 15.5208C6.37615 15.4364 6.36582 15.3543 6.34624 15.276L6.13007 14.0164L7.09936 13.0717C7.3736 12.8044 7.47216 12.4048 7.35388 12.0407C7.23601 11.6766 6.92114 11.4112 6.5423 11.3562Z" fill="black"/>
<path d="M6.5423 1.96928L5.20276 1.77457L4.60373 0.560679C4.43422 0.217379 4.08475 0 3.70176 0C3.31903 0 2.9693 0.217379 2.79979 0.560679L2.20063 1.77457L0.861221 1.96928C0.482384 2.02426 0.167513 2.28965 0.0492359 2.65374C-0.0690417 3.01782 0.029657 3.41744 0.303627 3.68471L1.27291 4.62945L1.044 5.96363C0.97923 6.34099 1.13439 6.72238 1.44403 6.9474C1.6193 7.0748 1.82662 7.13957 2.03528 7.13957C2.19526 7.13957 2.35605 7.10135 2.50316 7.02411L3.70149 6.3941L4.89982 7.02411C5.04707 7.10148 5.20772 7.13957 5.3677 7.13957C5.36864 7.13957 5.36972 7.13957 5.37052 7.13957C5.92597 7.13957 6.37615 6.68925 6.37615 6.13381C6.37615 6.04946 6.36582 5.96739 6.34624 5.88907L6.13007 4.62945L7.09936 3.68471C7.3736 3.41744 7.47216 3.01782 7.35388 2.65374C7.23601 2.28965 6.92114 2.02426 6.5423 1.96928Z" fill="black"/>
<path d="M6.5423 20.7435L5.20276 20.5487L4.60373 19.3348C4.43422 18.9915 4.08475 18.7742 3.70176 18.7742C3.31903 18.7742 2.9693 18.9915 2.79979 19.3348L2.20063 20.5487L0.861221 20.7435C0.482384 20.7984 0.167513 21.0638 0.0492359 21.4279C-0.0690417 21.792 0.029657 22.1916 0.303627 22.4589L1.27291 23.4036L1.044 24.7378C0.97923 25.1152 1.13439 25.4965 1.44403 25.7216C1.6193 25.849 1.82662 25.9137 2.03528 25.9137C2.19526 25.9137 2.35605 25.8755 2.50316 25.7983L3.70149 25.1683L4.89982 25.7983C5.04707 25.8757 5.20772 25.9137 5.3677 25.9137C5.36864 25.9137 5.36972 25.9137 5.37052 25.9137C5.92597 25.9136 6.37615 25.4634 6.37615 24.908C6.37615 24.8236 6.36582 24.7416 6.34624 24.6632L6.13007 23.4036L7.09936 22.4589C7.3736 22.1916 7.47216 21.792 7.35388 21.4279C7.23601 21.0638 6.92114 20.7984 6.5423 20.7435Z" fill="black"/>
</svg>
