<?xml version="1.0" encoding="utf-8"?>
<!-- Generator: Adobe Illustrator 25.0.1, SVG Export Plug-In . SVG Version: 6.00 Build 0)  -->
<svg version="1.1" id="圖層_1" xmlns="http://www.w3.org/2000/svg" xmlns:xlink="http://www.w3.org/1999/xlink" x="0px" y="0px"
	 viewBox="0 0 1440 312" style="enable-background:new 0 0 1440 312;" xml:space="preserve">
<style type="text/css">
	.st0{fill:none;stroke:#F2F2F2;stroke-width:3;stroke-linecap:round;}
	.st1{fill:none;stroke:#000000;stroke-width:3;}
</style>
<line class="st0" x1="262.5" y1="21.8" x2="1.5" y2="21.8"/>
<line class="st0" x1="262.5" y1="53.1" x2="1.5" y2="53.1"/>
<line class="st0" x1="262.5" y1="84.4" x2="1.5" y2="84.4"/>
<line class="st0" x1="262.5" y1="115.7" x2="1.5" y2="115.7"/>
<line class="st0" x1="262.5" y1="37.4" x2="1.5" y2="37.4"/>
<line class="st0" x1="262.5" y1="68.7" x2="1.5" y2="68.7"/>
<line class="st0" x1="262.5" y1="100" x2="1.5" y2="100"/>
<line class="st0" x1="262.5" y1="131.3" x2="1.5" y2="131.3"/>
<line class="st0" x1="262.5" y1="272.1" x2="1.5" y2="272.1"/>
<line class="st0" x1="262.5" y1="287.7" x2="1.5" y2="287.7"/>
<line class="st0" x1="262.5" y1="146.9" x2="1.5" y2="146.9"/>
<line class="st0" x1="262.5" y1="178.2" x2="1.5" y2="178.2"/>
<line class="st0" x1="262.5" y1="209.5" x2="1.5" y2="209.5"/>
<line class="st0" x1="262.5" y1="240.8" x2="1.5" y2="240.8"/>
<line class="st0" x1="262.5" y1="162.6" x2="1.5" y2="162.6"/>
<line class="st0" x1="262.5" y1="193.9" x2="1.5" y2="193.9"/>
<line class="st0" x1="262.5" y1="225.2" x2="1.5" y2="225.2"/>
<line class="st0" x1="262.5" y1="256.5" x2="1.5" y2="256.5"/>
<line class="st0" x1="790.5" y1="21.8" x2="529.5" y2="21.8"/>
<line class="st0" x1="790.5" y1="53.1" x2="529.5" y2="53.1"/>
<line class="st0" x1="790.5" y1="84.4" x2="529.5" y2="84.4"/>
<line class="st0" x1="790.5" y1="115.7" x2="529.5" y2="115.7"/>
<line class="st0" x1="790.5" y1="37.4" x2="529.5" y2="37.4"/>
<line class="st0" x1="790.5" y1="68.7" x2="529.5" y2="68.7"/>
<line class="st0" x1="790.5" y1="100" x2="529.5" y2="100"/>
<line class="st0" x1="790.5" y1="131.3" x2="529.5" y2="131.3"/>
<line class="st0" x1="790.5" y1="272.1" x2="529.5" y2="272.1"/>
<line class="st0" x1="790.5" y1="287.7" x2="529.5" y2="287.7"/>
<line class="st0" x1="790.5" y1="146.9" x2="529.5" y2="146.9"/>
<line class="st0" x1="790.5" y1="178.2" x2="529.5" y2="178.2"/>
<line class="st0" x1="790.5" y1="209.5" x2="529.5" y2="209.5"/>
<line class="st0" x1="790.5" y1="240.8" x2="529.5" y2="240.8"/>
<line class="st0" x1="790.5" y1="162.6" x2="529.5" y2="162.6"/>
<line class="st0" x1="790.5" y1="193.9" x2="529.5" y2="193.9"/>
<line class="st0" x1="790.5" y1="225.2" x2="529.5" y2="225.2"/>
<line class="st0" x1="790.5" y1="256.5" x2="529.5" y2="256.5"/>
<line class="st0" x1="1318.5" y1="21.8" x2="1057.5" y2="21.8"/>
<line class="st0" x1="1318.5" y1="53.1" x2="1057.5" y2="53.1"/>
<line class="st0" x1="1318.5" y1="84.4" x2="1057.5" y2="84.4"/>
<line class="st0" x1="1318.5" y1="115.7" x2="1057.5" y2="115.7"/>
<line class="st0" x1="1318.5" y1="37.4" x2="1057.5" y2="37.4"/>
<line class="st0" x1="1318.5" y1="68.7" x2="1057.5" y2="68.7"/>
<line class="st0" x1="1318.5" y1="100" x2="1057.5" y2="100"/>
<line class="st0" x1="1318.5" y1="131.3" x2="1057.5" y2="131.3"/>
<line class="st0" x1="1318.5" y1="272.1" x2="1057.5" y2="272.1"/>
<line class="st0" x1="1318.5" y1="287.7" x2="1057.5" y2="287.7"/>
<line class="st0" x1="1318.5" y1="146.9" x2="1057.5" y2="146.9"/>
<line class="st0" x1="1318.5" y1="178.2" x2="1057.5" y2="178.2"/>
<line class="st0" x1="1318.5" y1="209.5" x2="1057.5" y2="209.5"/>
<line class="st0" x1="1318.5" y1="240.8" x2="1057.5" y2="240.8"/>
<line class="st0" x1="1318.5" y1="162.6" x2="1057.5" y2="162.6"/>
<line class="st0" x1="1318.5" y1="193.9" x2="1057.5" y2="193.9"/>
<line class="st0" x1="1318.5" y1="225.2" x2="1057.5" y2="225.2"/>
<line class="st0" x1="1318.5" y1="256.5" x2="1057.5" y2="256.5"/>
<line class="st0" x1="526.5" y1="21.8" x2="265.5" y2="21.8"/>
<line class="st0" x1="526.5" y1="53.1" x2="265.5" y2="53.1"/>
<line class="st0" x1="526.5" y1="84.4" x2="265.5" y2="84.4"/>
<line class="st0" x1="526.5" y1="115.7" x2="265.5" y2="115.7"/>
<line class="st0" x1="526.5" y1="37.4" x2="265.5" y2="37.4"/>
<line class="st0" x1="526.5" y1="68.7" x2="265.5" y2="68.7"/>
<line class="st0" x1="526.5" y1="100" x2="265.5" y2="100"/>
<line class="st0" x1="526.5" y1="131.3" x2="265.5" y2="131.3"/>
<line class="st0" x1="526.5" y1="272.1" x2="265.5" y2="272.1"/>
<line class="st0" x1="526.5" y1="287.7" x2="265.5" y2="287.7"/>
<line class="st0" x1="526.5" y1="146.9" x2="265.5" y2="146.9"/>
<line class="st0" x1="526.5" y1="178.2" x2="265.5" y2="178.2"/>
<line class="st0" x1="526.5" y1="209.5" x2="265.5" y2="209.5"/>
<line class="st0" x1="526.5" y1="240.8" x2="265.5" y2="240.8"/>
<line class="st0" x1="526.5" y1="162.6" x2="265.5" y2="162.6"/>
<line class="st0" x1="526.5" y1="193.9" x2="265.5" y2="193.9"/>
<line class="st0" x1="526.5" y1="225.2" x2="265.5" y2="225.2"/>
<line class="st0" x1="526.5" y1="256.5" x2="265.5" y2="256.5"/>
<line class="st0" x1="1054.5" y1="21.8" x2="793.5" y2="21.8"/>
<line class="st0" x1="1054.5" y1="53.1" x2="793.5" y2="53.1"/>
<line class="st0" x1="1054.5" y1="84.4" x2="793.5" y2="84.4"/>
<line class="st0" x1="1054.5" y1="115.7" x2="793.5" y2="115.7"/>
<line class="st0" x1="1054.5" y1="37.4" x2="793.5" y2="37.4"/>
<line class="st0" x1="1054.5" y1="68.7" x2="793.5" y2="68.7"/>
<line class="st0" x1="1054.5" y1="100" x2="793.5" y2="100"/>
<line class="st0" x1="1054.5" y1="131.3" x2="793.5" y2="131.3"/>
<line class="st0" x1="1054.5" y1="272.1" x2="793.5" y2="272.1"/>
<line class="st0" x1="1054.5" y1="287.7" x2="793.5" y2="287.7"/>
<line class="st0" x1="1054.5" y1="146.9" x2="793.5" y2="146.9"/>
<line class="st0" x1="1054.5" y1="178.2" x2="793.5" y2="178.2"/>
<line class="st0" x1="1054.5" y1="209.5" x2="793.5" y2="209.5"/>
<line class="st0" x1="1054.5" y1="240.8" x2="793.5" y2="240.8"/>
<line class="st0" x1="1054.5" y1="162.6" x2="793.5" y2="162.6"/>
<line class="st0" x1="1054.5" y1="193.9" x2="793.5" y2="193.9"/>
<line class="st0" x1="1054.5" y1="225.2" x2="793.5" y2="225.2"/>
<line class="st0" x1="1054.5" y1="256.5" x2="793.5" y2="256.5"/>
<line class="st0" x1="1439.4" y1="21.8" x2="1321.5" y2="21.8"/>
<line class="st0" x1="1439.4" y1="53.1" x2="1321.5" y2="53.1"/>
<line class="st0" x1="1439.4" y1="84.4" x2="1321.5" y2="84.4"/>
<line class="st0" x1="1439.4" y1="115.7" x2="1321.5" y2="115.7"/>
<line class="st0" x1="1439.4" y1="37.4" x2="1321.5" y2="37.4"/>
<line class="st0" x1="1439.4" y1="68.7" x2="1321.5" y2="68.7"/>
<line class="st0" x1="1439.4" y1="100" x2="1321.5" y2="100"/>
<line class="st0" x1="1439.4" y1="131.3" x2="1321.5" y2="131.3"/>
<line class="st0" x1="1439.4" y1="272.1" x2="1321.5" y2="272.1"/>
<line class="st0" x1="1439.4" y1="287.7" x2="1321.5" y2="287.7"/>
<line class="st0" x1="1439.4" y1="146.9" x2="1321.5" y2="146.9"/>
<line class="st0" x1="1439.4" y1="178.2" x2="1321.5" y2="178.2"/>
<line class="st0" x1="1439.4" y1="209.5" x2="1321.5" y2="209.5"/>
<line class="st0" x1="1439.4" y1="240.8" x2="1321.5" y2="240.8"/>
<line class="st0" x1="1439.4" y1="162.6" x2="1321.5" y2="162.6"/>
<line class="st0" x1="1439.4" y1="193.9" x2="1321.5" y2="193.9"/>
<line class="st0" x1="1439.4" y1="225.2" x2="1321.5" y2="225.2"/>
<line class="st0" x1="1439.4" y1="256.5" x2="1321.5" y2="256.5"/>
<line class="st0" x1="908.5" y1="9.5" x2="908.5" y2="301.5"/>
<line class="st0" x1="936.5" y1="9.5" x2="936.5" y2="301.5"/>
<line class="st0" x1="964.5" y1="9.5" x2="964.5" y2="301.5"/>
<line class="st0" x1="992.5" y1="9.5" x2="992.5" y2="301.5"/>
<line class="st0" x1="922.5" y1="9.5" x2="922.5" y2="301.5"/>
<line class="st0" x1="950.5" y1="9.5" x2="950.5" y2="301.5"/>
<line class="st0" x1="978.5" y1="9.5" x2="978.5" y2="301.5"/>
<line class="st0" x1="1006.5" y1="9.5" x2="1006.5" y2="301.5"/>
<line class="st0" x1="1132.5" y1="9.5" x2="1132.5" y2="301.5"/>
<line class="st0" x1="1160.5" y1="9.5" x2="1160.5" y2="301.5"/>
<line class="st0" x1="1188.5" y1="9.5" x2="1188.5" y2="301.5"/>
<line class="st0" x1="1216.5" y1="9.5" x2="1216.5" y2="301.5"/>
<line class="st0" x1="1146.5" y1="9.5" x2="1146.5" y2="301.5"/>
<line class="st0" x1="1174.5" y1="9.5" x2="1174.5" y2="301.5"/>
<line class="st0" x1="1202.5" y1="9.5" x2="1202.5" y2="301.5"/>
<line class="st0" x1="1230.5" y1="9.5" x2="1230.5" y2="301.5"/>
<line class="st0" x1="1020.5" y1="9.5" x2="1020.5" y2="301.5"/>
<line class="st0" x1="1048.5" y1="9.5" x2="1048.5" y2="301.5"/>
<line class="st0" x1="1076.5" y1="9.5" x2="1076.5" y2="301.5"/>
<line class="st0" x1="1104.5" y1="9.5" x2="1104.5" y2="301.5"/>
<line class="st0" x1="1034.5" y1="9.5" x2="1034.5" y2="301.5"/>
<line class="st0" x1="1062.5" y1="9.5" x2="1062.5" y2="301.5"/>
<line class="st0" x1="1090.5" y1="9.5" x2="1090.5" y2="301.5"/>
<line class="st0" x1="1118.5" y1="9.5" x2="1118.5" y2="301.5"/>
<line class="st0" x1="1244.5" y1="9.5" x2="1244.5" y2="301.5"/>
<line class="st0" x1="1272.5" y1="9.5" x2="1272.5" y2="301.5"/>
<line class="st0" x1="1300.5" y1="9.5" x2="1300.5" y2="301.5"/>
<line class="st0" x1="1328.5" y1="9.5" x2="1328.5" y2="301.5"/>
<line class="st0" x1="1258.5" y1="9.5" x2="1258.5" y2="301.5"/>
<line class="st0" x1="1286.5" y1="9.5" x2="1286.5" y2="301.5"/>
<line class="st0" x1="1314.5" y1="9.5" x2="1314.5" y2="301.5"/>
<line class="st0" x1="1342.5" y1="9.5" x2="1342.5" y2="301.5"/>
<line class="st0" x1="460.5" y1="9.5" x2="460.5" y2="301.5"/>
<line class="st0" x1="488.5" y1="9.5" x2="488.5" y2="301.5"/>
<line class="st0" x1="516.5" y1="9.5" x2="516.5" y2="301.5"/>
<line class="st0" x1="544.5" y1="9.5" x2="544.5" y2="301.5"/>
<line class="st0" x1="474.5" y1="9.5" x2="474.5" y2="301.5"/>
<line class="st0" x1="502.5" y1="9.5" x2="502.5" y2="301.5"/>
<line class="st0" x1="530.5" y1="9.5" x2="530.5" y2="301.5"/>
<line class="st0" x1="558.5" y1="9.5" x2="558.5" y2="301.5"/>
<line class="st0" x1="684.5" y1="9.5" x2="684.5" y2="301.5"/>
<line class="st0" x1="712.5" y1="9.5" x2="712.5" y2="301.5"/>
<line class="st0" x1="740.5" y1="9.5" x2="740.5" y2="301.5"/>
<line class="st0" x1="768.5" y1="9.5" x2="768.5" y2="301.5"/>
<line class="st0" x1="698.5" y1="9.5" x2="698.5" y2="301.5"/>
<line class="st0" x1="726.5" y1="9.5" x2="726.5" y2="301.5"/>
<line class="st0" x1="754.5" y1="9.5" x2="754.5" y2="301.5"/>
<line class="st0" x1="782.5" y1="9.5" x2="782.5" y2="301.5"/>
<line class="st0" x1="572.5" y1="9.5" x2="572.5" y2="301.5"/>
<line class="st0" x1="600.5" y1="9.5" x2="600.5" y2="301.5"/>
<line class="st0" x1="628.5" y1="9.5" x2="628.5" y2="301.5"/>
<line class="st0" x1="656.5" y1="9.5" x2="656.5" y2="301.5"/>
<line class="st0" x1="586.5" y1="9.5" x2="586.5" y2="301.5"/>
<line class="st0" x1="614.5" y1="9.5" x2="614.5" y2="301.5"/>
<line class="st0" x1="642.5" y1="9.5" x2="642.5" y2="301.5"/>
<line class="st0" x1="670.5" y1="9.5" x2="670.5" y2="301.5"/>
<line class="st0" x1="796.5" y1="9.5" x2="796.5" y2="301.5"/>
<line class="st0" x1="824.5" y1="9.5" x2="824.5" y2="301.5"/>
<line class="st0" x1="852.5" y1="9.5" x2="852.5" y2="301.5"/>
<line class="st0" x1="880.5" y1="9.5" x2="880.5" y2="301.5"/>
<line class="st0" x1="810.5" y1="9.5" x2="810.5" y2="301.5"/>
<line class="st0" x1="838.5" y1="9.5" x2="838.5" y2="301.5"/>
<line class="st0" x1="866.5" y1="9.5" x2="866.5" y2="301.5"/>
<line class="st0" x1="894.5" y1="9.5" x2="894.5" y2="301.5"/>
<line class="st0" x1="1355.5" y1="9.5" x2="1355.5" y2="301.5"/>
<line class="st0" x1="1383.5" y1="9.5" x2="1383.5" y2="301.5"/>
<line class="st0" x1="1411.5" y1="9.5" x2="1411.5" y2="301.5"/>
<line class="st0" x1="1439.5" y1="9.5" x2="1439.5" y2="301.5"/>
<line class="st0" x1="1369.5" y1="9.5" x2="1369.5" y2="301.5"/>
<line class="st0" x1="1397.5" y1="9.5" x2="1397.5" y2="301.5"/>
<line class="st0" x1="1425.5" y1="9.5" x2="1425.5" y2="301.5"/>
<line class="st0" x1="13.5" y1="9.5" x2="13.5" y2="301.5"/>
<line class="st0" x1="41.5" y1="9.5" x2="41.5" y2="301.5"/>
<line class="st0" x1="69.5" y1="9.5" x2="69.5" y2="301.5"/>
<line class="st0" x1="97.5" y1="9.5" x2="97.5" y2="301.5"/>
<line class="st0" x1="27.5" y1="9.5" x2="27.5" y2="301.5"/>
<line class="st0" x1="55.5" y1="9.5" x2="55.5" y2="301.5"/>
<line class="st0" x1="83.5" y1="9.5" x2="83.5" y2="301.5"/>
<line class="st0" x1="111.5" y1="9.5" x2="111.5" y2="301.5"/>
<line class="st0" x1="237.5" y1="9.5" x2="237.5" y2="301.5"/>
<line class="st0" x1="265.5" y1="9.5" x2="265.5" y2="301.5"/>
<line class="st0" x1="293.5" y1="9.5" x2="293.5" y2="301.5"/>
<line class="st0" x1="321.5" y1="9.5" x2="321.5" y2="301.5"/>
<line class="st0" x1="251.5" y1="9.5" x2="251.5" y2="301.5"/>
<line class="st0" x1="279.5" y1="9.5" x2="279.5" y2="301.5"/>
<line class="st0" x1="307.5" y1="9.5" x2="307.5" y2="301.5"/>
<line class="st0" x1="335.5" y1="9.5" x2="335.5" y2="301.5"/>
<line class="st0" x1="125.5" y1="9.5" x2="125.5" y2="301.5"/>
<line class="st0" x1="153.5" y1="9.5" x2="153.5" y2="301.5"/>
<line class="st0" x1="181.5" y1="9.5" x2="181.5" y2="301.5"/>
<line class="st0" x1="209.5" y1="9.5" x2="209.5" y2="301.5"/>
<line class="st0" x1="139.5" y1="9.5" x2="139.5" y2="301.5"/>
<line class="st0" x1="167.5" y1="9.5" x2="167.5" y2="301.5"/>
<line class="st0" x1="195.5" y1="9.5" x2="195.5" y2="301.5"/>
<line class="st0" x1="223.5" y1="9.5" x2="223.5" y2="301.5"/>
<line class="st0" x1="349.5" y1="9.5" x2="349.5" y2="301.5"/>
<line class="st0" x1="377.5" y1="9.5" x2="377.5" y2="301.5"/>
<line class="st0" x1="405.5" y1="9.5" x2="405.5" y2="301.5"/>
<line class="st0" x1="433.5" y1="9.5" x2="433.5" y2="301.5"/>
<line class="st0" x1="363.5" y1="9.5" x2="363.5" y2="301.5"/>
<line class="st0" x1="391.5" y1="9.5" x2="391.5" y2="301.5"/>
<line class="st0" x1="419.5" y1="9.5" x2="419.5" y2="301.5"/>
<line class="st0" x1="447.5" y1="9.5" x2="447.5" y2="301.5"/>
<line class="st1" x1="0" y1="1.5" x2="1440" y2="1.5"/>
<line class="st1" x1="0" y1="310.5" x2="1440" y2="310.5"/>
</svg>
