<svg width="65" height="65" viewBox="0 0 65 65" fill="none" xmlns="http://www.w3.org/2000/svg">
<path d="M23.8171 12.3956C27.6804 5.4652 29.6119 2 32.5 2C35.388 2 37.3196 5.46517 41.1827 12.3955L42.1822 14.1885C43.2802 16.1579 43.8289 17.1426 44.685 17.7923C45.5408 18.4421 46.6065 18.6832 48.7385 19.1656L50.6795 19.6047C58.1812 21.3021 61.9324 22.1508 62.8249 25.0206C63.7173 27.8903 61.1602 30.8808 56.0456 36.8612L54.7225 38.4085C53.2692 40.108 52.5424 40.9577 52.2154 42.009C51.8888 43.0604 51.9986 44.1941 52.2182 46.4617L52.4183 48.526C53.1914 56.5054 53.5782 60.4951 51.2419 62.2687C48.9053 64.0423 45.3932 62.4252 38.3691 59.1912L36.5519 58.3543C34.556 57.4354 33.558 56.9757 32.5 56.9757C31.4419 56.9757 30.444 57.4354 28.448 58.3543L26.6309 59.1912C19.6067 62.4252 16.0946 64.0423 13.7582 62.2687C11.4218 60.4951 11.8084 56.5054 12.5817 48.526L12.7817 46.4617C13.0014 44.1941 13.1113 43.0604 12.7844 42.009C12.4575 40.9577 11.7308 40.108 10.2775 38.4085L8.9543 36.8612C3.83992 30.8808 1.28271 27.8903 2.17514 25.0206C3.06757 22.1508 6.81857 21.3021 14.3206 19.6047L16.2615 19.1656C18.3933 18.6832 19.4592 18.4421 20.3151 17.7923C21.1709 17.1426 21.7198 16.1579 22.8177 14.1885L23.8171 12.3956Z" fill="#FFCE52" stroke="black" stroke-width="3"/>
</svg>
