<svg width="206" height="107" viewBox="0 0 206 107" fill="none" xmlns="http://www.w3.org/2000/svg">
<mask id="path-1-outside-1_23_32" maskUnits="userSpaceOnUse" x="0" y="12" width="206" height="53" fill="black">
<rect fill="white" y="12" width="206" height="53"/>
<path d="M16.5227 62L3.20455 15.4545H13.9545L21.6591 47.7955H22.0455L30.5455 15.4545H39.75L48.2273 47.8636H48.6364L56.3409 15.4545H67.0909L53.7727 62H44.1818L35.3182 31.5682H34.9545L26.1136 62H16.5227ZM112.506 38.7273C112.506 43.803 111.544 48.1212 109.619 51.6818C107.71 55.2424 105.104 57.9621 101.801 59.8409C98.5133 61.7045 94.8163 62.6364 90.7102 62.6364C86.5739 62.6364 82.8617 61.697 79.5739 59.8182C76.286 57.9394 73.6875 55.2197 71.7784 51.6591C69.8693 48.0985 68.9148 43.7879 68.9148 38.7273C68.9148 33.6515 69.8693 29.3333 71.7784 25.7727C73.6875 22.2121 76.286 19.5 79.5739 17.6364C82.8617 15.7576 86.5739 14.8182 90.7102 14.8182C94.8163 14.8182 98.5133 15.7576 101.801 17.6364C105.104 19.5 107.71 22.2121 109.619 25.7727C111.544 29.3333 112.506 33.6515 112.506 38.7273ZM102.528 38.7273C102.528 35.4394 102.036 32.6667 101.051 30.4091C100.081 28.1515 98.7102 26.4394 96.9375 25.2727C95.1648 24.1061 93.089 23.5227 90.7102 23.5227C88.3314 23.5227 86.2557 24.1061 84.483 25.2727C82.7102 26.4394 81.3314 28.1515 80.3466 30.4091C79.3769 32.6667 78.892 35.4394 78.892 38.7273C78.892 42.0152 79.3769 44.7879 80.3466 47.0455C81.3314 49.303 82.7102 51.0152 84.483 52.1818C86.2557 53.3485 88.3314 53.9318 90.7102 53.9318C93.089 53.9318 95.1648 53.3485 96.9375 52.1818C98.7102 51.0152 100.081 49.303 101.051 47.0455C102.036 44.7879 102.528 42.0152 102.528 38.7273ZM119.795 62V15.4545H138.159C141.674 15.4545 144.674 16.0833 147.159 17.3409C149.659 18.5833 151.561 20.3485 152.864 22.6364C154.182 24.9091 154.841 27.5833 154.841 30.6591C154.841 33.75 154.174 36.4091 152.841 38.6364C151.508 40.8485 149.576 42.5455 147.045 43.7273C144.53 44.9091 141.485 45.5 137.909 45.5H125.614V37.5909H136.318C138.197 37.5909 139.758 37.3333 141 36.8182C142.242 36.303 143.167 35.5303 143.773 34.5C144.394 33.4697 144.705 32.1894 144.705 30.6591C144.705 29.1136 144.394 27.8106 143.773 26.75C143.167 25.6894 142.235 24.8864 140.977 24.3409C139.735 23.7803 138.167 23.5 136.273 23.5H129.636V62H119.795ZM144.932 40.8182L156.5 62H145.636L134.318 40.8182H144.932ZM161.795 62V15.4545H171.636V35.9773H172.25L189 15.4545H200.795L183.523 36.2955L201 62H189.227L176.477 42.8636L171.636 48.7727V62H161.795Z"/>
</mask>
<path d="M16.5227 62L14.5999 62.5502L15.0147 64H16.5227V62ZM3.20455 15.4545V13.4545H0.552018L1.28171 16.0047L3.20455 15.4545ZM13.9545 15.4545L15.9001 14.9911L15.5341 13.4545H13.9545V15.4545ZM21.6591 47.7955L19.7135 48.2589L20.0796 49.7955H21.6591V47.7955ZM22.0455 47.7955V49.7955H23.5877L23.9798 48.3038L22.0455 47.7955ZM30.5455 15.4545V13.4545H29.0032L28.6111 14.9462L30.5455 15.4545ZM39.75 15.4545L41.6849 14.9484L41.2941 13.4545H39.75V15.4545ZM48.2273 47.8636L46.2924 48.3698L46.6831 49.8636H48.2273V47.8636ZM48.6364 47.8636V49.8636H50.2166L50.5821 48.3262L48.6364 47.8636ZM56.3409 15.4545V13.4545H54.7606L54.3951 14.992L56.3409 15.4545ZM67.0909 15.4545L69.0137 16.0047L69.7434 13.4545H67.0909V15.4545ZM53.7727 62V64H55.2807L55.6956 62.5502L53.7727 62ZM44.1818 62L42.2616 62.5593L42.6812 64H44.1818V62ZM35.3182 31.5682L37.2384 31.0089L36.8188 29.5682H35.3182V31.5682ZM34.9545 31.5682V29.5682H33.4529L33.034 31.0102L34.9545 31.5682ZM26.1136 62V64H27.6153L28.0342 62.558L26.1136 62ZM18.4456 61.4498L5.12738 14.9044L1.28171 16.0047L14.5999 62.5502L18.4456 61.4498ZM3.20455 17.4545H13.9545V13.4545H3.20455V17.4545ZM12.009 15.918L19.7135 48.2589L23.6046 47.332L15.9001 14.9911L12.009 15.918ZM21.6591 49.7955H22.0455V45.7955H21.6591V49.7955ZM23.9798 48.3038L32.4798 15.9629L28.6111 14.9462L20.1111 47.2871L23.9798 48.3038ZM30.5455 17.4545H39.75V13.4545H30.5455V17.4545ZM37.8151 15.9607L46.2924 48.3698L50.1622 47.3575L41.6849 14.9484L37.8151 15.9607ZM48.2273 49.8636H48.6364V45.8636H48.2273V49.8636ZM50.5821 48.3262L58.2867 15.9171L54.3951 14.992L46.6906 47.4011L50.5821 48.3262ZM56.3409 17.4545H67.0909V13.4545H56.3409V17.4545ZM65.1681 14.9044L51.8499 61.4498L55.6956 62.5502L69.0137 16.0047L65.1681 14.9044ZM53.7727 60H44.1818V64H53.7727V60ZM46.102 61.4407L37.2384 31.0089L33.398 32.1275L42.2616 62.5593L46.102 61.4407ZM35.3182 29.5682H34.9545V33.5682H35.3182V29.5682ZM33.034 31.0102L24.193 61.442L28.0342 62.558L36.8751 32.1261L33.034 31.0102ZM26.1136 60H16.5227V64H26.1136V60ZM109.619 51.6818L107.86 50.7309L107.857 50.7368L109.619 51.6818ZM101.801 59.8409L102.787 61.5808L102.79 61.5794L101.801 59.8409ZM79.5739 59.8182L80.5661 58.0817L79.5739 59.8182ZM71.7784 51.6591L70.0158 52.6042L71.7784 51.6591ZM71.7784 25.7727L73.541 26.7178L73.541 26.7178L71.7784 25.7727ZM79.5739 17.6364L80.5601 19.3763L80.5661 19.3729L79.5739 17.6364ZM101.801 17.6364L100.809 19.3729L100.818 19.3782L101.801 17.6364ZM109.619 25.7727L107.857 26.7178L107.86 26.7236L109.619 25.7727ZM101.051 30.4091L99.2135 31.1984L99.218 31.2088L101.051 30.4091ZM96.9375 25.2727L95.838 26.9434L96.9375 25.2727ZM84.483 25.2727L85.5825 26.9434L84.483 25.2727ZM80.3466 30.4091L78.5134 29.6094L78.5089 29.6198L80.3466 30.4091ZM80.3466 47.0455L78.5089 47.8348L78.5134 47.8452L80.3466 47.0455ZM84.483 52.1818L85.5825 50.5112L84.483 52.1818ZM96.9375 52.1818L95.838 50.5112L96.9375 52.1818ZM101.051 47.0455L99.2179 46.2457L99.2135 46.2561L101.051 47.0455ZM110.506 38.7273C110.506 43.5538 109.591 47.5275 107.86 50.7309L111.379 52.6327C113.496 48.7149 114.506 44.0522 114.506 38.7273H110.506ZM107.857 50.7368C106.114 53.9872 103.767 56.4219 100.812 58.1025L102.79 61.5794C106.441 59.5023 109.307 56.4976 111.382 52.6269L107.857 50.7368ZM100.815 58.101C97.8534 59.7796 94.5014 60.6364 90.7102 60.6364V64.6364C95.1312 64.6364 99.1731 63.6295 102.787 61.5808L100.815 58.101ZM90.7102 60.6364C86.8889 60.6364 83.5244 59.7721 80.5661 58.0817L78.5816 61.5547C82.1991 63.6218 86.2588 64.6364 90.7102 64.6364V60.6364ZM80.5661 58.0817C77.6263 56.4018 75.2851 53.9668 73.541 50.714L70.0158 52.6042C72.0899 56.4725 74.9457 59.477 78.5816 61.5547L80.5661 58.0817ZM73.541 50.714C71.8223 47.5084 70.9148 43.5399 70.9148 38.7273H66.9148C66.9148 44.0359 67.9163 48.6885 70.0158 52.6042L73.541 50.714ZM70.9148 38.7273C70.9148 33.8984 71.8227 29.9226 73.541 26.7178L70.0158 24.8277C67.9159 28.7441 66.9148 33.4046 66.9148 38.7273H70.9148ZM73.541 26.7178C75.2845 23.4662 77.6238 21.0406 80.5601 19.3763L78.5876 15.8964C74.9482 17.9594 72.0905 20.9581 70.0158 24.8277L73.541 26.7178ZM80.5661 19.3729C83.5244 17.6824 86.8889 16.8182 90.7102 16.8182V12.8182C86.2588 12.8182 82.1991 13.8327 78.5816 15.8999L80.5661 19.3729ZM90.7102 16.8182C94.4985 16.8182 97.8484 17.6811 100.809 19.3729L102.793 15.8999C99.1781 13.834 95.1341 12.8182 90.7102 12.8182V16.8182ZM100.818 19.3782C103.769 21.0432 106.115 23.4685 107.857 26.7178L111.382 24.8277C109.306 20.9557 106.439 17.9568 102.784 15.8945L100.818 19.3782ZM107.86 26.7236C109.591 29.927 110.506 33.9007 110.506 38.7273H114.506C114.506 33.4023 113.496 28.7396 111.379 24.8218L107.86 26.7236ZM104.528 38.7273C104.528 35.2515 104.009 32.1885 102.884 29.6094L99.218 31.2088C100.063 33.1448 100.528 35.6273 100.528 38.7273H104.528ZM102.889 29.6198C101.79 27.0607 100.186 25.0163 98.037 23.6021L95.838 26.9434C97.2346 27.8625 98.3733 29.2424 99.2135 31.1984L102.889 29.6198ZM98.037 23.6021C95.8992 22.1952 93.4309 21.5227 90.7102 21.5227V25.5227C92.7471 25.5227 94.4303 26.017 95.838 26.9434L98.037 23.6021ZM90.7102 21.5227C87.9895 21.5227 85.5212 22.1952 83.3835 23.6021L85.5825 26.9434C86.9902 26.017 88.6734 25.5227 90.7102 25.5227V21.5227ZM83.3835 23.6021C81.2376 25.0143 79.6278 27.0549 78.5134 29.6094L82.1797 31.2088C83.0351 29.2481 84.1829 27.8645 85.5825 26.9434L83.3835 23.6021ZM78.5089 29.6198C77.4025 32.1957 76.892 35.2548 76.892 38.7273H80.892C80.892 35.624 81.3513 33.1376 82.1842 31.1984L78.5089 29.6198ZM76.892 38.7273C76.892 42.1997 77.4025 45.2588 78.5089 47.8348L82.1842 46.2561C81.3513 44.3169 80.892 41.8306 80.892 38.7273H76.892ZM78.5134 47.8452C79.6278 50.3996 81.2376 52.4402 83.3835 53.8525L85.5825 50.5112C84.1829 49.5901 83.0351 48.2064 82.1797 46.2458L78.5134 47.8452ZM83.3835 53.8525C85.5212 55.2594 87.9895 55.9318 90.7102 55.9318V51.9318C88.6734 51.9318 86.9902 51.4376 85.5825 50.5112L83.3835 53.8525ZM90.7102 55.9318C93.4309 55.9318 95.8992 55.2594 98.037 53.8525L95.838 50.5112C94.4303 51.4376 92.7471 51.9318 90.7102 51.9318V55.9318ZM98.037 53.8525C100.186 52.4383 101.79 50.3939 102.889 47.8348L99.2135 46.2561C98.3733 48.2122 97.2346 49.592 95.838 50.5112L98.037 53.8525ZM102.884 47.8452C104.009 45.266 104.528 42.203 104.528 38.7273H100.528C100.528 41.8273 100.063 44.3097 99.218 46.2458L102.884 47.8452ZM119.795 62H117.795V64H119.795V62ZM119.795 15.4545V13.4545H117.795V15.4545H119.795ZM147.159 17.3409L146.256 19.1254L146.262 19.1287L146.269 19.1319L147.159 17.3409ZM152.864 22.6364L151.126 23.6262L151.13 23.633L151.134 23.6398L152.864 22.6364ZM152.841 38.6364L154.554 39.6688L154.557 39.6636L152.841 38.6364ZM147.045 43.7273L146.199 41.9152L146.195 41.9171L147.045 43.7273ZM125.614 45.5H123.614V47.5H125.614V45.5ZM125.614 37.5909V35.5909H123.614V37.5909H125.614ZM141 36.8182L141.766 38.6657L141.766 38.6657L141 36.8182ZM143.773 34.5L142.06 33.4673L142.054 33.4766L142.049 33.486L143.773 34.5ZM143.773 26.75L142.036 27.7423L142.042 27.7516L142.047 27.7608L143.773 26.75ZM140.977 24.3409L140.155 26.1639L140.168 26.1699L140.181 26.1758L140.977 24.3409ZM129.636 23.5V21.5H127.636V23.5H129.636ZM129.636 62V64H131.636V62H129.636ZM144.932 40.8182L146.687 39.8596L146.118 38.8182H144.932V40.8182ZM156.5 62V64H159.871L158.255 61.0414L156.5 62ZM145.636 62L143.872 62.9426L144.437 64H145.636V62ZM134.318 40.8182V38.8182H130.982L132.554 41.7607L134.318 40.8182ZM121.795 62V15.4545H117.795V62H121.795ZM119.795 17.4545H138.159V13.4545H119.795V17.4545ZM138.159 17.4545C141.441 17.4545 144.115 18.0417 146.256 19.1254L148.062 15.5564C145.234 14.1249 141.908 13.4545 138.159 13.4545V17.4545ZM146.269 19.1319C148.436 20.2087 150.032 21.705 151.126 23.6262L154.602 21.6466C153.09 18.992 150.883 16.958 148.049 15.5499L146.269 19.1319ZM151.134 23.6398C152.247 25.5591 152.841 27.8751 152.841 30.6591H156.841C156.841 27.2916 156.117 24.259 154.594 21.6329L151.134 23.6398ZM152.841 30.6591C152.841 33.4576 152.24 35.7469 151.125 37.6091L154.557 39.6636C156.109 37.0713 156.841 34.0424 156.841 30.6591H152.841ZM151.128 37.6039C150.016 39.4481 148.4 40.8871 146.199 41.9152L147.892 45.5394C150.751 44.2038 152.999 42.2489 154.554 39.6688L151.128 37.6039ZM146.195 41.9171C144.011 42.9434 141.272 43.5 137.909 43.5V47.5C141.698 47.5 145.05 46.8747 147.896 45.5374L146.195 41.9171ZM137.909 43.5H125.614V47.5H137.909V43.5ZM127.614 45.5V37.5909H123.614V45.5H127.614ZM125.614 39.5909H136.318V35.5909H125.614V39.5909ZM136.318 39.5909C138.363 39.5909 140.205 39.313 141.766 38.6657L140.234 34.9707C139.31 35.3537 138.031 35.5909 136.318 35.5909V39.5909ZM141.766 38.6657C143.357 38.006 144.643 36.9652 145.497 35.514L142.049 33.486C141.69 34.0954 141.128 34.6001 140.234 34.9707L141.766 38.6657ZM145.485 35.5327C146.339 34.1165 146.705 32.4557 146.705 30.6591H142.705C142.705 31.9231 142.449 32.8228 142.06 33.4673L145.485 35.5327ZM146.705 30.6591C146.705 28.8486 146.34 27.1759 145.498 25.7392L142.047 27.7608C142.448 28.4453 142.705 29.3787 142.705 30.6591H146.705ZM145.509 25.7577C144.663 24.2767 143.376 23.2014 141.773 22.5061L140.181 26.1758C141.093 26.5713 141.67 27.1021 142.036 27.7423L145.509 25.7577ZM141.8 22.5179C140.219 21.8045 138.347 21.5 136.273 21.5V25.5C137.986 25.5 139.251 25.7561 140.155 26.1639L141.8 22.5179ZM136.273 21.5H129.636V25.5H136.273V21.5ZM127.636 23.5V62H131.636V23.5H127.636ZM129.636 60H119.795V64H129.636V60ZM143.177 41.7768L154.745 62.9586L158.255 61.0414L146.687 39.8596L143.177 41.7768ZM156.5 60H145.636V64H156.5V60ZM147.4 61.0574L136.082 39.8756L132.554 41.7607L143.872 62.9426L147.4 61.0574ZM134.318 42.8182H144.932V38.8182H134.318V42.8182ZM161.795 62H159.795V64H161.795V62ZM161.795 15.4545V13.4545H159.795V15.4545H161.795ZM171.636 15.4545H173.636V13.4545H171.636V15.4545ZM171.636 35.9773H169.636V37.9773H171.636V35.9773ZM172.25 35.9773V37.9773H173.199L173.799 37.2419L172.25 35.9773ZM189 15.4545V13.4545H188.051L187.451 14.1899L189 15.4545ZM200.795 15.4545L202.335 16.7308L205.051 13.4545H200.795V15.4545ZM183.523 36.2955L181.983 35.0192L181.023 36.1768L181.869 37.42L183.523 36.2955ZM201 62V64H204.778L202.654 60.8755L201 62ZM189.227 62L187.563 63.1089L188.157 64H189.227V62ZM176.477 42.8636L178.142 41.7547L176.643 39.5054L174.93 41.5962L176.477 42.8636ZM171.636 48.7727L170.089 47.5053L169.636 48.0581V48.7727H171.636ZM171.636 62V64H173.636V62H171.636ZM163.795 62V15.4545H159.795V62H163.795ZM161.795 17.4545H171.636V13.4545H161.795V17.4545ZM169.636 15.4545V35.9773H173.636V15.4545H169.636ZM171.636 37.9773H172.25V33.9773H171.636V37.9773ZM173.799 37.2419L190.549 16.7192L187.451 14.1899L170.701 34.7127L173.799 37.2419ZM189 17.4545H200.795V13.4545H189V17.4545ZM199.256 14.1783L181.983 35.0192L185.063 37.5717L202.335 16.7308L199.256 14.1783ZM181.869 37.42L199.346 63.1245L202.654 60.8755L185.177 35.1709L181.869 37.42ZM201 60H189.227V64H201V60ZM190.892 60.8911L178.142 41.7547L174.813 43.9726L187.563 63.1089L190.892 60.8911ZM174.93 41.5962L170.089 47.5053L173.183 50.0402L178.024 44.1311L174.93 41.5962ZM169.636 48.7727V62H173.636V48.7727H169.636ZM171.636 60H161.795V64H171.636V60Z" fill="black" mask="url(#path-1-outside-1_23_32)"/>
<path d="M14.7 85.58H16.96V88.02C16.96 88.6467 16.8933 89.3067 16.76 90C16.64 90.68 16.4 91.34 16.04 91.98C15.68 92.62 15.1533 93.1867 14.46 93.68C14.34 93.5333 14.1667 93.36 13.94 93.16C13.7267 92.9467 13.5 92.7467 13.26 92.56C13.02 92.3733 12.82 92.2333 12.66 92.14C13.2733 91.7267 13.72 91.2867 14 90.82C14.2933 90.3533 14.48 89.8733 14.56 89.38C14.6533 88.8867 14.7 88.42 14.7 87.98V85.58ZM19.18 85.58H21.44V90.08C21.44 90.3467 21.4533 90.5133 21.48 90.58C21.52 90.6467 21.5933 90.68 21.7 90.68C21.7267 90.68 21.7733 90.68 21.84 90.68C21.9067 90.68 21.9733 90.68 22.04 90.68C22.12 90.68 22.1733 90.68 22.2 90.68C22.28 90.68 22.3467 90.64 22.4 90.56C22.4533 90.4667 22.4933 90.28 22.52 90C22.5467 89.7067 22.5667 89.2667 22.58 88.68C22.7933 88.8667 23.0933 89.04 23.48 89.2C23.88 89.3467 24.2267 89.46 24.52 89.54C24.4533 90.3667 24.34 91.0133 24.18 91.48C24.02 91.9467 23.8 92.2733 23.52 92.46C23.2533 92.6333 22.9 92.72 22.46 92.72C22.3533 92.72 22.2267 92.72 22.08 92.72C21.9333 92.72 21.7867 92.72 21.64 92.72C21.5067 92.72 21.3867 92.72 21.28 92.72C20.7467 92.72 20.3267 92.64 20.02 92.48C19.7133 92.32 19.4933 92.0533 19.36 91.68C19.24 91.2933 19.18 90.7667 19.18 90.1V85.58ZM16.6 95.78C17.28 97.2067 18.3067 98.44 19.68 99.48C21.0533 100.507 22.68 101.247 24.56 101.7C24.3867 101.86 24.2 102.06 24 102.3C23.8 102.553 23.6133 102.807 23.44 103.06C23.2667 103.327 23.12 103.567 23 103.78C21.0133 103.18 19.3067 102.26 17.88 101.02C16.4667 99.7667 15.3333 98.2467 14.48 96.46L16.6 95.78ZM21.06 93.64H21.52L21.94 93.54L23.5 94.12C23.1533 95.4667 22.68 96.66 22.08 97.7C21.4933 98.7267 20.7933 99.6333 19.98 100.42C19.1667 101.207 18.2533 101.873 17.24 102.42C16.2267 102.967 15.14 103.42 13.98 103.78C13.9 103.567 13.7867 103.327 13.64 103.06C13.4933 102.807 13.3333 102.553 13.16 102.3C13 102.047 12.8467 101.833 12.7 101.66C13.7267 101.407 14.6933 101.06 15.6 100.62C16.5067 100.167 17.32 99.62 18.04 98.98C18.7733 98.34 19.3933 97.6 19.9 96.76C20.42 95.92 20.8067 95 21.06 94V93.64ZM13.72 93.64H22V95.78H13.72V93.64ZM15.6 85.58H20.42V87.68H15.6V85.58ZM6.56 91.14H12.76V92.96H6.56V91.14ZM6.64 85.64H12.72V87.44H6.64V85.64ZM6.56 93.88H12.76V95.68H6.56V93.88ZM5.6 88.32H13.46V90.22H5.6V88.32ZM7.66 96.64H12.72V102.74H7.66V100.84H10.66V98.54H7.66V96.64ZM6.5 96.64H8.54V103.52H6.5V96.64ZM48.74 91.74H59.58V94.12H48.74V91.74ZM52.96 85.1H55.38V103.8H52.96V85.1ZM41.58 91.14H48.04V92.96H41.58V91.14ZM41.7 85.64H48.06V87.44H41.7V85.64ZM41.58 93.88H48.04V95.68H41.58V93.88ZM40.6 88.32H48.82V90.22H40.6V88.32ZM42.68 96.64H47.98V102.74H42.68V100.84H45.86V98.54H42.68V96.64ZM41.52 96.64H43.6V103.52H41.52V96.64ZM84.86 88.28H94.44V90.56H83.72L84.86 88.28ZM87.48 92.66H93.94V94.86H87.48V92.66ZM87.46 97.1H94.2V99.34H87.46V97.1ZM86.26 89.04H88.74V103.78H86.26V89.04ZM85.32 85.2L87.62 85.8C87.2467 86.88 86.8067 87.9533 86.3 89.02C85.8067 90.0867 85.2667 91.0867 84.68 92.02C84.0933 92.94 83.4933 93.7533 82.88 94.46C82.76 94.3 82.5867 94.1133 82.36 93.9C82.1333 93.6867 81.9 93.48 81.66 93.28C81.4333 93.0667 81.2267 92.9 81.04 92.78C81.64 92.18 82.2 91.4733 82.72 90.66C83.2533 89.8467 83.74 88.9733 84.18 88.04C84.6333 87.0933 85.0133 86.1467 85.32 85.2ZM80.02 85.08L82.34 85.82C81.9133 86.9533 81.4067 88.0933 80.82 89.24C80.2333 90.3867 79.5933 91.4733 78.9 92.5C78.2067 93.5133 77.4933 94.4 76.76 95.16C76.68 94.96 76.56 94.7 76.4 94.38C76.2533 94.06 76.0933 93.7333 75.92 93.4C75.7467 93.0667 75.5867 92.8 75.44 92.6C76.0533 91.9867 76.64 91.28 77.2 90.48C77.7733 89.68 78.3 88.82 78.78 87.9C79.2733 86.98 79.6867 86.04 80.02 85.08ZM78 90.62L80.42 88.2V88.22V103.76H78V90.62ZM116.48 88.1V90.78H123.52V88.1H116.48ZM114.16 85.8H125.96V93.06H114.16V85.8ZM111.4 94.74H119.06V103.68H116.66V97.04H113.68V103.8H111.4V94.74ZM120.74 94.74H128.66V103.7H126.26V97.04H123.04V103.8H120.74V94.74ZM112.4 100.48H117.66V102.78H112.4V100.48ZM121.84 100.48H127.44V102.78H121.84V100.48ZM145.76 92.9H164.28V95.52H145.76V92.9ZM185.92 96.74V97.38H193.98V96.74H185.92ZM185.92 98.54V99.2H193.98V98.54H185.92ZM185.92 94.92V95.58H193.98V94.92H185.92ZM183.64 93.7H196.36V100.44H183.64V93.7ZM190.82 99.74H193.18V101.24C193.18 101.48 193.233 101.633 193.34 101.7C193.46 101.753 193.72 101.78 194.12 101.78C194.213 101.78 194.367 101.78 194.58 101.78C194.807 101.78 195.047 101.78 195.3 101.78C195.553 101.78 195.793 101.78 196.02 101.78C196.247 101.78 196.427 101.78 196.56 101.78C196.773 101.78 196.933 101.747 197.04 101.68C197.147 101.6 197.227 101.453 197.28 101.24C197.333 101.027 197.373 100.7 197.4 100.26C197.627 100.407 197.933 100.547 198.32 100.68C198.72 100.813 199.073 100.913 199.38 100.98C199.3 101.66 199.167 102.187 198.98 102.56C198.807 102.933 198.54 103.193 198.18 103.34C197.833 103.5 197.373 103.58 196.8 103.58C196.707 103.58 196.553 103.58 196.34 103.58C196.14 103.58 195.913 103.58 195.66 103.58C195.42 103.58 195.173 103.58 194.92 103.58C194.68 103.58 194.46 103.58 194.26 103.58C194.073 103.58 193.927 103.58 193.82 103.58C193.033 103.58 192.42 103.507 191.98 103.36C191.553 103.227 191.253 102.987 191.08 102.64C190.907 102.307 190.82 101.84 190.82 101.24V99.74ZM186.42 99.88H188.78C188.647 100.453 188.447 100.96 188.18 101.4C187.913 101.84 187.513 102.213 186.98 102.52C186.447 102.84 185.747 103.1 184.88 103.3C184.013 103.513 182.92 103.68 181.6 103.8C181.52 103.533 181.373 103.213 181.16 102.84C180.96 102.48 180.76 102.187 180.56 101.96C181.693 101.907 182.62 101.833 183.34 101.74C184.06 101.633 184.627 101.5 185.04 101.34C185.467 101.18 185.78 100.98 185.98 100.74C186.18 100.5 186.327 100.213 186.42 99.88ZM191.9 88.08H198.08V89.42H191.9V88.08ZM191.86 86.04H199V87.52H191.86V86.04ZM185.02 86.2H186.9V88.08H185.02V86.2ZM185.02 90.2H186.9V92.1H185.02V90.2ZM182.84 87.68H189.4V90.94H182.84V89.7H187.38V88.92H182.84V87.68ZM196.2 91.04V92.04H197.04V91.04H196.2ZM194.22 91.04V92.04H195.04V91.04H194.22ZM192.28 91.04V92.04H193.06V91.04H192.28ZM190.7 89.94H198.68V93.16H190.7V89.94ZM191.68 85.04L193.72 85.36C193.427 86.1333 193.053 86.8733 192.6 87.58C192.147 88.2867 191.56 88.94 190.84 89.54C190.653 89.3133 190.407 89.06 190.1 88.78C189.793 88.5 189.513 88.3 189.26 88.18C189.887 87.74 190.393 87.24 190.78 86.68C191.18 86.12 191.48 85.5733 191.68 85.04ZM189.8 85.6V86.96H183.6V91.76H189.96V93.12H181.58V85.6H189.8Z" fill="black"/>
</svg>
